%TF.GenerationSoftware,KiCad,Pcbnew,(6.0.4)*%
%TF.CreationDate,2023-01-17T22:47:36-05:00*%
%TF.ProjectId,Unregulated bridge,556e7265-6775-46c6-9174-656420627269,rev?*%
%TF.SameCoordinates,Original*%
%TF.FileFunction,Legend,Top*%
%TF.FilePolarity,Positive*%
%FSLAX46Y46*%
G04 Gerber Fmt 4.6, Leading zero omitted, Abs format (unit mm)*
G04 Created by KiCad (PCBNEW (6.0.4)) date 2023-01-17 22:47:36*
%MOMM*%
%LPD*%
G01*
G04 APERTURE LIST*
%ADD10C,0.150000*%
%ADD11C,0.120000*%
G04 APERTURE END LIST*
D10*
X26961904Y-15152380D02*
X26961904Y-14152380D01*
X27533333Y-15152380D01*
X27533333Y-14152380D01*
X28009523Y-14628571D02*
X28342857Y-14628571D01*
X28485714Y-15152380D02*
X28009523Y-15152380D01*
X28009523Y-14152380D01*
X28485714Y-14152380D01*
X29438095Y-14200000D02*
X29342857Y-14152380D01*
X29200000Y-14152380D01*
X29057142Y-14200000D01*
X28961904Y-14295238D01*
X28914285Y-14390476D01*
X28866666Y-14580952D01*
X28866666Y-14723809D01*
X28914285Y-14914285D01*
X28961904Y-15009523D01*
X29057142Y-15104761D01*
X29200000Y-15152380D01*
X29295238Y-15152380D01*
X29438095Y-15104761D01*
X29485714Y-15057142D01*
X29485714Y-14723809D01*
X29295238Y-14723809D01*
X4161904Y-12152380D02*
X4161904Y-11152380D01*
X4733333Y-12152380D01*
X4733333Y-11152380D01*
X5209523Y-11628571D02*
X5542857Y-11628571D01*
X5685714Y-12152380D02*
X5209523Y-12152380D01*
X5209523Y-11152380D01*
X5685714Y-11152380D01*
X6638095Y-11200000D02*
X6542857Y-11152380D01*
X6400000Y-11152380D01*
X6257142Y-11200000D01*
X6161904Y-11295238D01*
X6114285Y-11390476D01*
X6066666Y-11580952D01*
X6066666Y-11723809D01*
X6114285Y-11914285D01*
X6161904Y-12009523D01*
X6257142Y-12104761D01*
X6400000Y-12152380D01*
X6495238Y-12152380D01*
X6638095Y-12104761D01*
X6685714Y-12057142D01*
X6685714Y-11723809D01*
X6495238Y-11723809D01*
X16661904Y-13452380D02*
X16661904Y-12452380D01*
X17233333Y-13452380D01*
X17233333Y-12452380D01*
X17709523Y-12928571D02*
X18042857Y-12928571D01*
X18185714Y-13452380D02*
X17709523Y-13452380D01*
X17709523Y-12452380D01*
X18185714Y-12452380D01*
X19138095Y-12500000D02*
X19042857Y-12452380D01*
X18900000Y-12452380D01*
X18757142Y-12500000D01*
X18661904Y-12595238D01*
X18614285Y-12690476D01*
X18566666Y-12880952D01*
X18566666Y-13023809D01*
X18614285Y-13214285D01*
X18661904Y-13309523D01*
X18757142Y-13404761D01*
X18900000Y-13452380D01*
X18995238Y-13452380D01*
X19138095Y-13404761D01*
X19185714Y-13357142D01*
X19185714Y-13023809D01*
X18995238Y-13023809D01*
X16580952Y-4428571D02*
X16723809Y-4476190D01*
X16771428Y-4523809D01*
X16819047Y-4619047D01*
X16819047Y-4761904D01*
X16771428Y-4857142D01*
X16723809Y-4904761D01*
X16628571Y-4952380D01*
X16247619Y-4952380D01*
X16247619Y-3952380D01*
X16580952Y-3952380D01*
X16676190Y-4000000D01*
X16723809Y-4047619D01*
X16771428Y-4142857D01*
X16771428Y-4238095D01*
X16723809Y-4333333D01*
X16676190Y-4380952D01*
X16580952Y-4428571D01*
X16247619Y-4428571D01*
X17200000Y-4666666D02*
X17676190Y-4666666D01*
X17104761Y-4952380D02*
X17438095Y-3952380D01*
X17771428Y-4952380D01*
X17961904Y-3952380D02*
X18533333Y-3952380D01*
X18247619Y-4952380D02*
X18247619Y-3952380D01*
X19628571Y-4952380D02*
X19628571Y-3952380D01*
X20009523Y-3952380D01*
X20104761Y-4000000D01*
X20152380Y-4047619D01*
X20200000Y-4142857D01*
X20200000Y-4285714D01*
X20152380Y-4380952D01*
X20104761Y-4428571D01*
X20009523Y-4476190D01*
X19628571Y-4476190D01*
X20819047Y-3952380D02*
X21009523Y-3952380D01*
X21104761Y-4000000D01*
X21200000Y-4095238D01*
X21247619Y-4285714D01*
X21247619Y-4619047D01*
X21200000Y-4809523D01*
X21104761Y-4904761D01*
X21009523Y-4952380D01*
X20819047Y-4952380D01*
X20723809Y-4904761D01*
X20628571Y-4809523D01*
X20580952Y-4619047D01*
X20580952Y-4285714D01*
X20628571Y-4095238D01*
X20723809Y-4000000D01*
X20819047Y-3952380D01*
X21628571Y-4904761D02*
X21771428Y-4952380D01*
X22009523Y-4952380D01*
X22104761Y-4904761D01*
X22152380Y-4857142D01*
X22200000Y-4761904D01*
X22200000Y-4666666D01*
X22152380Y-4571428D01*
X22104761Y-4523809D01*
X22009523Y-4476190D01*
X21819047Y-4428571D01*
X21723809Y-4380952D01*
X21676190Y-4333333D01*
X21628571Y-4238095D01*
X21628571Y-4142857D01*
X21676190Y-4047619D01*
X21723809Y-4000000D01*
X21819047Y-3952380D01*
X22057142Y-3952380D01*
X22200000Y-4000000D01*
%TO.C,*%
%TO.C,Switch*%
X16785714Y-7504761D02*
X16928571Y-7552380D01*
X17166666Y-7552380D01*
X17261904Y-7504761D01*
X17309523Y-7457142D01*
X17357142Y-7361904D01*
X17357142Y-7266666D01*
X17309523Y-7171428D01*
X17261904Y-7123809D01*
X17166666Y-7076190D01*
X16976190Y-7028571D01*
X16880952Y-6980952D01*
X16833333Y-6933333D01*
X16785714Y-6838095D01*
X16785714Y-6742857D01*
X16833333Y-6647619D01*
X16880952Y-6600000D01*
X16976190Y-6552380D01*
X17214285Y-6552380D01*
X17357142Y-6600000D01*
X17690476Y-6885714D02*
X17880952Y-7552380D01*
X18071428Y-7076190D01*
X18261904Y-7552380D01*
X18452380Y-6885714D01*
X18833333Y-7552380D02*
X18833333Y-6885714D01*
X18833333Y-6552380D02*
X18785714Y-6600000D01*
X18833333Y-6647619D01*
X18880952Y-6600000D01*
X18833333Y-6552380D01*
X18833333Y-6647619D01*
X19166666Y-6885714D02*
X19547619Y-6885714D01*
X19309523Y-6552380D02*
X19309523Y-7409523D01*
X19357142Y-7504761D01*
X19452380Y-7552380D01*
X19547619Y-7552380D01*
X20309523Y-7504761D02*
X20214285Y-7552380D01*
X20023809Y-7552380D01*
X19928571Y-7504761D01*
X19880952Y-7457142D01*
X19833333Y-7361904D01*
X19833333Y-7076190D01*
X19880952Y-6980952D01*
X19928571Y-6933333D01*
X20023809Y-6885714D01*
X20214285Y-6885714D01*
X20309523Y-6933333D01*
X20738095Y-7552380D02*
X20738095Y-6552380D01*
X21166666Y-7552380D02*
X21166666Y-7028571D01*
X21119047Y-6933333D01*
X21023809Y-6885714D01*
X20880952Y-6885714D01*
X20785714Y-6933333D01*
X20738095Y-6980952D01*
%TO.C,*%
D11*
%TO.C,REF\u002A\u002A*%
X3705000Y-14785000D02*
X3791724Y-14785000D01*
X5008276Y-14785000D02*
X5095000Y-14785000D01*
X3705000Y-14785000D02*
X3705000Y-14660000D01*
X5095000Y-14785000D02*
X5095000Y-14660000D01*
X3705000Y-14100000D02*
X3705000Y-13415000D01*
X3705000Y-14785000D02*
X5095000Y-14785000D01*
X3705000Y-13415000D02*
X4400000Y-13415000D01*
%TD*%
M02*
