<?xml version="1.0" standalone="no"?>
<!DOCTYPE svg PUBLIC "-//W3C//DTD SVG 20010904//EN"
 "http://www.w3.org/TR/2001/REC-SVG-20010904/DTD/svg10.dtd">
<svg version="1.0" xmlns="http://www.w3.org/2000/svg"
 width="350.000000pt" height="350.000000pt" viewBox="0 0 350.000000 350.000000"
 preserveAspectRatio="xMidYMid meet">

<g transform="translate(0.000000,350.000000) scale(0.100000,-0.100000)"
fill="#000000" stroke="none">
<path d="M3140 3402 c-47 -36 -146 -114 -220 -172 -202 -160 -172 -150 -277
-90 -155 89 -420 183 -613 216 -169 30 -469 18 -667 -26 -138 -31 -328 -103
-453 -173 l-58 -31 -73 78 c-41 44 -80 87 -87 98 -19 26 -39 23 -88 -14 -38
-29 -47 -45 -78 -131 -39 -106 -42 -142 -24 -231 l11 -57 -50 -52 c-204 -209
-358 -518 -407 -816 -34 -204 -40 -318 -22 -451 34 -255 69 -381 153 -560 250
-532 774 -882 1405 -940 537 -48 1077 167 1442 576 251 281 401 628 425 982
19 287 -39 573 -168 825 l-59 116 9 78 c7 55 25 112 61 198 28 66 61 145 73
175 l23 55 -19 120 c-10 66 -21 131 -24 145 -6 20 -108 141 -125 147 -3 1 -43
-28 -90 -65z m135 -215 c9 -54 13 -108 9 -120 -9 -32 -69 -149 -127 -250 l-50
-88 -297 -222 c-576 -431 -595 -443 -525 -346 32 46 147 189 180 225 68 74
155 174 206 234 34 41 103 120 154 175 158 171 222 252 290 364 48 80 73 112
97 124 18 9 36 13 40 9 4 -4 14 -51 23 -105z m-2614 -11 c13 -13 39 -66 58
-117 44 -119 53 -136 203 -369 244 -383 343 -554 332 -572 -7 -10 -37 21 -177
177 -63 72 -189 212 -280 312 -160 177 -164 183 -191 262 -40 124 -42 153 -11
249 14 45 30 82 34 82 5 0 19 -11 32 -24z m1409 -46 c206 -44 490 -162 490
-204 0 -7 -12 -26 -26 -42 -54 -62 -232 -282 -281 -349 -55 -75 -145 -219
-156 -247 -7 -20 -22 -23 -32 -8 -9 15 -51 12 -218 -14 -84 -13 -176 -27 -205
-31 -42 -6 -72 -20 -141 -65 -48 -32 -93 -60 -100 -62 -10 -2 -15 12 -18 46
-9 102 -117 344 -282 631 -50 87 -91 167 -91 176 0 23 15 34 102 68 116 47
310 100 422 116 147 21 400 14 536 -15z m756 -142 c-92 -138 -199 -271 -378
-471 -48 -54 -122 -142 -165 -197 -43 -55 -79 -95 -81 -90 -4 11 113 237 166
320 32 51 501 535 509 526 3 -2 -21 -42 -51 -88z m-1840 -155 c44 -65 99 -145
123 -178 58 -81 73 -112 130 -272 27 -76 52 -146 56 -155 4 -10 3 -18 -1 -18
-5 0 -45 55 -88 123 -261 404 -237 361 -280 494 -55 172 -51 172 60 6z m-239
-291 c67 -81 161 -194 210 -252 117 -139 186 -230 180 -236 -3 -3 -70 44 -151
105 -80 60 -155 112 -166 116 -18 6 -165 187 -188 232 -13 24 -26 183 -15 183
4 -1 63 -67 130 -148z m2370 66 c-3 -13 -11 -52 -16 -88 -21 -127 -27 -138
-126 -215 -27 -22 -68 -57 -90 -78 -44 -42 -157 -99 -286 -145 -46 -17 -122
-47 -169 -66 -148 -62 -146 -50 12 74 306 241 484 385 568 459 51 45 96 81
102 81 6 0 8 -10 5 -22z m-2515 -213 c147 -173 262 -272 455 -388 35 -21 65
-42 68 -47 3 -5 -14 -19 -37 -31 -65 -32 -75 -44 -130 -158 -91 -191 -94 -231
-18 -308 l41 -41 -12 -68 c-7 -39 -9 -108 -6 -163 7 -119 28 -281 36 -281 3 1
51 70 106 155 67 103 108 158 125 164 14 6 99 33 190 62 91 28 170 55 176 60
6 5 27 51 48 102 50 128 52 130 124 135 122 9 124 7 193 -130 l60 -120 42 6
c62 10 93 29 202 122 55 47 135 115 177 150 75 63 78 68 98 137 12 40 25 85
31 101 14 44 12 46 -35 46 -49 0 -67 14 -39 28 10 5 74 26 143 47 69 20 143
47 165 59 22 12 100 71 174 130 152 123 142 122 182 17 58 -155 86 -385 69
-565 -75 -795 -776 -1414 -1554 -1373 -215 12 -414 63 -623 162 -286 135 -483
321 -631 595 -163 301 -230 695 -168 985 38 177 169 478 240 549 l21 21 5 -36
c4 -24 29 -62 82 -124z m1073 -333 c-20 -16 -336 -164 -341 -160 -3 3 20 34
50 69 l54 64 99 16 c113 19 151 22 138 11z m-83 -376 c-6 -50 -91 -259 -109
-270 -10 -6 -54 -23 -98 -38 -79 -28 -188 -38 -199 -19 -6 9 203 265 238 291
30 23 139 70 156 67 10 -2 14 -11 12 -31z"/>
<path d="M2630 1646 c-19 -25 -79 -101 -133 -170 -54 -69 -101 -127 -105 -130
-4 -2 -69 -20 -144 -40 -76 -19 -153 -42 -172 -50 l-34 -14 17 -59 17 -58 95
-8 c121 -10 340 -2 404 16 l50 13 42 115 43 114 -8 155 c-8 178 -15 189 -72
116z"/>
<path d="M2086 1068 c-2 -7 -9 -78 -15 -157 -9 -123 -19 -176 -67 -358 -32
-117 -54 -216 -51 -219 9 -9 79 34 192 119 137 103 164 132 238 255 103 170
177 301 177 312 0 6 -26 10 -59 10 -33 0 -136 11 -231 25 -202 29 -180 28
-184 13z"/>
</g>
</svg>
