%TF.GenerationSoftware,KiCad,Pcbnew,(6.0.4)*%
%TF.CreationDate,2023-01-17T21:54:18-05:00*%
%TF.ProjectId,Analog bridge,416e616c-6f67-4206-9272-696467652e6b,rev?*%
%TF.SameCoordinates,Original*%
%TF.FileFunction,Legend,Bot*%
%TF.FilePolarity,Positive*%
%FSLAX46Y46*%
G04 Gerber Fmt 4.6, Leading zero omitted, Abs format (unit mm)*
G04 Created by KiCad (PCBNEW (6.0.4)) date 2023-01-17 21:54:18*
%MOMM*%
%LPD*%
G01*
G04 APERTURE LIST*
%ADD10C,0.090000*%
G04 APERTURE END LIST*
D10*
X-22300000Y8800000D02*
X-22300000Y8800000D01*
X-22300000Y8800000D02*
X-22300000Y8800000D01*
X-22300000Y8800000D02*
X-22300000Y8800000D01*
X0Y0D02*
X0Y0D01*
X0Y0D02*
X0Y0D01*
X0Y0D02*
X0Y0D01*
X0Y0D02*
X0Y0D01*
X0Y0D02*
X0Y0D01*
X0Y0D02*
X0Y0D01*
X-22300000Y8800000D02*
X-22300000Y8800000D01*
X-22300000Y8800000D02*
X-22300000Y8800000D01*
X-22300000Y8800000D02*
X-22300000Y8800000D01*
X0Y0D02*
X0Y0D01*
X-22300000Y8800000D02*
X-22300000Y8800000D01*
X0Y0D02*
X0Y0D01*
X0Y0D02*
X0Y0D01*
X0Y0D02*
X0Y0D01*
X-22300000Y8800000D02*
X-22300000Y8800000D01*
X0Y0D02*
X0Y0D01*
X-22300000Y8800000D02*
X-22300000Y8800000D01*
X-22300000Y8800000D02*
X-22300000Y8800000D01*
X-22300000Y8800000D02*
X-22300000Y8800000D01*
X-22300000Y8800000D02*
X-22300000Y8800000D01*
X0Y0D02*
X0Y0D01*
X-22300000Y8800000D02*
X-22300000Y8800000D01*
X-22300000Y8800000D02*
X-22300000Y8800000D01*
X0Y0D02*
X0Y0D01*
X-22300000Y8800000D02*
X-22300000Y8800000D01*
X-22300000Y8800000D02*
X-22300000Y8800000D01*
X-22300000Y8800000D02*
X-22300000Y8800000D01*
X0Y0D02*
X0Y0D01*
X0Y0D02*
X0Y0D01*
X0Y0D02*
X0Y0D01*
X-22300000Y8800000D02*
X-22300000Y8800000D01*
X0Y0D02*
X0Y0D01*
X-22300000Y8800000D02*
X-22300000Y8800000D01*
X-22300000Y8800000D02*
X-22300000Y8800000D01*
X0Y0D02*
X0Y0D01*
X-22300000Y8800000D02*
X-22300000Y8800000D01*
X-22300000Y8800000D02*
X-22300000Y8800000D01*
X-22300000Y8800000D02*
X-22300000Y8800000D01*
X0Y0D02*
X0Y0D01*
X0Y0D02*
X0Y0D01*
X0Y0D02*
X0Y0D01*
X0Y0D02*
X0Y0D01*
X-22300000Y8800000D02*
X-22300000Y8800000D01*
X0Y0D02*
X0Y0D01*
X0Y0D02*
X0Y0D01*
X-22300000Y8800000D02*
X-22300000Y8800000D01*
X-22300000Y8800000D02*
X-22300000Y8800000D01*
X-22300000Y8800000D02*
X-22300000Y8800000D01*
X-22300000Y8800000D02*
X-22300000Y8800000D01*
X0Y0D02*
X0Y0D01*
X-22300000Y8800000D02*
X-22300000Y8800000D01*
X0Y0D02*
X0Y0D01*
X0Y0D02*
X0Y0D01*
X-22300000Y8800000D02*
X-22300000Y8800000D01*
X-22300000Y8800000D02*
X-22300000Y8800000D01*
X0Y0D02*
X0Y0D01*
X0Y0D02*
X0Y0D01*
X0Y0D02*
X0Y0D01*
X0Y0D02*
X0Y0D01*
X-22300000Y8800000D02*
X-22300000Y8800000D01*
X-22300000Y8800000D02*
X-22300000Y8800000D01*
X-22300000Y8800000D02*
X-22300000Y8800000D01*
X0Y0D02*
X0Y0D01*
X0Y0D02*
X0Y0D01*
X0Y0D02*
X0Y0D01*
X-22300000Y8800000D02*
X-22300000Y8800000D01*
X-22300000Y8800000D02*
X-22300000Y8800000D01*
X0Y0D02*
X0Y0D01*
X0Y0D02*
X0Y0D01*
X0Y0D02*
X0Y0D01*
X0Y0D02*
X0Y0D01*
X-22300000Y8800000D02*
X-22300000Y8800000D01*
X0Y0D02*
X0Y0D01*
X-22300000Y8800000D02*
X-22300000Y8800000D01*
X0Y0D02*
X0Y0D01*
X-22300000Y8800000D02*
X-22300000Y8800000D01*
X-22300000Y8800000D02*
X-22300000Y8800000D01*
X-22300000Y8800000D02*
X-22300000Y8800000D01*
X0Y0D02*
X0Y0D01*
X-22300000Y8800000D02*
X-22300000Y8800000D01*
X0Y0D02*
X0Y0D01*
X0Y0D02*
X0Y0D01*
X-22300000Y8800000D02*
X-22300000Y8800000D01*
X0Y0D02*
X0Y0D01*
X0Y0D02*
X0Y0D01*
X0Y0D02*
X0Y0D01*
X-22300000Y8800000D02*
X-22300000Y8800000D01*
X0Y0D02*
X0Y0D01*
X0Y0D02*
X0Y0D01*
X0Y0D02*
X0Y0D01*
X-22300000Y8800000D02*
X-22300000Y8800000D01*
X0Y0D02*
X0Y0D01*
X-22300000Y8800000D02*
X-22300000Y8800000D01*
X-22300000Y8800000D02*
X-22300000Y8800000D01*
X0Y0D02*
X0Y0D01*
X-22300000Y8800000D02*
X-22300000Y8800000D01*
X0Y0D02*
X0Y0D01*
X-22300000Y8800000D02*
X-22300000Y8800000D01*
X-22300000Y8800000D02*
X-22300000Y8800000D01*
X-22300000Y8800000D02*
X-22300000Y8800000D01*
X0Y0D02*
X0Y0D01*
X0Y0D02*
X0Y0D01*
X0Y0D02*
X0Y0D01*
X0Y0D02*
X0Y0D01*
X-22300000Y8800000D02*
X-22300000Y8800000D01*
X0Y0D02*
X0Y0D01*
X0Y0D02*
X0Y0D01*
X-22300000Y8800000D02*
X-22300000Y8800000D01*
X-22300000Y8800000D02*
X-22300000Y8800000D01*
X-22300000Y8800000D02*
X-22300000Y8800000D01*
X0Y0D02*
X0Y0D01*
X-22300000Y8800000D02*
X-22300000Y8800000D01*
X-22300000Y8800000D02*
X-22300000Y8800000D01*
X0Y0D02*
X0Y0D01*
X-22300000Y8800000D02*
X-22300000Y8800000D01*
X-22300000Y8800000D02*
X-22300000Y8800000D01*
X0Y0D02*
X0Y0D01*
X-22300000Y8800000D02*
X-22300000Y8800000D01*
X-22300000Y8800000D02*
X-22300000Y8800000D01*
X0Y0D02*
X0Y0D01*
X-22300000Y8800000D02*
X-22300000Y8800000D01*
X-22300000Y8800000D02*
X-22300000Y8800000D01*
X0Y0D02*
X0Y0D01*
X-22300000Y8800000D02*
X-22300000Y8800000D01*
X-22300000Y8800000D02*
X-22300000Y8800000D01*
X-22300000Y8800000D02*
X-22300000Y8800000D01*
X-22300000Y8800000D02*
X-22300000Y8800000D01*
X-22300000Y8800000D02*
X-22300000Y8800000D01*
X-22300000Y8800000D02*
X-22300000Y8800000D01*
X-22300000Y8800000D02*
X-22300000Y8800000D01*
X0Y0D02*
X0Y0D01*
X0Y0D02*
X0Y0D01*
X-22300000Y8800000D02*
X-22300000Y8800000D01*
X-22300000Y8800000D02*
X-22300000Y8800000D01*
X-22300000Y8800000D02*
X-22300000Y8800000D01*
X-22300000Y8800000D02*
X-22300000Y8800000D01*
X0Y0D02*
X0Y0D01*
X0Y0D02*
X0Y0D01*
X-22300000Y8800000D02*
X-22300000Y8800000D01*
X-22300000Y8800000D02*
X-22300000Y8800000D01*
X0Y0D02*
X0Y0D01*
X0Y0D02*
X0Y0D01*
X-22300000Y8800000D02*
X-22300000Y8800000D01*
X0Y0D02*
X0Y0D01*
X0Y0D02*
X0Y0D01*
X-22300000Y8800000D02*
X-22300000Y8800000D01*
X0Y0D02*
X0Y0D01*
X-22300000Y8800000D02*
X-22300000Y8800000D01*
X0Y0D02*
X0Y0D01*
X0Y0D02*
X0Y0D01*
X-22300000Y8800000D02*
X-22300000Y8800000D01*
X-22300000Y8800000D02*
X-22300000Y8800000D01*
X-22300000Y8800000D02*
X-22300000Y8800000D01*
X0Y0D02*
X0Y0D01*
X-22300000Y8800000D02*
X-22300000Y8800000D01*
X0Y0D02*
X0Y0D01*
X-22300000Y8800000D02*
X-22300000Y8800000D01*
X0Y0D02*
X0Y0D01*
X-22300000Y8800000D02*
X-22300000Y8800000D01*
X0Y0D02*
X0Y0D01*
X0Y0D02*
X0Y0D01*
X-22300000Y8800000D02*
X-22300000Y8800000D01*
X0Y0D02*
X0Y0D01*
X-22300000Y8800000D02*
X-22300000Y8800000D01*
X-22300000Y8800000D02*
X-22300000Y8800000D01*
X-22300000Y8800000D02*
X-22300000Y8800000D01*
X-22300000Y8800000D02*
X-22300000Y8800000D01*
X-22300000Y8800000D02*
X-22300000Y8800000D01*
X-22300000Y8800000D02*
X-22300000Y8800000D01*
X0Y0D02*
X0Y0D01*
X0Y0D02*
X0Y0D01*
X0Y0D02*
X0Y0D01*
X0Y0D02*
X0Y0D01*
X0Y0D02*
X0Y0D01*
X-22300000Y8800000D02*
X-22300000Y8800000D01*
X0Y0D02*
X0Y0D01*
X0Y0D02*
X0Y0D01*
X0Y0D02*
X0Y0D01*
X0Y0D02*
X0Y0D01*
X-22300000Y8800000D02*
X-22300000Y8800000D01*
X-22300000Y8800000D02*
X-22300000Y8800000D01*
X0Y0D02*
X0Y0D01*
X0Y0D02*
X0Y0D01*
X-22300000Y8800000D02*
X-22300000Y8800000D01*
X-22300000Y8800000D02*
X-22300000Y8800000D01*
X0Y0D02*
X0Y0D01*
X0Y0D02*
X0Y0D01*
X0Y0D02*
X0Y0D01*
X-22300000Y8800000D02*
X-22300000Y8800000D01*
X-22300000Y8800000D02*
X-22300000Y8800000D01*
X0Y0D02*
X0Y0D01*
X0Y0D02*
X0Y0D01*
X0Y0D02*
X0Y0D01*
X-22300000Y8800000D02*
X-22300000Y8800000D01*
X0Y0D02*
X0Y0D01*
X0Y0D02*
X0Y0D01*
X0Y0D02*
X0Y0D01*
X0Y0D02*
X0Y0D01*
X-22300000Y8800000D02*
X-22300000Y8800000D01*
X-22300000Y8800000D02*
X-22300000Y8800000D01*
X-22300000Y8800000D02*
X-22300000Y8800000D01*
X0Y0D02*
X0Y0D01*
X0Y0D02*
X0Y0D01*
X-22300000Y8800000D02*
X-22300000Y8800000D01*
X0Y0D02*
X0Y0D01*
X-22300000Y8800000D02*
X-22300000Y8800000D01*
X-22300000Y8800000D02*
X-22300000Y8800000D01*
X-22300000Y8800000D02*
X-22300000Y8800000D01*
X0Y0D02*
X0Y0D01*
X-22300000Y8800000D02*
X-22300000Y8800000D01*
X-22300000Y8800000D02*
X-22300000Y8800000D01*
X-22300000Y8800000D02*
X-22300000Y8800000D01*
X0Y0D02*
X0Y0D01*
X0Y0D02*
X0Y0D01*
X0Y0D02*
X0Y0D01*
X-22300000Y8800000D02*
X-22300000Y8800000D01*
X-22300000Y8800000D02*
X-22300000Y8800000D01*
X0Y0D02*
X0Y0D01*
X0Y0D02*
X0Y0D01*
X-22300000Y8800000D02*
X-22300000Y8800000D01*
X-22300000Y8800000D02*
X-22300000Y8800000D01*
X0Y0D02*
X0Y0D01*
X0Y0D02*
X0Y0D01*
X0Y0D02*
X0Y0D01*
X-22300000Y8800000D02*
X-22300000Y8800000D01*
X0Y0D02*
X0Y0D01*
X-22300000Y8800000D02*
X-22300000Y8800000D01*
X0Y0D02*
X0Y0D01*
X0Y0D02*
X0Y0D01*
X0Y0D02*
X0Y0D01*
X0Y0D02*
X0Y0D01*
X0Y0D02*
X0Y0D01*
X0Y0D02*
X0Y0D01*
X-22300000Y8800000D02*
X-22300000Y8800000D01*
X0Y0D02*
X0Y0D01*
X0Y0D02*
X0Y0D01*
X0Y0D02*
X0Y0D01*
X0Y0D02*
X0Y0D01*
X0Y0D02*
X0Y0D01*
X0Y0D02*
X0Y0D01*
X-22300000Y8800000D02*
X-22300000Y8800000D01*
X-22300000Y8800000D02*
X-22300000Y8800000D01*
X0Y0D02*
X0Y0D01*
X-22300000Y8800000D02*
X-22300000Y8800000D01*
X-22300000Y8800000D02*
X-22300000Y8800000D01*
X0Y0D02*
X0Y0D01*
X0Y0D02*
X0Y0D01*
X0Y0D02*
X0Y0D01*
X-22300000Y8800000D02*
X-22300000Y8800000D01*
X0Y0D02*
X0Y0D01*
X-22300000Y8800000D02*
X-22300000Y8800000D01*
X-22300000Y8800000D02*
X-22300000Y8800000D01*
X-22300000Y8800000D02*
X-22300000Y8800000D01*
X-22300000Y8800000D02*
X-22300000Y8800000D01*
X0Y0D02*
X0Y0D01*
X0Y0D02*
X0Y0D01*
X-22300000Y8800000D02*
X-22300000Y8800000D01*
X-22300000Y8800000D02*
X-22300000Y8800000D01*
X-22300000Y8800000D02*
X-22300000Y8800000D01*
X-22300000Y8800000D02*
X-22300000Y8800000D01*
X-22300000Y8800000D02*
X-22300000Y8800000D01*
X-22300000Y8800000D02*
X-22300000Y8800000D01*
X0Y0D02*
X0Y0D01*
X-22300000Y8800000D02*
X-22300000Y8800000D01*
X-22300000Y8800000D02*
X-22300000Y8800000D01*
X0Y0D02*
X0Y0D01*
X0Y0D02*
X0Y0D01*
X0Y0D02*
X0Y0D01*
X0Y0D02*
X0Y0D01*
X-22300000Y8800000D02*
X-22300000Y8800000D01*
X-22300000Y8800000D02*
X-22300000Y8800000D01*
X0Y0D02*
X0Y0D01*
X-22300000Y8800000D02*
X-22300000Y8800000D01*
X-22300000Y8800000D02*
X-22300000Y8800000D01*
X0Y0D02*
X0Y0D01*
X-22300000Y8800000D02*
X-22300000Y8800000D01*
X0Y0D02*
X0Y0D01*
X0Y0D02*
X0Y0D01*
X-22300000Y8800000D02*
X-22300000Y8800000D01*
X0Y0D02*
X0Y0D01*
X-22300000Y8800000D02*
X-22300000Y8800000D01*
X-22300000Y8800000D02*
X-22300000Y8800000D01*
X-22300000Y8800000D02*
X-22300000Y8800000D01*
X0Y0D02*
X0Y0D01*
X0Y0D02*
X0Y0D01*
X-22300000Y8800000D02*
X-22300000Y8800000D01*
X0Y0D02*
X0Y0D01*
X-22300000Y8800000D02*
X-22300000Y8800000D01*
X0Y0D02*
X0Y0D01*
X0Y0D02*
X0Y0D01*
X-22300000Y8800000D02*
X-22300000Y8800000D01*
X0Y0D02*
X0Y0D01*
X0Y0D02*
X0Y0D01*
X0Y0D02*
X0Y0D01*
X0Y0D02*
X0Y0D01*
X-22300000Y8800000D02*
X-22300000Y8800000D01*
X-22300000Y8800000D02*
X-22300000Y8800000D01*
X-22300000Y8800000D02*
X-22300000Y8800000D01*
X-22300000Y8800000D02*
X-22300000Y8800000D01*
X-22300000Y8800000D02*
X-22300000Y8800000D01*
X-22300000Y8800000D02*
X-22300000Y8800000D01*
X-22300000Y8800000D02*
X-22300000Y8800000D01*
X-22300000Y8800000D02*
X-22300000Y8800000D01*
X0Y0D02*
X0Y0D01*
X0Y0D02*
X0Y0D01*
X0Y0D02*
X0Y0D01*
X0Y0D02*
X0Y0D01*
X0Y0D02*
X0Y0D01*
X-22300000Y8800000D02*
X-22300000Y8800000D01*
X-22300000Y8800000D02*
X-22300000Y8800000D01*
X0Y0D02*
X0Y0D01*
X0Y0D02*
X0Y0D01*
X-22300000Y8800000D02*
X-22300000Y8800000D01*
X0Y0D02*
X0Y0D01*
X-22300000Y8800000D02*
X-22300000Y8800000D01*
X0Y0D02*
X0Y0D01*
X-22300000Y8800000D02*
X-22300000Y8800000D01*
X0Y0D02*
X0Y0D01*
X0Y0D02*
X0Y0D01*
X-22300000Y8800000D02*
X-22300000Y8800000D01*
X0Y0D02*
X0Y0D01*
X-22300000Y8800000D02*
X-22300000Y8800000D01*
X0Y0D02*
X0Y0D01*
X0Y0D02*
X0Y0D01*
X-22300000Y8800000D02*
X-22300000Y8800000D01*
X-22300000Y8800000D02*
X-22300000Y8800000D01*
X0Y0D02*
X0Y0D01*
X0Y0D02*
X0Y0D01*
X0Y0D02*
X0Y0D01*
X-22300000Y8800000D02*
X-22300000Y8800000D01*
X-22300000Y8800000D02*
X-22300000Y8800000D01*
X-22300000Y8800000D02*
X-22300000Y8800000D01*
X-22300000Y8800000D02*
X-22300000Y8800000D01*
X0Y0D02*
X0Y0D01*
X-22300000Y8800000D02*
X-22300000Y8800000D01*
X-22300000Y8800000D02*
X-22300000Y8800000D01*
X-22300000Y8800000D02*
X-22300000Y8800000D01*
X0Y0D02*
X0Y0D01*
X-22300000Y8800000D02*
X-22300000Y8800000D01*
X-22300000Y8800000D02*
X-22300000Y8800000D01*
X0Y0D02*
X0Y0D01*
X-22300000Y8800000D02*
X-22300000Y8800000D01*
X-22300000Y8800000D02*
X-22300000Y8800000D01*
X-22300000Y8800000D02*
X-22300000Y8800000D01*
X-22300000Y8800000D02*
X-22300000Y8800000D01*
X-22300000Y8800000D02*
X-22300000Y8800000D01*
X0Y0D02*
X0Y0D01*
X0Y0D02*
X0Y0D01*
X-22300000Y8800000D02*
X-22300000Y8800000D01*
X0Y0D02*
X0Y0D01*
X0Y0D02*
X0Y0D01*
X-22300000Y8800000D02*
X-22300000Y8800000D01*
X-22300000Y8800000D02*
X-22300000Y8800000D01*
X-22300000Y8800000D02*
X-22300000Y8800000D01*
X-22300000Y8800000D02*
X-22300000Y8800000D01*
X-22300000Y8800000D02*
X-22300000Y8800000D01*
X0Y0D02*
X0Y0D01*
X-22300000Y8800000D02*
X-22300000Y8800000D01*
X-22300000Y8800000D02*
X-22300000Y8800000D01*
X0Y0D02*
X0Y0D01*
X0Y0D02*
X0Y0D01*
X-22300000Y8800000D02*
X-22300000Y8800000D01*
X-22300000Y8800000D02*
X-22300000Y8800000D01*
X0Y0D02*
X0Y0D01*
X0Y0D02*
X0Y0D01*
X-22300000Y8800000D02*
X-22300000Y8800000D01*
X-22300000Y8800000D02*
X-22300000Y8800000D01*
X-22300000Y8800000D02*
X-22300000Y8800000D01*
X-22300000Y8800000D02*
X-22300000Y8800000D01*
X-22300000Y8800000D02*
X-22300000Y8800000D01*
X-22300000Y8800000D02*
X-22300000Y8800000D01*
X0Y0D02*
X0Y0D01*
X-22300000Y8800000D02*
X-22300000Y8800000D01*
X0Y0D02*
X0Y0D01*
X0Y0D02*
X0Y0D01*
X0Y0D02*
X0Y0D01*
X0Y0D02*
X0Y0D01*
X-22300000Y8800000D02*
X-22300000Y8800000D01*
X0Y0D02*
X0Y0D01*
X-22300000Y8800000D02*
X-22300000Y8800000D01*
X0Y0D02*
X0Y0D01*
X0Y0D02*
X0Y0D01*
X0Y0D02*
X0Y0D01*
X-22300000Y8800000D02*
X-22300000Y8800000D01*
X0Y0D02*
X0Y0D01*
X-22300000Y8800000D02*
X-22300000Y8800000D01*
X-22300000Y8800000D02*
X-22300000Y8800000D01*
X-22300000Y8800000D02*
X-22300000Y8800000D01*
X-22300000Y8800000D02*
X-22300000Y8800000D01*
X0Y0D02*
X0Y0D01*
X-22300000Y8800000D02*
X-22300000Y8800000D01*
X-22300000Y8800000D02*
X-22300000Y8800000D01*
X-22300000Y8800000D02*
X-22300000Y8800000D01*
X0Y0D02*
X0Y0D01*
X-22300000Y8800000D02*
X-22300000Y8800000D01*
X-22300000Y8800000D02*
X-22300000Y8800000D01*
X0Y0D02*
X0Y0D01*
X-22300000Y8800000D02*
X-22300000Y8800000D01*
X-22300000Y8800000D02*
X-22300000Y8800000D01*
X-22300000Y8800000D02*
X-22300000Y8800000D01*
X0Y0D02*
X0Y0D01*
X0Y0D02*
X0Y0D01*
X0Y0D02*
X0Y0D01*
X0Y0D02*
X0Y0D01*
X-22300000Y8800000D02*
X-22300000Y8800000D01*
X-22300000Y8800000D02*
X-22300000Y8800000D01*
X-22300000Y8800000D02*
X-22300000Y8800000D01*
X0Y0D02*
X0Y0D01*
X-22300000Y8800000D02*
X-22300000Y8800000D01*
X0Y0D02*
X0Y0D01*
X-22300000Y8800000D02*
X-22300000Y8800000D01*
X-22300000Y8800000D02*
X-22300000Y8800000D01*
X-22300000Y8800000D02*
X-22300000Y8800000D01*
X0Y0D02*
X0Y0D01*
X-22300000Y8800000D02*
X-22300000Y8800000D01*
X0Y0D02*
X0Y0D01*
X-22300000Y8800000D02*
X-22300000Y8800000D01*
X0Y0D02*
X0Y0D01*
X-22300000Y8800000D02*
X-22300000Y8800000D01*
X0Y0D02*
X0Y0D01*
X-22300000Y8800000D02*
X-22300000Y8800000D01*
X-22300000Y8800000D02*
X-22300000Y8800000D01*
X-22300000Y8800000D02*
X-22300000Y8800000D01*
X0Y0D02*
X0Y0D01*
X-22300000Y8800000D02*
X-22300000Y8800000D01*
X0Y0D02*
X0Y0D01*
X-22300000Y8800000D02*
X-22300000Y8800000D01*
X-22300000Y8800000D02*
X-22300000Y8800000D01*
X-22300000Y8800000D02*
X-22300000Y8800000D01*
X-22300000Y8800000D02*
X-22300000Y8800000D01*
X-22300000Y8800000D02*
X-22300000Y8800000D01*
X-22300000Y8800000D02*
X-22300000Y8800000D01*
X-22300000Y8800000D02*
X-22300000Y8800000D01*
X-22300000Y8800000D02*
X-22300000Y8800000D01*
X0Y0D02*
X0Y0D01*
X0Y0D02*
X0Y0D01*
X0Y0D02*
X0Y0D01*
X-22300000Y8800000D02*
X-22300000Y8800000D01*
X-22300000Y8800000D02*
X-22300000Y8800000D01*
X-22300000Y8800000D02*
X-22300000Y8800000D01*
X0Y0D02*
X0Y0D01*
X0Y0D02*
X0Y0D01*
X-22300000Y8800000D02*
X-22300000Y8800000D01*
X0Y0D02*
X0Y0D01*
X0Y0D02*
X0Y0D01*
X0Y0D02*
X0Y0D01*
X-22300000Y8800000D02*
X-22300000Y8800000D01*
X-22300000Y8800000D02*
X-22300000Y8800000D01*
X0Y0D02*
X0Y0D01*
X0Y0D02*
X0Y0D01*
X0Y0D02*
X0Y0D01*
X-22300000Y8800000D02*
X-22300000Y8800000D01*
X0Y0D02*
X0Y0D01*
X0Y0D02*
X0Y0D01*
X-22300000Y8800000D02*
X-22300000Y8800000D01*
X0Y0D02*
X0Y0D01*
X0Y0D02*
X0Y0D01*
X0Y0D02*
X0Y0D01*
X0Y0D02*
X0Y0D01*
X0Y0D02*
X0Y0D01*
X0Y0D02*
X0Y0D01*
X-22300000Y8800000D02*
X-22300000Y8800000D01*
X-22300000Y8800000D02*
X-22300000Y8800000D01*
X-22300000Y8800000D02*
X-22300000Y8800000D01*
X-22300000Y8800000D02*
X-22300000Y8800000D01*
X0Y0D02*
X0Y0D01*
X-22300000Y8800000D02*
X-22300000Y8800000D01*
X-22300000Y8800000D02*
X-22300000Y8800000D01*
X-22300000Y8800000D02*
X-22300000Y8800000D01*
X0Y0D02*
X0Y0D01*
X0Y0D02*
X0Y0D01*
X-22300000Y8800000D02*
X-22300000Y8800000D01*
X-22300000Y8800000D02*
X-22300000Y8800000D01*
X0Y0D02*
X0Y0D01*
X0Y0D02*
X0Y0D01*
X0Y0D02*
X0Y0D01*
X0Y0D02*
X0Y0D01*
X0Y0D02*
X0Y0D01*
X-22300000Y8800000D02*
X-22300000Y8800000D01*
X0Y0D02*
X0Y0D01*
X0Y0D02*
X0Y0D01*
X-22300000Y8800000D02*
X-22300000Y8800000D01*
X0Y0D02*
X0Y0D01*
X-22300000Y8800000D02*
X-22300000Y8800000D01*
X-22300000Y8800000D02*
X-22300000Y8800000D01*
X-22300000Y8800000D02*
X-22300000Y8800000D01*
X-22300000Y8800000D02*
X-22300000Y8800000D01*
X-22300000Y8800000D02*
X-22300000Y8800000D01*
X-22300000Y8800000D02*
X-22300000Y8800000D01*
X0Y0D02*
X0Y0D01*
X-22300000Y8800000D02*
X-22300000Y8800000D01*
X0Y0D02*
X0Y0D01*
X-22300000Y8800000D02*
X-22300000Y8800000D01*
X0Y0D02*
X0Y0D01*
X0Y0D02*
X0Y0D01*
X0Y0D02*
X0Y0D01*
X-22300000Y8800000D02*
X-22300000Y8800000D01*
X-22300000Y8800000D02*
X-22300000Y8800000D01*
X-22300000Y8800000D02*
X-22300000Y8800000D01*
X-22300000Y8800000D02*
X-22300000Y8800000D01*
X0Y0D02*
X0Y0D01*
X-22300000Y8800000D02*
X-22300000Y8800000D01*
X-22300000Y8800000D02*
X-22300000Y8800000D01*
X-22300000Y8800000D02*
X-22300000Y8800000D01*
X0Y0D02*
X0Y0D01*
X0Y0D02*
X0Y0D01*
X0Y0D02*
X0Y0D01*
X-22300000Y8800000D02*
X-22300000Y8800000D01*
X-22300000Y8800000D02*
X-22300000Y8800000D01*
X0Y0D02*
X0Y0D01*
X0Y0D02*
X0Y0D01*
X0Y0D02*
X0Y0D01*
X0Y0D02*
X0Y0D01*
X0Y0D02*
X0Y0D01*
X-22300000Y8800000D02*
X-22300000Y8800000D01*
X0Y0D02*
X0Y0D01*
X0Y0D02*
X0Y0D01*
X-22300000Y8800000D02*
X-22300000Y8800000D01*
X0Y0D02*
X0Y0D01*
X0Y0D02*
X0Y0D01*
X-22300000Y8800000D02*
X-22300000Y8800000D01*
X0Y0D02*
X0Y0D01*
X0Y0D02*
X0Y0D01*
X0Y0D02*
X0Y0D01*
X0Y0D02*
X0Y0D01*
X0Y0D02*
X0Y0D01*
X0Y0D02*
X0Y0D01*
X0Y0D02*
X0Y0D01*
X-22300000Y8800000D02*
X-22300000Y8800000D01*
X0Y0D02*
X0Y0D01*
X-22300000Y8800000D02*
X-22300000Y8800000D01*
X0Y0D02*
X0Y0D01*
X0Y0D02*
X0Y0D01*
X-22300000Y8800000D02*
X-22300000Y8800000D01*
X0Y0D02*
X0Y0D01*
X-22300000Y8800000D02*
X-22300000Y8800000D01*
X-22300000Y8800000D02*
X-22300000Y8800000D01*
X0Y0D02*
X0Y0D01*
X0Y0D02*
X0Y0D01*
X-22300000Y8800000D02*
X-22300000Y8800000D01*
X0Y0D02*
X0Y0D01*
X0Y0D02*
X0Y0D01*
X-22300000Y8800000D02*
X-22300000Y8800000D01*
X-22300000Y8800000D02*
X-22300000Y8800000D01*
X0Y0D02*
X0Y0D01*
X-22300000Y8800000D02*
X-22300000Y8800000D01*
X0Y0D02*
X0Y0D01*
X-22300000Y8800000D02*
X-22300000Y8800000D01*
X-22300000Y8800000D02*
X-22300000Y8800000D01*
X-22300000Y8800000D02*
X-22300000Y8800000D01*
X-22300000Y8800000D02*
X-22300000Y8800000D01*
X0Y0D02*
X0Y0D01*
X0Y0D02*
X0Y0D01*
X0Y0D02*
X0Y0D01*
X0Y0D02*
X0Y0D01*
X0Y0D02*
X0Y0D01*
X-22300000Y8800000D02*
X-22300000Y8800000D01*
X0Y0D02*
X0Y0D01*
X0Y0D02*
X0Y0D01*
X0Y0D02*
X0Y0D01*
X-22300000Y8800000D02*
X-22300000Y8800000D01*
X0Y0D02*
X0Y0D01*
X-22300000Y8800000D02*
X-22300000Y8800000D01*
X0Y0D02*
X0Y0D01*
X-22300000Y8800000D02*
X-22300000Y8800000D01*
X-22300000Y8800000D02*
X-22300000Y8800000D01*
X0Y0D02*
X0Y0D01*
X0Y0D02*
X0Y0D01*
X0Y0D02*
X0Y0D01*
X0Y0D02*
X0Y0D01*
X0Y0D02*
X0Y0D01*
X0Y0D02*
X0Y0D01*
X-22300000Y8800000D02*
X-22300000Y8800000D01*
X0Y0D02*
X0Y0D01*
X-22300000Y8800000D02*
X-22300000Y8800000D01*
X0Y0D02*
X0Y0D01*
X-22300000Y8800000D02*
X-22300000Y8800000D01*
X0Y0D02*
X0Y0D01*
X0Y0D02*
X0Y0D01*
X0Y0D02*
X0Y0D01*
X-22300000Y8800000D02*
X-22300000Y8800000D01*
X-22300000Y8800000D02*
X-22300000Y8800000D01*
X-22300000Y8800000D02*
X-22300000Y8800000D01*
X-22300000Y8800000D02*
X-22300000Y8800000D01*
X0Y0D02*
X0Y0D01*
X-22300000Y8800000D02*
X-22300000Y8800000D01*
X-22300000Y8800000D02*
X-22300000Y8800000D01*
X0Y0D02*
X0Y0D01*
X0Y0D02*
X0Y0D01*
X-22300000Y8800000D02*
X-22300000Y8800000D01*
X-22300000Y8800000D02*
X-22300000Y8800000D01*
X-22300000Y8800000D02*
X-22300000Y8800000D01*
X-22300000Y8800000D02*
X-22300000Y8800000D01*
X-22300000Y8800000D02*
X-22300000Y8800000D01*
X0Y0D02*
X0Y0D01*
X0Y0D02*
X0Y0D01*
X0Y0D02*
X0Y0D01*
X-22300000Y8800000D02*
X-22300000Y8800000D01*
X0Y0D02*
X0Y0D01*
X-22300000Y8800000D02*
X-22300000Y8800000D01*
X0Y0D02*
X0Y0D01*
X0Y0D02*
X0Y0D01*
X-22300000Y8800000D02*
X-22300000Y8800000D01*
X-22300000Y8800000D02*
X-22300000Y8800000D01*
X-22300000Y8800000D02*
X-22300000Y8800000D01*
X0Y0D02*
X0Y0D01*
X0Y0D02*
X0Y0D01*
X-22300000Y8800000D02*
X-22300000Y8800000D01*
X0Y0D02*
X0Y0D01*
X0Y0D02*
X0Y0D01*
X0Y0D02*
X0Y0D01*
X0Y0D02*
X0Y0D01*
X-22300000Y8800000D02*
X-22300000Y8800000D01*
X0Y0D02*
X0Y0D01*
X-22300000Y8800000D02*
X-22300000Y8800000D01*
X0Y0D02*
X0Y0D01*
X0Y0D02*
X0Y0D01*
X-22300000Y8800000D02*
X-22300000Y8800000D01*
X0Y0D02*
X0Y0D01*
X-22300000Y8800000D02*
X-22300000Y8800000D01*
X0Y0D02*
X0Y0D01*
X0Y0D02*
X0Y0D01*
X-22300000Y8800000D02*
X-22300000Y8800000D01*
X-22300000Y8800000D02*
X-22300000Y8800000D01*
X-22300000Y8800000D02*
X-22300000Y8800000D01*
X-22300000Y8800000D02*
X-22300000Y8800000D01*
X0Y0D02*
X0Y0D01*
X0Y0D02*
X0Y0D01*
X0Y0D02*
X0Y0D01*
X0Y0D02*
X0Y0D01*
X-22300000Y8800000D02*
X-22300000Y8800000D01*
X0Y0D02*
X0Y0D01*
X0Y0D02*
X0Y0D01*
X0Y0D02*
X0Y0D01*
X-22300000Y8800000D02*
X-22300000Y8800000D01*
X0Y0D02*
X0Y0D01*
X-22300000Y8800000D02*
X-22300000Y8800000D01*
X0Y0D02*
X0Y0D01*
X-22300000Y8800000D02*
X-22300000Y8800000D01*
X0Y0D02*
X0Y0D01*
X0Y0D02*
X0Y0D01*
X-22300000Y8800000D02*
X-22300000Y8800000D01*
X0Y0D02*
X0Y0D01*
X0Y0D02*
X0Y0D01*
X-22300000Y8800000D02*
X-22300000Y8800000D01*
X0Y0D02*
X0Y0D01*
X-22300000Y8800000D02*
X-22300000Y8800000D01*
X0Y0D02*
X0Y0D01*
X-22300000Y8800000D02*
X-22300000Y8800000D01*
X0Y0D02*
X0Y0D01*
X-22300000Y8800000D02*
X-22300000Y8800000D01*
X-22300000Y8800000D02*
X-22300000Y8800000D01*
X-22300000Y8800000D02*
X-22300000Y8800000D01*
X-22300000Y8800000D02*
X-22300000Y8800000D01*
X-22300000Y8800000D02*
X-22300000Y8800000D01*
X0Y0D02*
X0Y0D01*
X-22300000Y8800000D02*
X-22300000Y8800000D01*
X-22300000Y8800000D02*
X-22300000Y8800000D01*
X0Y0D02*
X0Y0D01*
X-22300000Y8800000D02*
X-22300000Y8800000D01*
X0Y0D02*
X0Y0D01*
X0Y0D02*
X0Y0D01*
X-22300000Y8800000D02*
X-22300000Y8800000D01*
X0Y0D02*
X0Y0D01*
X0Y0D02*
X0Y0D01*
X0Y0D02*
X0Y0D01*
X-22300000Y8800000D02*
X-22300000Y8800000D01*
X0Y0D02*
X0Y0D01*
X-22300000Y8800000D02*
X-22300000Y8800000D01*
X-22300000Y8800000D02*
X-22300000Y8800000D01*
X-22300000Y8800000D02*
X-22300000Y8800000D01*
X0Y0D02*
X0Y0D01*
X-22300000Y8800000D02*
X-22300000Y8800000D01*
X0Y0D02*
X0Y0D01*
X0Y0D02*
X0Y0D01*
X-22300000Y8800000D02*
X-22300000Y8800000D01*
X0Y0D02*
X0Y0D01*
X-22300000Y8800000D02*
X-22300000Y8800000D01*
X0Y0D02*
X0Y0D01*
X0Y0D02*
X0Y0D01*
X-22300000Y8800000D02*
X-22300000Y8800000D01*
X-22300000Y8800000D02*
X-22300000Y8800000D01*
X-22300000Y8800000D02*
X-22300000Y8800000D01*
X0Y0D02*
X0Y0D01*
X-22300000Y8800000D02*
X-22300000Y8800000D01*
X0Y0D02*
X0Y0D01*
X-22300000Y8800000D02*
X-22300000Y8800000D01*
X0Y0D02*
X0Y0D01*
X0Y0D02*
X0Y0D01*
X-22300000Y8800000D02*
X-22300000Y8800000D01*
X0Y0D02*
X0Y0D01*
X-22300000Y8800000D02*
X-22300000Y8800000D01*
X-22300000Y8800000D02*
X-22300000Y8800000D01*
X-22300000Y8800000D02*
X-22300000Y8800000D01*
X-22300000Y8800000D02*
X-22300000Y8800000D01*
X0Y0D02*
X0Y0D01*
X0Y0D02*
X0Y0D01*
X-22300000Y8800000D02*
X-22300000Y8800000D01*
X-22300000Y8800000D02*
X-22300000Y8800000D01*
X0Y0D02*
X0Y0D01*
X0Y0D02*
X0Y0D01*
X-22300000Y8800000D02*
X-22300000Y8800000D01*
X-22300000Y8800000D02*
X-22300000Y8800000D01*
X0Y0D02*
X0Y0D01*
X0Y0D02*
X0Y0D01*
X0Y0D02*
X0Y0D01*
X0Y0D02*
X0Y0D01*
X-22300000Y8800000D02*
X-22300000Y8800000D01*
X0Y0D02*
X0Y0D01*
X0Y0D02*
X0Y0D01*
X-22300000Y8800000D02*
X-22300000Y8800000D01*
X-22300000Y8800000D02*
X-22300000Y8800000D01*
X0Y0D02*
X0Y0D01*
X-22300000Y8800000D02*
X-22300000Y8800000D01*
X-22300000Y8800000D02*
X-22300000Y8800000D01*
X0Y0D02*
X0Y0D01*
X-22300000Y8800000D02*
X-22300000Y8800000D01*
X-22300000Y8800000D02*
X-22300000Y8800000D01*
X0Y0D02*
X0Y0D01*
X0Y0D02*
X0Y0D01*
X0Y0D02*
X0Y0D01*
X0Y0D02*
X0Y0D01*
X-22300000Y8800000D02*
X-22300000Y8800000D01*
X0Y0D02*
X0Y0D01*
X0Y0D02*
X0Y0D01*
X0Y0D02*
X0Y0D01*
X0Y0D02*
X0Y0D01*
X-22300000Y8800000D02*
X-22300000Y8800000D01*
X-22300000Y8800000D02*
X-22300000Y8800000D01*
X0Y0D02*
X0Y0D01*
X-22300000Y8800000D02*
X-22300000Y8800000D01*
X-22300000Y8800000D02*
X-22300000Y8800000D01*
X-22300000Y8800000D02*
X-22300000Y8800000D01*
X0Y0D02*
X0Y0D01*
X-22300000Y8800000D02*
X-22300000Y8800000D01*
X0Y0D02*
X0Y0D01*
X-22300000Y8800000D02*
X-22300000Y8800000D01*
X0Y0D02*
X0Y0D01*
X-22300000Y8800000D02*
X-22300000Y8800000D01*
X-22300000Y8800000D02*
X-22300000Y8800000D01*
X-22300000Y8800000D02*
X-22300000Y8800000D01*
X0Y0D02*
X0Y0D01*
X-22300000Y8800000D02*
X-22300000Y8800000D01*
X0Y0D02*
X0Y0D01*
X-22300000Y8800000D02*
X-22300000Y8800000D01*
X0Y0D02*
X0Y0D01*
X0Y0D02*
X0Y0D01*
X-22300000Y8800000D02*
X-22300000Y8800000D01*
X0Y0D02*
X0Y0D01*
X0Y0D02*
X0Y0D01*
X-22300000Y8800000D02*
X-22300000Y8800000D01*
X-22300000Y8800000D02*
X-22300000Y8800000D01*
X-22300000Y8800000D02*
X-22300000Y8800000D01*
X0Y0D02*
X0Y0D01*
X0Y0D02*
X0Y0D01*
X0Y0D02*
X0Y0D01*
X-22300000Y8800000D02*
X-22300000Y8800000D01*
X0Y0D02*
X0Y0D01*
X-22300000Y8800000D02*
X-22300000Y8800000D01*
X-22300000Y8800000D02*
X-22300000Y8800000D01*
X0Y0D02*
X0Y0D01*
X0Y0D02*
X0Y0D01*
X0Y0D02*
X0Y0D01*
X0Y0D02*
X0Y0D01*
X0Y0D02*
X0Y0D01*
X0Y0D02*
X0Y0D01*
X0Y0D02*
X0Y0D01*
X0Y0D02*
X0Y0D01*
X-22300000Y8800000D02*
X-22300000Y8800000D01*
X0Y0D02*
X0Y0D01*
X0Y0D02*
X0Y0D01*
X0Y0D02*
X0Y0D01*
X0Y0D02*
X0Y0D01*
X0Y0D02*
X0Y0D01*
X-22300000Y8800000D02*
X-22300000Y8800000D01*
X0Y0D02*
X0Y0D01*
X-22300000Y8800000D02*
X-22300000Y8800000D01*
X-22300000Y8800000D02*
X-22300000Y8800000D01*
X-22300000Y8800000D02*
X-22300000Y8800000D01*
X-22300000Y8800000D02*
X-22300000Y8800000D01*
X0Y0D02*
X0Y0D01*
X-22300000Y8800000D02*
X-22300000Y8800000D01*
X0Y0D02*
X0Y0D01*
X0Y0D02*
X0Y0D01*
X0Y0D02*
X0Y0D01*
X0Y0D02*
X0Y0D01*
X-22300000Y8800000D02*
X-22300000Y8800000D01*
X0Y0D02*
X0Y0D01*
X0Y0D02*
X0Y0D01*
X-22300000Y8800000D02*
X-22300000Y8800000D01*
X0Y0D02*
X0Y0D01*
X-22300000Y8800000D02*
X-22300000Y8800000D01*
X0Y0D02*
X0Y0D01*
X0Y0D02*
X0Y0D01*
X0Y0D02*
X0Y0D01*
X-22300000Y8800000D02*
X-22300000Y8800000D01*
X0Y0D02*
X0Y0D01*
X-22300000Y8800000D02*
X-22300000Y8800000D01*
X-22300000Y8800000D02*
X-22300000Y8800000D01*
X-22300000Y8800000D02*
X-22300000Y8800000D01*
X-22300000Y8800000D02*
X-22300000Y8800000D01*
X0Y0D02*
X0Y0D01*
X-22300000Y8800000D02*
X-22300000Y8800000D01*
X-22300000Y8800000D02*
X-22300000Y8800000D01*
X-22300000Y8800000D02*
X-22300000Y8800000D01*
X0Y0D02*
X0Y0D01*
X-22300000Y8800000D02*
X-22300000Y8800000D01*
X-22300000Y8800000D02*
X-22300000Y8800000D01*
X-22300000Y8800000D02*
X-22300000Y8800000D01*
X0Y0D02*
X0Y0D01*
X-22300000Y8800000D02*
X-22300000Y8800000D01*
X-22300000Y8800000D02*
X-22300000Y8800000D01*
X0Y0D02*
X0Y0D01*
X-22300000Y8800000D02*
X-22300000Y8800000D01*
X0Y0D02*
X0Y0D01*
X-22300000Y8800000D02*
X-22300000Y8800000D01*
X-22300000Y8800000D02*
X-22300000Y8800000D01*
X0Y0D02*
X0Y0D01*
X0Y0D02*
X0Y0D01*
X-22300000Y8800000D02*
X-22300000Y8800000D01*
X-22300000Y8800000D02*
X-22300000Y8800000D01*
X0Y0D02*
X0Y0D01*
X-22300000Y8800000D02*
X-22300000Y8800000D01*
X-22300000Y8800000D02*
X-22300000Y8800000D01*
X0Y0D02*
X0Y0D01*
X-22300000Y8800000D02*
X-22300000Y8800000D01*
X-22300000Y8800000D02*
X-22300000Y8800000D01*
X-22300000Y8800000D02*
X-22300000Y8800000D01*
X0Y0D02*
X0Y0D01*
X-22300000Y8800000D02*
X-22300000Y8800000D01*
X-22300000Y8800000D02*
X-22300000Y8800000D01*
X-22300000Y8800000D02*
X-22300000Y8800000D01*
X-22300000Y8800000D02*
X-22300000Y8800000D01*
X0Y0D02*
X0Y0D01*
X0Y0D02*
X0Y0D01*
X0Y0D02*
X0Y0D01*
X-22300000Y8800000D02*
X-22300000Y8800000D01*
X-22300000Y8800000D02*
X-22300000Y8800000D01*
X-22300000Y8800000D02*
X-22300000Y8800000D01*
X-22300000Y8800000D02*
X-22300000Y8800000D01*
X0Y0D02*
X0Y0D01*
X-22300000Y8800000D02*
X-22300000Y8800000D01*
X-22300000Y8800000D02*
X-22300000Y8800000D01*
X-22300000Y8800000D02*
X-22300000Y8800000D01*
X0Y0D02*
X0Y0D01*
X0Y0D02*
X0Y0D01*
X0Y0D02*
X0Y0D01*
X0Y0D02*
X0Y0D01*
X-22300000Y8800000D02*
X-22300000Y8800000D01*
X-22300000Y8800000D02*
X-22300000Y8800000D01*
X-22300000Y8800000D02*
X-22300000Y8800000D01*
X-22300000Y8800000D02*
X-22300000Y8800000D01*
X0Y0D02*
X0Y0D01*
X-22300000Y8800000D02*
X-22300000Y8800000D01*
X-22300000Y8800000D02*
X-22300000Y8800000D01*
X0Y0D02*
X0Y0D01*
X-22300000Y8800000D02*
X-22300000Y8800000D01*
X0Y0D02*
X0Y0D01*
X-22300000Y8800000D02*
X-22300000Y8800000D01*
X-22300000Y8800000D02*
X-22300000Y8800000D01*
X-22300000Y8800000D02*
X-22300000Y8800000D01*
X0Y0D02*
X0Y0D01*
X0Y0D02*
X0Y0D01*
X-22300000Y8800000D02*
X-22300000Y8800000D01*
X0Y0D02*
X0Y0D01*
X0Y0D02*
X0Y0D01*
X0Y0D02*
X0Y0D01*
X0Y0D02*
X0Y0D01*
X-22300000Y8800000D02*
X-22300000Y8800000D01*
X0Y0D02*
X0Y0D01*
X-22300000Y8800000D02*
X-22300000Y8800000D01*
X0Y0D02*
X0Y0D01*
X0Y0D02*
X0Y0D01*
X-22300000Y8800000D02*
X-22300000Y8800000D01*
X0Y0D02*
X0Y0D01*
X0Y0D02*
X0Y0D01*
X0Y0D02*
X0Y0D01*
X0Y0D02*
X0Y0D01*
X0Y0D02*
X0Y0D01*
X0Y0D02*
X0Y0D01*
X-22300000Y8800000D02*
X-22300000Y8800000D01*
X-22300000Y8800000D02*
X-22300000Y8800000D01*
X0Y0D02*
X0Y0D01*
X-22300000Y8800000D02*
X-22300000Y8800000D01*
X0Y0D02*
X0Y0D01*
X-22300000Y8800000D02*
X-22300000Y8800000D01*
X-22300000Y8800000D02*
X-22300000Y8800000D01*
X-22300000Y8800000D02*
X-22300000Y8800000D01*
X-22300000Y8800000D02*
X-22300000Y8800000D01*
X0Y0D02*
X0Y0D01*
X0Y0D02*
X0Y0D01*
X0Y0D02*
X0Y0D01*
X-22300000Y8800000D02*
X-22300000Y8800000D01*
X-22300000Y8800000D02*
X-22300000Y8800000D01*
X0Y0D02*
X0Y0D01*
X0Y0D02*
X0Y0D01*
X-22300000Y8800000D02*
X-22300000Y8800000D01*
X-22300000Y8800000D02*
X-22300000Y8800000D01*
X0Y0D02*
X0Y0D01*
X-22300000Y8800000D02*
X-22300000Y8800000D01*
X0Y0D02*
X0Y0D01*
X-22300000Y8800000D02*
X-22300000Y8800000D01*
X-22300000Y8800000D02*
X-22300000Y8800000D01*
X0Y0D02*
X0Y0D01*
X-22300000Y8800000D02*
X-22300000Y8800000D01*
X0Y0D02*
X0Y0D01*
X-22300000Y8800000D02*
X-22300000Y8800000D01*
X0Y0D02*
X0Y0D01*
X0Y0D02*
X0Y0D01*
X-22300000Y8800000D02*
X-22300000Y8800000D01*
X-22300000Y8800000D02*
X-22300000Y8800000D01*
X-22300000Y8800000D02*
X-22300000Y8800000D01*
X0Y0D02*
X0Y0D01*
X0Y0D02*
X0Y0D01*
X-22300000Y8800000D02*
X-22300000Y8800000D01*
X0Y0D02*
X0Y0D01*
X0Y0D02*
X0Y0D01*
X-22300000Y8800000D02*
X-22300000Y8800000D01*
X0Y0D02*
X0Y0D01*
X0Y0D02*
X0Y0D01*
X-22300000Y8800000D02*
X-22300000Y8800000D01*
X-22300000Y8800000D02*
X-22300000Y8800000D01*
X-22300000Y8800000D02*
X-22300000Y8800000D01*
X-22300000Y8800000D02*
X-22300000Y8800000D01*
X-22300000Y8800000D02*
X-22300000Y8800000D01*
X0Y0D02*
X0Y0D01*
X-22300000Y8800000D02*
X-22300000Y8800000D01*
X-22300000Y8800000D02*
X-22300000Y8800000D01*
X0Y0D02*
X0Y0D01*
X-22300000Y8800000D02*
X-22300000Y8800000D01*
X0Y0D02*
X0Y0D01*
X0Y0D02*
X0Y0D01*
X-22300000Y8800000D02*
X-22300000Y8800000D01*
X-22300000Y8800000D02*
X-22300000Y8800000D01*
X0Y0D02*
X0Y0D01*
X0Y0D02*
X0Y0D01*
X0Y0D02*
X0Y0D01*
X-22300000Y8800000D02*
X-22300000Y8800000D01*
X0Y0D02*
X0Y0D01*
X-22300000Y8800000D02*
X-22300000Y8800000D01*
X-22300000Y8800000D02*
X-22300000Y8800000D01*
X-22300000Y8800000D02*
X-22300000Y8800000D01*
X0Y0D02*
X0Y0D01*
X0Y0D02*
X0Y0D01*
X-22300000Y8800000D02*
X-22300000Y8800000D01*
X0Y0D02*
X0Y0D01*
X-22300000Y8800000D02*
X-22300000Y8800000D01*
X0Y0D02*
X0Y0D01*
X0Y0D02*
X0Y0D01*
X-22300000Y8800000D02*
X-22300000Y8800000D01*
X-22300000Y8800000D02*
X-22300000Y8800000D01*
X0Y0D02*
X0Y0D01*
X-22300000Y8800000D02*
X-22300000Y8800000D01*
X-22300000Y8800000D02*
X-22300000Y8800000D01*
X-22300000Y8800000D02*
X-22300000Y8800000D01*
X-22300000Y8800000D02*
X-22300000Y8800000D01*
X0Y0D02*
X0Y0D01*
X0Y0D02*
X0Y0D01*
X0Y0D02*
X0Y0D01*
X0Y0D02*
X0Y0D01*
X0Y0D02*
X0Y0D01*
X-22300000Y8800000D02*
X-22300000Y8800000D01*
X-22300000Y8800000D02*
X-22300000Y8800000D01*
X-22300000Y8800000D02*
X-22300000Y8800000D01*
X0Y0D02*
X0Y0D01*
X-22300000Y8800000D02*
X-22300000Y8800000D01*
X0Y0D02*
X0Y0D01*
X-22300000Y8800000D02*
X-22300000Y8800000D01*
X0Y0D02*
X0Y0D01*
X0Y0D02*
X0Y0D01*
X-22300000Y8800000D02*
X-22300000Y8800000D01*
X-22300000Y8800000D02*
X-22300000Y8800000D01*
X0Y0D02*
X0Y0D01*
X0Y0D02*
X0Y0D01*
X-22300000Y8800000D02*
X-22300000Y8800000D01*
X-22300000Y8800000D02*
X-22300000Y8800000D01*
X0Y0D02*
X0Y0D01*
X-22300000Y8800000D02*
X-22300000Y8800000D01*
X0Y0D02*
X0Y0D01*
X-22300000Y8800000D02*
X-22300000Y8800000D01*
X0Y0D02*
X0Y0D01*
X0Y0D02*
X0Y0D01*
X0Y0D02*
X0Y0D01*
X-22300000Y8800000D02*
X-22300000Y8800000D01*
X-22300000Y8800000D02*
X-22300000Y8800000D01*
X-22300000Y8800000D02*
X-22300000Y8800000D01*
X-22300000Y8800000D02*
X-22300000Y8800000D01*
X0Y0D02*
X0Y0D01*
X0Y0D02*
X0Y0D01*
X-22300000Y8800000D02*
X-22300000Y8800000D01*
X0Y0D02*
X0Y0D01*
X-22300000Y8800000D02*
X-22300000Y8800000D01*
X-22300000Y8800000D02*
X-22300000Y8800000D01*
X0Y0D02*
X0Y0D01*
X-22300000Y8800000D02*
X-22300000Y8800000D01*
X-22300000Y8800000D02*
X-22300000Y8800000D01*
X0Y0D02*
X0Y0D01*
X-22300000Y8800000D02*
X-22300000Y8800000D01*
X-22300000Y8800000D02*
X-22300000Y8800000D01*
X-22300000Y8800000D02*
X-22300000Y8800000D01*
X0Y0D02*
X0Y0D01*
X-22300000Y8800000D02*
X-22300000Y8800000D01*
X-22300000Y8800000D02*
X-22300000Y8800000D01*
X0Y0D02*
X0Y0D01*
X0Y0D02*
X0Y0D01*
X-22300000Y8800000D02*
X-22300000Y8800000D01*
X-22300000Y8800000D02*
X-22300000Y8800000D01*
X-22300000Y8800000D02*
X-22300000Y8800000D01*
X0Y0D02*
X0Y0D01*
X0Y0D02*
X0Y0D01*
X-22300000Y8800000D02*
X-22300000Y8800000D01*
X-22300000Y8800000D02*
X-22300000Y8800000D01*
X-22300000Y8800000D02*
X-22300000Y8800000D01*
X0Y0D02*
X0Y0D01*
X0Y0D02*
X0Y0D01*
X0Y0D02*
X0Y0D01*
X-22300000Y8800000D02*
X-22300000Y8800000D01*
X0Y0D02*
X0Y0D01*
X0Y0D02*
X0Y0D01*
X-22300000Y8800000D02*
X-22300000Y8800000D01*
X-22300000Y8800000D02*
X-22300000Y8800000D01*
X-22300000Y8800000D02*
X-22300000Y8800000D01*
X-22300000Y8800000D02*
X-22300000Y8800000D01*
X0Y0D02*
X0Y0D01*
X-22300000Y8800000D02*
X-22300000Y8800000D01*
X-22300000Y8800000D02*
X-22300000Y8800000D01*
X-22300000Y8800000D02*
X-22300000Y8800000D01*
X0Y0D02*
X0Y0D01*
X-22300000Y8800000D02*
X-22300000Y8800000D01*
X0Y0D02*
X0Y0D01*
X-22300000Y8800000D02*
X-22300000Y8800000D01*
X-22300000Y8800000D02*
X-22300000Y8800000D01*
X-22300000Y8800000D02*
X-22300000Y8800000D01*
X0Y0D02*
X0Y0D01*
X0Y0D02*
X0Y0D01*
X-22300000Y8800000D02*
X-22300000Y8800000D01*
X0Y0D02*
X0Y0D01*
X0Y0D02*
X0Y0D01*
X0Y0D02*
X0Y0D01*
X0Y0D02*
X0Y0D01*
X-22300000Y8800000D02*
X-22300000Y8800000D01*
X0Y0D02*
X0Y0D01*
X-22300000Y8800000D02*
X-22300000Y8800000D01*
X-22300000Y8800000D02*
X-22300000Y8800000D01*
X-22300000Y8800000D02*
X-22300000Y8800000D01*
X0Y0D02*
X0Y0D01*
X-22300000Y8800000D02*
X-22300000Y8800000D01*
X0Y0D02*
X0Y0D01*
X-22300000Y8800000D02*
X-22300000Y8800000D01*
X0Y0D02*
X0Y0D01*
X-22300000Y8800000D02*
X-22300000Y8800000D01*
X0Y0D02*
X0Y0D01*
X0Y0D02*
X0Y0D01*
X0Y0D02*
X0Y0D01*
X0Y0D02*
X0Y0D01*
X0Y0D02*
X0Y0D01*
X0Y0D02*
X0Y0D01*
X-22300000Y8800000D02*
X-22300000Y8800000D01*
X0Y0D02*
X0Y0D01*
X-22300000Y8800000D02*
X-22300000Y8800000D01*
X-22300000Y8800000D02*
X-22300000Y8800000D01*
X-22300000Y8800000D02*
X-22300000Y8800000D01*
X0Y0D02*
X0Y0D01*
X-22300000Y8800000D02*
X-22300000Y8800000D01*
X0Y0D02*
X0Y0D01*
X-22300000Y8800000D02*
X-22300000Y8800000D01*
X-22300000Y8800000D02*
X-22300000Y8800000D01*
X0Y0D02*
X0Y0D01*
X-22300000Y8800000D02*
X-22300000Y8800000D01*
X0Y0D02*
X0Y0D01*
X0Y0D02*
X0Y0D01*
X0Y0D02*
X0Y0D01*
X0Y0D02*
X0Y0D01*
X0Y0D02*
X0Y0D01*
X0Y0D02*
X0Y0D01*
X-22300000Y8800000D02*
X-22300000Y8800000D01*
X-22300000Y8800000D02*
X-22300000Y8800000D01*
X-22300000Y8800000D02*
X-22300000Y8800000D01*
X0Y0D02*
X0Y0D01*
X0Y0D02*
X0Y0D01*
X-22300000Y8800000D02*
X-22300000Y8800000D01*
X-22300000Y8800000D02*
X-22300000Y8800000D01*
X0Y0D02*
X0Y0D01*
X-22300000Y8800000D02*
X-22300000Y8800000D01*
X0Y0D02*
X0Y0D01*
X-22300000Y8800000D02*
X-22300000Y8800000D01*
X-22300000Y8800000D02*
X-22300000Y8800000D01*
X-22300000Y8800000D02*
X-22300000Y8800000D01*
X-22300000Y8800000D02*
X-22300000Y8800000D01*
X0Y0D02*
X0Y0D01*
X0Y0D02*
X0Y0D01*
X0Y0D02*
X0Y0D01*
X-22300000Y8800000D02*
X-22300000Y8800000D01*
X-22300000Y8800000D02*
X-22300000Y8800000D01*
X-22300000Y8800000D02*
X-22300000Y8800000D01*
X0Y0D02*
X0Y0D01*
X-22300000Y8800000D02*
X-22300000Y8800000D01*
X0Y0D02*
X0Y0D01*
X0Y0D02*
X0Y0D01*
X-22300000Y8800000D02*
X-22300000Y8800000D01*
X-22300000Y8800000D02*
X-22300000Y8800000D01*
X-22300000Y8800000D02*
X-22300000Y8800000D01*
X0Y0D02*
X0Y0D01*
X-22300000Y8800000D02*
X-22300000Y8800000D01*
X0Y0D02*
X0Y0D01*
X0Y0D02*
X0Y0D01*
X0Y0D02*
X0Y0D01*
X0Y0D02*
X0Y0D01*
X-22300000Y8800000D02*
X-22300000Y8800000D01*
X0Y0D02*
X0Y0D01*
X-22300000Y8800000D02*
X-22300000Y8800000D01*
X0Y0D02*
X0Y0D01*
X0Y0D02*
X0Y0D01*
X0Y0D02*
X0Y0D01*
X0Y0D02*
X0Y0D01*
X0Y0D02*
X0Y0D01*
X-22300000Y8800000D02*
X-22300000Y8800000D01*
X0Y0D02*
X0Y0D01*
X-22300000Y8800000D02*
X-22300000Y8800000D01*
X-22300000Y8800000D02*
X-22300000Y8800000D01*
X0Y0D02*
X0Y0D01*
X0Y0D02*
X0Y0D01*
X-22300000Y8800000D02*
X-22300000Y8800000D01*
X0Y0D02*
X0Y0D01*
X-22300000Y8800000D02*
X-22300000Y8800000D01*
X0Y0D02*
X0Y0D01*
X0Y0D02*
X0Y0D01*
X0Y0D02*
X0Y0D01*
X0Y0D02*
X0Y0D01*
X-22300000Y8800000D02*
X-22300000Y8800000D01*
X0Y0D02*
X0Y0D01*
X-22300000Y8800000D02*
X-22300000Y8800000D01*
X-22300000Y8800000D02*
X-22300000Y8800000D01*
X0Y0D02*
X0Y0D01*
X-22300000Y8800000D02*
X-22300000Y8800000D01*
X-22300000Y8800000D02*
X-22300000Y8800000D01*
X0Y0D02*
X0Y0D01*
X0Y0D02*
X0Y0D01*
X-22300000Y8800000D02*
X-22300000Y8800000D01*
X-22300000Y8800000D02*
X-22300000Y8800000D01*
X-22300000Y8800000D02*
X-22300000Y8800000D01*
X0Y0D02*
X0Y0D01*
X0Y0D02*
X0Y0D01*
X-22300000Y8800000D02*
X-22300000Y8800000D01*
X-22300000Y8800000D02*
X-22300000Y8800000D01*
X0Y0D02*
X0Y0D01*
X-22300000Y8800000D02*
X-22300000Y8800000D01*
X0Y0D02*
X0Y0D01*
X-22300000Y8800000D02*
X-22300000Y8800000D01*
X0Y0D02*
X0Y0D01*
X-22300000Y8800000D02*
X-22300000Y8800000D01*
X-22300000Y8800000D02*
X-22300000Y8800000D01*
X-22300000Y8800000D02*
X-22300000Y8800000D01*
X-22300000Y8800000D02*
X-22300000Y8800000D01*
X0Y0D02*
X0Y0D01*
X-22300000Y8800000D02*
X-22300000Y8800000D01*
X0Y0D02*
X0Y0D01*
X0Y0D02*
X0Y0D01*
X0Y0D02*
X0Y0D01*
X0Y0D02*
X0Y0D01*
X-22300000Y8800000D02*
X-22300000Y8800000D01*
X0Y0D02*
X0Y0D01*
X-22300000Y8800000D02*
X-22300000Y8800000D01*
X-22300000Y8800000D02*
X-22300000Y8800000D01*
X-22300000Y8800000D02*
X-22300000Y8800000D01*
X0Y0D02*
X0Y0D01*
X0Y0D02*
X0Y0D01*
X0Y0D02*
X0Y0D01*
X-22300000Y8800000D02*
X-22300000Y8800000D01*
X0Y0D02*
X0Y0D01*
X-22300000Y8800000D02*
X-22300000Y8800000D01*
X-22300000Y8800000D02*
X-22300000Y8800000D01*
X0Y0D02*
X0Y0D01*
X0Y0D02*
X0Y0D01*
X0Y0D02*
X0Y0D01*
X-22300000Y8800000D02*
X-22300000Y8800000D01*
X0Y0D02*
X0Y0D01*
X0Y0D02*
X0Y0D01*
X0Y0D02*
X0Y0D01*
X0Y0D02*
X0Y0D01*
X-22300000Y8800000D02*
X-22300000Y8800000D01*
M02*
