%TF.GenerationSoftware,KiCad,Pcbnew,(6.0.4)*%
%TF.CreationDate,2023-01-17T21:54:18-05:00*%
%TF.ProjectId,Analog bridge,416e616c-6f67-4206-9272-696467652e6b,rev?*%
%TF.SameCoordinates,Original*%
%TF.FileFunction,Copper,L2,Bot*%
%TF.FilePolarity,Positive*%
%FSLAX46Y46*%
G04 Gerber Fmt 4.6, Leading zero omitted, Abs format (unit mm)*
G04 Created by KiCad (PCBNEW (6.0.4)) date 2023-01-17 21:54:18*
%MOMM*%
%LPD*%
G01*
G04 APERTURE LIST*
%TA.AperFunction,ComponentPad*%
%ADD10R,3.000000X3.000000*%
%TD*%
%TA.AperFunction,ComponentPad*%
%ADD11O,3.000000X3.000000*%
%TD*%
G04 APERTURE END LIST*
D10*
%TO.P,REF\u002A\u002A,1*%
%TO.N,N/C*%
X4500000Y-14600000D03*
%TD*%
%TO.P,REF\u002A\u002A,1*%
%TO.N,N/C*%
X29400000Y-4100000D03*
%TD*%
%TO.P,barreljack1,1*%
%TO.N,Net-(BUTTON1-Pad1)*%
X22500000Y-1500000D03*
D11*
%TO.P,barreljack1,2*%
%TO.N,Net-(U1-Pad1)*%
X14100000Y-1500000D03*
%TD*%
D10*
%TO.P,BUTTON1,1,A*%
%TO.N,Net-(BUTTON1-Pad1)*%
X24525000Y-8900000D03*
%TO.P,BUTTON1,2,B*%
%TO.N,Net-(BUTTON1-Pad2)*%
X11925000Y-8900000D03*
%TD*%
%TO.P,REF\u002A\u002A,1*%
%TO.N,N/C*%
X31800000Y-14400000D03*
%TD*%
%TO.P,REF\u002A\u002A,1*%
%TO.N,N/C*%
X7100000Y-3900000D03*
%TD*%
%TA.AperFunction,Conductor*%
%TO.N,Net-(U1-Pad1)*%
G36*
X28042864Y-766522D02*
G01*
X28069155Y-789068D01*
X28579067Y-1365757D01*
X29086849Y-1940037D01*
X29116988Y-2004319D01*
X29107588Y-2074691D01*
X29061636Y-2128810D01*
X28992456Y-2149500D01*
X27846166Y-2149500D01*
X27828248Y-2151194D01*
X27822278Y-2151758D01*
X27822277Y-2151758D01*
X27814631Y-2152481D01*
X27686816Y-2197366D01*
X27679246Y-2202958D01*
X27679243Y-2202959D01*
X27630184Y-2239195D01*
X27577850Y-2277850D01*
X27572258Y-2285421D01*
X27502959Y-2379243D01*
X27502958Y-2379246D01*
X27497366Y-2386816D01*
X27452481Y-2514631D01*
X27449500Y-2546166D01*
X27449500Y-5653834D01*
X27452481Y-5685369D01*
X27497366Y-5813184D01*
X27502958Y-5820754D01*
X27502959Y-5820757D01*
X27522726Y-5847519D01*
X27577850Y-5922150D01*
X27585421Y-5927742D01*
X27679243Y-5997041D01*
X27679246Y-5997042D01*
X27686816Y-6002634D01*
X27814631Y-6047519D01*
X27822277Y-6048242D01*
X27822278Y-6048242D01*
X27828248Y-6048806D01*
X27846166Y-6050500D01*
X30282508Y-6050500D01*
X30350629Y-6070502D01*
X30397122Y-6124158D01*
X30407226Y-6194432D01*
X30397080Y-6227841D01*
X30397160Y-6227872D01*
X30307745Y-6460805D01*
X30256722Y-6705039D01*
X30256493Y-6710088D01*
X30256492Y-6710094D01*
X30252406Y-6800088D01*
X30245404Y-6954288D01*
X30245985Y-6959308D01*
X30245985Y-6959312D01*
X30273250Y-7194961D01*
X30274081Y-7202140D01*
X30342017Y-7442219D01*
X30447462Y-7668348D01*
X30587706Y-7874710D01*
X30759138Y-8055994D01*
X30763164Y-8059072D01*
X30763165Y-8059073D01*
X30953323Y-8204460D01*
X30957349Y-8207538D01*
X31177239Y-8325443D01*
X31413152Y-8406674D01*
X31541099Y-8428774D01*
X31655107Y-8448467D01*
X31655113Y-8448468D01*
X31659017Y-8449142D01*
X31662978Y-8449322D01*
X31662979Y-8449322D01*
X31687503Y-8450436D01*
X31687522Y-8450436D01*
X31688922Y-8450500D01*
X31862691Y-8450500D01*
X31865199Y-8450298D01*
X31865204Y-8450298D01*
X32043661Y-8435940D01*
X32043666Y-8435939D01*
X32048702Y-8435534D01*
X32053610Y-8434329D01*
X32053613Y-8434328D01*
X32286092Y-8377225D01*
X32291006Y-8376018D01*
X32295658Y-8374043D01*
X32295662Y-8374042D01*
X32516022Y-8280505D01*
X32516023Y-8280505D01*
X32520677Y-8278529D01*
X32731808Y-8145573D01*
X32829923Y-8059073D01*
X32915168Y-7983920D01*
X32915171Y-7983917D01*
X32918965Y-7980572D01*
X33077334Y-7787770D01*
X33202840Y-7572128D01*
X33292255Y-7339195D01*
X33295790Y-7322278D01*
X33342243Y-7099915D01*
X33343278Y-7094961D01*
X33343712Y-7085421D01*
X33343893Y-7081421D01*
X33366966Y-7014278D01*
X33422676Y-6970268D01*
X33493336Y-6963364D01*
X33556512Y-6995757D01*
X33564154Y-7003674D01*
X34236233Y-7763766D01*
X35347745Y-9020838D01*
X35377884Y-9085120D01*
X35379347Y-9103230D01*
X35382882Y-9519428D01*
X35383685Y-9613997D01*
X35364263Y-9682285D01*
X35311004Y-9729232D01*
X35240818Y-9739932D01*
X35175989Y-9710989D01*
X35153478Y-9685890D01*
X35115142Y-9629481D01*
X35112294Y-9625290D01*
X34947342Y-9450858D01*
X34944344Y-9447688D01*
X34944343Y-9447687D01*
X34940862Y-9444006D01*
X34742651Y-9292462D01*
X34522761Y-9174557D01*
X34286848Y-9093326D01*
X34158901Y-9071226D01*
X34044893Y-9051533D01*
X34044887Y-9051532D01*
X34040983Y-9050858D01*
X34037022Y-9050678D01*
X34037021Y-9050678D01*
X34012497Y-9049564D01*
X34012478Y-9049564D01*
X34011078Y-9049500D01*
X33837309Y-9049500D01*
X33834801Y-9049702D01*
X33834796Y-9049702D01*
X33656339Y-9064060D01*
X33656334Y-9064061D01*
X33651298Y-9064466D01*
X33646390Y-9065671D01*
X33646387Y-9065672D01*
X33493480Y-9103230D01*
X33408994Y-9123982D01*
X33404342Y-9125957D01*
X33404338Y-9125958D01*
X33183978Y-9219495D01*
X33179323Y-9221471D01*
X32968192Y-9354427D01*
X32964398Y-9357772D01*
X32784832Y-9516080D01*
X32784829Y-9516083D01*
X32781035Y-9519428D01*
X32622666Y-9712230D01*
X32497160Y-9927872D01*
X32495347Y-9932595D01*
X32495346Y-9932597D01*
X32458156Y-10029481D01*
X32407745Y-10160805D01*
X32356722Y-10405039D01*
X32356493Y-10410088D01*
X32356492Y-10410094D01*
X32353074Y-10485369D01*
X32345404Y-10654288D01*
X32374081Y-10902140D01*
X32442017Y-11142219D01*
X32444154Y-11146801D01*
X32518862Y-11307014D01*
X32547462Y-11368348D01*
X32687706Y-11574710D01*
X32859138Y-11755994D01*
X32863164Y-11759072D01*
X32863165Y-11759073D01*
X33036602Y-11891676D01*
X33057349Y-11907538D01*
X33277239Y-12025443D01*
X33513152Y-12106674D01*
X33641099Y-12128774D01*
X33755107Y-12148467D01*
X33755113Y-12148468D01*
X33759017Y-12149142D01*
X33762978Y-12149322D01*
X33762979Y-12149322D01*
X33787503Y-12150436D01*
X33787522Y-12150436D01*
X33788922Y-12150500D01*
X33962691Y-12150500D01*
X33965199Y-12150298D01*
X33965204Y-12150298D01*
X34143661Y-12135940D01*
X34143666Y-12135939D01*
X34148702Y-12135534D01*
X34153610Y-12134329D01*
X34153613Y-12134328D01*
X34386092Y-12077225D01*
X34391006Y-12076018D01*
X34395658Y-12074043D01*
X34395662Y-12074042D01*
X34616022Y-11980505D01*
X34616023Y-11980505D01*
X34620677Y-11978529D01*
X34831808Y-11845573D01*
X34929923Y-11759073D01*
X35015168Y-11683920D01*
X35015171Y-11683917D01*
X35018965Y-11680572D01*
X35128846Y-11546801D01*
X35176911Y-11488285D01*
X35235606Y-11448342D01*
X35306578Y-11446472D01*
X35367294Y-11483269D01*
X35398478Y-11547051D01*
X35400271Y-11567188D01*
X35410864Y-12814631D01*
X35413842Y-13165312D01*
X35394420Y-13233600D01*
X35341161Y-13280547D01*
X35305044Y-13291203D01*
X35045974Y-13326895D01*
X35045967Y-13326896D01*
X35042123Y-13327426D01*
X35038372Y-13328426D01*
X35038367Y-13328427D01*
X34752792Y-13404559D01*
X34752788Y-13404560D01*
X34749027Y-13405563D01*
X34467804Y-13519245D01*
X34202745Y-13666738D01*
X34199600Y-13669038D01*
X34199592Y-13669043D01*
X34089002Y-13749915D01*
X33957896Y-13845789D01*
X33956592Y-13847016D01*
X33891839Y-13874978D01*
X33821790Y-13863417D01*
X33769111Y-13815821D01*
X33750500Y-13749915D01*
X33750500Y-12846166D01*
X33747519Y-12814631D01*
X33702634Y-12686816D01*
X33697042Y-12679246D01*
X33697041Y-12679243D01*
X33627742Y-12585421D01*
X33622150Y-12577850D01*
X33564859Y-12535534D01*
X33520757Y-12502959D01*
X33520754Y-12502958D01*
X33513184Y-12497366D01*
X33385369Y-12452481D01*
X33377723Y-12451758D01*
X33377722Y-12451758D01*
X33371752Y-12451194D01*
X33353834Y-12449500D01*
X30246166Y-12449500D01*
X30228248Y-12451194D01*
X30222278Y-12451758D01*
X30222277Y-12451758D01*
X30214631Y-12452481D01*
X30086816Y-12497366D01*
X30079246Y-12502958D01*
X30079243Y-12502959D01*
X30035141Y-12535534D01*
X29977850Y-12577850D01*
X29972258Y-12585421D01*
X29902959Y-12679243D01*
X29902958Y-12679246D01*
X29897366Y-12686816D01*
X29852481Y-12814631D01*
X29849500Y-12846166D01*
X29849500Y-15953834D01*
X29852481Y-15985369D01*
X29855024Y-15992610D01*
X29855248Y-15993632D01*
X29850308Y-16064457D01*
X29807862Y-16121368D01*
X29744677Y-16146011D01*
X18194036Y-17297749D01*
X18169032Y-17297749D01*
X6563998Y-16140588D01*
X6498198Y-16113926D01*
X6457259Y-16055922D01*
X6450500Y-16015210D01*
X6450500Y-13046166D01*
X6447519Y-13014631D01*
X6402634Y-12886816D01*
X6397042Y-12879246D01*
X6397041Y-12879243D01*
X6327742Y-12785421D01*
X6322150Y-12777850D01*
X6274182Y-12742420D01*
X6220757Y-12702959D01*
X6220754Y-12702958D01*
X6213184Y-12697366D01*
X6085369Y-12652481D01*
X6077723Y-12651758D01*
X6077722Y-12651758D01*
X6071752Y-12651194D01*
X6053834Y-12649500D01*
X3701620Y-12649500D01*
X3633499Y-12629498D01*
X3587006Y-12575842D01*
X3576902Y-12505568D01*
X3606396Y-12440988D01*
X3652388Y-12407516D01*
X3716022Y-12380505D01*
X3716023Y-12380505D01*
X3720677Y-12378529D01*
X3931808Y-12245573D01*
X4029923Y-12159073D01*
X4115168Y-12083920D01*
X4115171Y-12083917D01*
X4118965Y-12080572D01*
X4277334Y-11887770D01*
X4402840Y-11672128D01*
X4440236Y-11574710D01*
X4473609Y-11487770D01*
X4492255Y-11439195D01*
X4543278Y-11194961D01*
X4554596Y-10945712D01*
X4543548Y-10850221D01*
X4526501Y-10702890D01*
X4525919Y-10697860D01*
X4457983Y-10457781D01*
X4456142Y-10453834D01*
X9974500Y-10453834D01*
X9977481Y-10485369D01*
X10022366Y-10613184D01*
X10027958Y-10620754D01*
X10027959Y-10620757D01*
X10048993Y-10649234D01*
X10102850Y-10722150D01*
X10110421Y-10727742D01*
X10204243Y-10797041D01*
X10204246Y-10797042D01*
X10211816Y-10802634D01*
X10339631Y-10847519D01*
X10347277Y-10848242D01*
X10347278Y-10848242D01*
X10353248Y-10848806D01*
X10371166Y-10850500D01*
X13478834Y-10850500D01*
X13496752Y-10848806D01*
X13502722Y-10848242D01*
X13502723Y-10848242D01*
X13510369Y-10847519D01*
X13638184Y-10802634D01*
X13645754Y-10797042D01*
X13645757Y-10797041D01*
X13739579Y-10727742D01*
X13747150Y-10722150D01*
X13801007Y-10649234D01*
X13822041Y-10620757D01*
X13822042Y-10620754D01*
X13827634Y-10613184D01*
X13872519Y-10485369D01*
X13875500Y-10453834D01*
X22574500Y-10453834D01*
X22577481Y-10485369D01*
X22622366Y-10613184D01*
X22627958Y-10620754D01*
X22627959Y-10620757D01*
X22648993Y-10649234D01*
X22702850Y-10722150D01*
X22710421Y-10727742D01*
X22804243Y-10797041D01*
X22804246Y-10797042D01*
X22811816Y-10802634D01*
X22939631Y-10847519D01*
X22947277Y-10848242D01*
X22947278Y-10848242D01*
X22953248Y-10848806D01*
X22971166Y-10850500D01*
X26078834Y-10850500D01*
X26096752Y-10848806D01*
X26102722Y-10848242D01*
X26102723Y-10848242D01*
X26110369Y-10847519D01*
X26238184Y-10802634D01*
X26245754Y-10797042D01*
X26245757Y-10797041D01*
X26339579Y-10727742D01*
X26347150Y-10722150D01*
X26401007Y-10649234D01*
X26422041Y-10620757D01*
X26422042Y-10620754D01*
X26427634Y-10613184D01*
X26472519Y-10485369D01*
X26475500Y-10453834D01*
X26475500Y-7346166D01*
X26472519Y-7314631D01*
X26427634Y-7186816D01*
X26422042Y-7179246D01*
X26422041Y-7179243D01*
X26352742Y-7085421D01*
X26347150Y-7077850D01*
X26261081Y-7014278D01*
X26245757Y-7002959D01*
X26245754Y-7002958D01*
X26238184Y-6997366D01*
X26110369Y-6952481D01*
X26102723Y-6951758D01*
X26102722Y-6951758D01*
X26096752Y-6951194D01*
X26078834Y-6949500D01*
X22971166Y-6949500D01*
X22953248Y-6951194D01*
X22947278Y-6951758D01*
X22947277Y-6951758D01*
X22939631Y-6952481D01*
X22811816Y-6997366D01*
X22804246Y-7002958D01*
X22804243Y-7002959D01*
X22788919Y-7014278D01*
X22702850Y-7077850D01*
X22697258Y-7085421D01*
X22627959Y-7179243D01*
X22627958Y-7179246D01*
X22622366Y-7186816D01*
X22577481Y-7314631D01*
X22574500Y-7346166D01*
X22574500Y-10453834D01*
X13875500Y-10453834D01*
X13875500Y-7346166D01*
X13872519Y-7314631D01*
X13827634Y-7186816D01*
X13822042Y-7179246D01*
X13822041Y-7179243D01*
X13752742Y-7085421D01*
X13747150Y-7077850D01*
X13661081Y-7014278D01*
X13645757Y-7002959D01*
X13645754Y-7002958D01*
X13638184Y-6997366D01*
X13510369Y-6952481D01*
X13502723Y-6951758D01*
X13502722Y-6951758D01*
X13496752Y-6951194D01*
X13478834Y-6949500D01*
X10371166Y-6949500D01*
X10353248Y-6951194D01*
X10347278Y-6951758D01*
X10347277Y-6951758D01*
X10339631Y-6952481D01*
X10211816Y-6997366D01*
X10204246Y-7002958D01*
X10204243Y-7002959D01*
X10188919Y-7014278D01*
X10102850Y-7077850D01*
X10097258Y-7085421D01*
X10027959Y-7179243D01*
X10027958Y-7179246D01*
X10022366Y-7186816D01*
X9977481Y-7314631D01*
X9974500Y-7346166D01*
X9974500Y-10453834D01*
X4456142Y-10453834D01*
X4352538Y-10231652D01*
X4212294Y-10025290D01*
X4040862Y-9844006D01*
X3874224Y-9716601D01*
X3846677Y-9695540D01*
X3846676Y-9695539D01*
X3842651Y-9692462D01*
X3622761Y-9574557D01*
X3386848Y-9493326D01*
X3258901Y-9471226D01*
X3144893Y-9451533D01*
X3144887Y-9451532D01*
X3140983Y-9450858D01*
X3137022Y-9450678D01*
X3137021Y-9450678D01*
X3112497Y-9449564D01*
X3112478Y-9449564D01*
X3111078Y-9449500D01*
X2937309Y-9449500D01*
X2934801Y-9449702D01*
X2934796Y-9449702D01*
X2756339Y-9464060D01*
X2756334Y-9464061D01*
X2751298Y-9464466D01*
X2746390Y-9465671D01*
X2746387Y-9465672D01*
X2541165Y-9516080D01*
X2508994Y-9523982D01*
X2504342Y-9525957D01*
X2504338Y-9525958D01*
X2296931Y-9613997D01*
X2279323Y-9621471D01*
X2068192Y-9754427D01*
X2064398Y-9757772D01*
X1884832Y-9916080D01*
X1884829Y-9916083D01*
X1881035Y-9919428D01*
X1722666Y-10112230D01*
X1597160Y-10327872D01*
X1595347Y-10332595D01*
X1595346Y-10332597D01*
X1547676Y-10456782D01*
X1507745Y-10560805D01*
X1456722Y-10805039D01*
X1456493Y-10810088D01*
X1456492Y-10810094D01*
X1452541Y-10897110D01*
X1445404Y-11054288D01*
X1445985Y-11059308D01*
X1445985Y-11059312D01*
X1455578Y-11142219D01*
X1474081Y-11302140D01*
X1475460Y-11307011D01*
X1475460Y-11307014D01*
X1506645Y-11417218D01*
X1542017Y-11542219D01*
X1647462Y-11768348D01*
X1787706Y-11974710D01*
X1793186Y-11980505D01*
X1953943Y-12150500D01*
X1959138Y-12155994D01*
X2157349Y-12307538D01*
X2377239Y-12425443D01*
X2613152Y-12506674D01*
X2672407Y-12516909D01*
X2736126Y-12548212D01*
X2772808Y-12608998D01*
X2770804Y-12679966D01*
X2725818Y-12742420D01*
X2677850Y-12777850D01*
X2672258Y-12785421D01*
X2602959Y-12879243D01*
X2602958Y-12879246D01*
X2597366Y-12886816D01*
X2552481Y-13014631D01*
X2549500Y-13046166D01*
X2549500Y-13790634D01*
X2529498Y-13858755D01*
X2475842Y-13905248D01*
X2405568Y-13915352D01*
X2346854Y-13890641D01*
X2163237Y-13749915D01*
X2121410Y-13717858D01*
X2118162Y-13715939D01*
X2118155Y-13715934D01*
X1870746Y-13569737D01*
X1870743Y-13569735D01*
X1867493Y-13567815D01*
X1597415Y-13449304D01*
X1593783Y-13448207D01*
X1593780Y-13448206D01*
X1318712Y-13365135D01*
X1318706Y-13365134D01*
X1315075Y-13364037D01*
X1311337Y-13363384D01*
X1311335Y-13363383D01*
X1053284Y-13318268D01*
X989626Y-13286834D01*
X953069Y-13225973D01*
X948989Y-13193081D01*
X983719Y-9103230D01*
X1004298Y-9035282D01*
X1015321Y-9020837D01*
X3159987Y-6595314D01*
X3220095Y-6557531D01*
X3291088Y-6558243D01*
X3350427Y-6597223D01*
X3379271Y-6662096D01*
X3377717Y-6704541D01*
X3356722Y-6805039D01*
X3345404Y-7054288D01*
X3345985Y-7059308D01*
X3345985Y-7059312D01*
X3361929Y-7197110D01*
X3374081Y-7302140D01*
X3375460Y-7307011D01*
X3375460Y-7307014D01*
X3385705Y-7343218D01*
X3442017Y-7542219D01*
X3494739Y-7655283D01*
X3500832Y-7668348D01*
X3547462Y-7768348D01*
X3687706Y-7974710D01*
X3859138Y-8155994D01*
X3863164Y-8159072D01*
X3863165Y-8159073D01*
X3971927Y-8242228D01*
X4057349Y-8307538D01*
X4277239Y-8425443D01*
X4513152Y-8506674D01*
X4641099Y-8528774D01*
X4755107Y-8548467D01*
X4755113Y-8548468D01*
X4759017Y-8549142D01*
X4762978Y-8549322D01*
X4762979Y-8549322D01*
X4787503Y-8550436D01*
X4787522Y-8550436D01*
X4788922Y-8550500D01*
X4962691Y-8550500D01*
X4965199Y-8550298D01*
X4965204Y-8550298D01*
X5143661Y-8535940D01*
X5143666Y-8535939D01*
X5148702Y-8535534D01*
X5153610Y-8534329D01*
X5153613Y-8534328D01*
X5386092Y-8477225D01*
X5391006Y-8476018D01*
X5395658Y-8474043D01*
X5395662Y-8474042D01*
X5616022Y-8380505D01*
X5616023Y-8380505D01*
X5620677Y-8378529D01*
X5831808Y-8245573D01*
X5929923Y-8159073D01*
X6015168Y-8083920D01*
X6015171Y-8083917D01*
X6018965Y-8080572D01*
X6177334Y-7887770D01*
X6302840Y-7672128D01*
X6392255Y-7439195D01*
X6443278Y-7194961D01*
X6454596Y-6945712D01*
X6427335Y-6710094D01*
X6426501Y-6702890D01*
X6425919Y-6697860D01*
X6357983Y-6457781D01*
X6252538Y-6231652D01*
X6129237Y-6050221D01*
X6127268Y-6047323D01*
X6105522Y-5979738D01*
X6123766Y-5911126D01*
X6176209Y-5863270D01*
X6231480Y-5850500D01*
X8653834Y-5850500D01*
X8671752Y-5848806D01*
X8677722Y-5848242D01*
X8677723Y-5848242D01*
X8685369Y-5847519D01*
X8813184Y-5802634D01*
X8820754Y-5797042D01*
X8820757Y-5797041D01*
X8914579Y-5727742D01*
X8922150Y-5722150D01*
X8970432Y-5656782D01*
X8997041Y-5620757D01*
X8997042Y-5620754D01*
X9002634Y-5613184D01*
X9047519Y-5485369D01*
X9050500Y-5453834D01*
X9050500Y-2446247D01*
X9070502Y-2378126D01*
X9124158Y-2331633D01*
X9194432Y-2321529D01*
X9259012Y-2351023D01*
X9290695Y-2392997D01*
X9360744Y-2543218D01*
X9372462Y-2568348D01*
X9512706Y-2774710D01*
X9684138Y-2955994D01*
X9882349Y-3107538D01*
X10102239Y-3225443D01*
X10338152Y-3306674D01*
X10466099Y-3328774D01*
X10580107Y-3348467D01*
X10580113Y-3348468D01*
X10584017Y-3349142D01*
X10587978Y-3349322D01*
X10587979Y-3349322D01*
X10612503Y-3350436D01*
X10612522Y-3350436D01*
X10613922Y-3350500D01*
X10787691Y-3350500D01*
X10790199Y-3350298D01*
X10790204Y-3350298D01*
X10968661Y-3335940D01*
X10968666Y-3335939D01*
X10973702Y-3335534D01*
X10978610Y-3334329D01*
X10978613Y-3334328D01*
X11211092Y-3277225D01*
X11216006Y-3276018D01*
X11220658Y-3274043D01*
X11220662Y-3274042D01*
X11441022Y-3180505D01*
X11441023Y-3180505D01*
X11445677Y-3178529D01*
X11656808Y-3045573D01*
X11716851Y-2992638D01*
X11840168Y-2883920D01*
X11840171Y-2883917D01*
X11843965Y-2880572D01*
X12002334Y-2687770D01*
X12125334Y-2476434D01*
X12176886Y-2427621D01*
X12246646Y-2414428D01*
X12312465Y-2441045D01*
X12346796Y-2483199D01*
X12365664Y-2520712D01*
X12370020Y-2528079D01*
X12520236Y-2746643D01*
X12525554Y-2753353D01*
X12704042Y-2949508D01*
X12710218Y-2955431D01*
X12913683Y-3125554D01*
X12920597Y-3130578D01*
X13145272Y-3271515D01*
X13152807Y-3275556D01*
X13394520Y-3384694D01*
X13402551Y-3387680D01*
X13656832Y-3463002D01*
X13665184Y-3464869D01*
X13828090Y-3489796D01*
X13841877Y-3487941D01*
X13846000Y-3474132D01*
X13846000Y-3473829D01*
X14354000Y-3473829D01*
X14358105Y-3487811D01*
X14371271Y-3489854D01*
X14472880Y-3477558D01*
X14481288Y-3475954D01*
X14737824Y-3408653D01*
X14745926Y-3405926D01*
X14990949Y-3304434D01*
X14998617Y-3300628D01*
X15227598Y-3166822D01*
X15234679Y-3162009D01*
X15443373Y-2998373D01*
X15449743Y-2992638D01*
X15634303Y-2802186D01*
X15639823Y-2795655D01*
X15796834Y-2581909D01*
X15801418Y-2574686D01*
X15927962Y-2341621D01*
X15931530Y-2333827D01*
X16025271Y-2085750D01*
X16027748Y-2077544D01*
X16086954Y-1819038D01*
X16088294Y-1810578D01*
X16091733Y-1772044D01*
X16088762Y-1757125D01*
X16076952Y-1754000D01*
X14372115Y-1754000D01*
X14356876Y-1758475D01*
X14355671Y-1759865D01*
X14354000Y-1767548D01*
X14354000Y-3473829D01*
X13846000Y-3473829D01*
X13846000Y-1372000D01*
X13866002Y-1303879D01*
X13919658Y-1257386D01*
X13972000Y-1246000D01*
X16077261Y-1246000D01*
X16092252Y-1241598D01*
X16094275Y-1230490D01*
X16093200Y-1222647D01*
X16039419Y-962944D01*
X16037119Y-954704D01*
X16023752Y-916957D01*
X16019868Y-846067D01*
X16054927Y-784330D01*
X16117797Y-751348D01*
X16142495Y-748899D01*
X20423476Y-748043D01*
X20491600Y-768031D01*
X20538103Y-821678D01*
X20549500Y-874043D01*
X20549500Y-3053834D01*
X20552481Y-3085369D01*
X20597366Y-3213184D01*
X20602958Y-3220754D01*
X20602959Y-3220757D01*
X20664765Y-3304434D01*
X20677850Y-3322150D01*
X20685421Y-3327742D01*
X20779243Y-3397041D01*
X20779246Y-3397042D01*
X20786816Y-3402634D01*
X20914631Y-3447519D01*
X20922277Y-3448242D01*
X20922278Y-3448242D01*
X20928248Y-3448806D01*
X20946166Y-3450500D01*
X24053834Y-3450500D01*
X24071752Y-3448806D01*
X24077722Y-3448242D01*
X24077723Y-3448242D01*
X24085369Y-3447519D01*
X24213184Y-3402634D01*
X24220754Y-3397042D01*
X24220757Y-3397041D01*
X24314579Y-3327742D01*
X24322150Y-3322150D01*
X24335235Y-3304434D01*
X24397041Y-3220757D01*
X24397042Y-3220754D01*
X24402634Y-3213184D01*
X24447519Y-3085369D01*
X24450500Y-3053834D01*
X24450500Y-3025552D01*
X24470502Y-2957431D01*
X24524158Y-2910938D01*
X24594432Y-2900834D01*
X24659012Y-2930328D01*
X24668045Y-2938976D01*
X24684138Y-2955994D01*
X24882349Y-3107538D01*
X25102239Y-3225443D01*
X25338152Y-3306674D01*
X25466099Y-3328774D01*
X25580107Y-3348467D01*
X25580113Y-3348468D01*
X25584017Y-3349142D01*
X25587978Y-3349322D01*
X25587979Y-3349322D01*
X25612503Y-3350436D01*
X25612522Y-3350436D01*
X25613922Y-3350500D01*
X25787691Y-3350500D01*
X25790199Y-3350298D01*
X25790204Y-3350298D01*
X25968661Y-3335940D01*
X25968666Y-3335939D01*
X25973702Y-3335534D01*
X25978610Y-3334329D01*
X25978613Y-3334328D01*
X26211092Y-3277225D01*
X26216006Y-3276018D01*
X26220658Y-3274043D01*
X26220662Y-3274042D01*
X26441022Y-3180505D01*
X26441023Y-3180505D01*
X26445677Y-3178529D01*
X26656808Y-3045573D01*
X26716851Y-2992638D01*
X26840168Y-2883920D01*
X26840171Y-2883917D01*
X26843965Y-2880572D01*
X27002334Y-2687770D01*
X27127840Y-2472128D01*
X27157179Y-2395699D01*
X27215443Y-2243915D01*
X27217255Y-2239195D01*
X27227790Y-2188770D01*
X27267243Y-1999915D01*
X27268278Y-1994961D01*
X27270092Y-1955026D01*
X27276266Y-1819038D01*
X27279596Y-1745712D01*
X27278940Y-1740037D01*
X27251501Y-1502890D01*
X27250919Y-1497860D01*
X27182983Y-1257781D01*
X27077538Y-1031652D01*
X27074696Y-1027471D01*
X27074692Y-1027463D01*
X27017649Y-943527D01*
X26995903Y-875943D01*
X27014147Y-807331D01*
X27066590Y-759474D01*
X27121835Y-746705D01*
X27974741Y-746534D01*
X28042864Y-766522D01*
G37*
%TD.AperFunction*%
%TD*%
M02*
