%TF.GenerationSoftware,KiCad,Pcbnew,(6.0.4)*%
%TF.CreationDate,2023-01-17T21:54:18-05:00*%
%TF.ProjectId,Analog bridge,416e616c-6f67-4206-9272-696467652e6b,rev?*%
%TF.SameCoordinates,Original*%
%TF.FileFunction,Copper,L1,Top*%
%TF.FilePolarity,Positive*%
%FSLAX46Y46*%
G04 Gerber Fmt 4.6, Leading zero omitted, Abs format (unit mm)*
G04 Created by KiCad (PCBNEW (6.0.4)) date 2023-01-17 21:54:18*
%MOMM*%
%LPD*%
G01*
G04 APERTURE LIST*
%TA.AperFunction,ComponentPad*%
%ADD10R,3.000000X3.000000*%
%TD*%
%TA.AperFunction,ComponentPad*%
%ADD11O,3.000000X3.000000*%
%TD*%
%TA.AperFunction,SMDPad,CuDef*%
%ADD12R,3.810000X1.524000*%
%TD*%
%TA.AperFunction,Conductor*%
%ADD13C,2.000000*%
%TD*%
%TA.AperFunction,Conductor*%
%ADD14C,1.000000*%
%TD*%
G04 APERTURE END LIST*
D10*
%TO.P,REF\u002A\u002A,1*%
%TO.N,N/C*%
X4500000Y-14600000D03*
%TD*%
%TO.P,REF\u002A\u002A,1*%
%TO.N,N/C*%
X29400000Y-4100000D03*
%TD*%
%TO.P,barreljack1,1*%
%TO.N,Net-(BUTTON1-Pad1)*%
X22500000Y-1500000D03*
D11*
%TO.P,barreljack1,2*%
%TO.N,Net-(U1-Pad1)*%
X14100000Y-1500000D03*
%TD*%
D10*
%TO.P,BUTTON1,1,A*%
%TO.N,Net-(BUTTON1-Pad1)*%
X24525000Y-8900000D03*
%TO.P,BUTTON1,2,B*%
%TO.N,Net-(BUTTON1-Pad2)*%
X11925000Y-8900000D03*
%TD*%
D12*
%TO.P,3.3V_POLULO,1,GND*%
%TO.N,Net-(U1-Pad1)*%
X9570004Y-11940000D03*
%TO.P,3.3V_POLULO,4,VIN*%
%TO.N,Net-(BUTTON1-Pad2)*%
X9570004Y-9400000D03*
%TO.P,3.3V_POLULO,5,VOUT*%
%TO.N,Net-(REED1-Pad2)*%
X9570004Y-14480000D03*
%TD*%
D10*
%TO.P,REF\u002A\u002A,1*%
%TO.N,N/C*%
X31800000Y-14400000D03*
%TD*%
%TO.P,REF\u002A\u002A,1*%
%TO.N,N/C*%
X7100000Y-3900000D03*
%TD*%
D13*
%TO.N,Net-(BUTTON1-Pad1)*%
X23325000Y-4025000D02*
X23325000Y-7200000D01*
X22500000Y-1500000D02*
X22500000Y-3200000D01*
X22500000Y-3200000D02*
X23325000Y-4025000D01*
%TO.N,Net-(U1-Pad1)*%
X6958760Y-3942343D02*
X8452642Y-5436225D01*
D14*
X14752550Y-4900000D02*
X14700000Y-4900000D01*
D13*
X28625000Y-5121566D02*
X29792319Y-3954247D01*
X16225000Y-6425000D02*
X14700000Y-4900000D01*
X26625000Y-12000000D02*
X28625000Y-10000000D01*
X14100000Y-4300000D02*
X14700000Y-4900000D01*
D14*
X15288775Y-5436225D02*
X14752550Y-4900000D01*
D13*
X28625000Y-10000000D02*
X28625000Y-5121566D01*
D14*
X9570004Y-11940000D02*
X14985000Y-11940000D01*
D13*
X25765000Y-11940000D02*
X9570004Y-11940000D01*
X25825000Y-12000000D02*
X26625000Y-12000000D01*
X8452642Y-5436225D02*
X15288775Y-5436225D01*
X14100000Y-1500000D02*
X14100000Y-4300000D01*
X16225000Y-11600000D02*
X16225000Y-6425000D01*
%TO.N,Net-(REED1-Pad2)*%
X32157500Y-14480000D02*
X9570004Y-14480000D01*
X4080000Y-14480000D02*
X9570004Y-14480000D01*
%TD*%
M02*
