<?xml version="1.0" standalone="no"?>
<!DOCTYPE svg PUBLIC "-//W3C//DTD SVG 20010904//EN"
 "http://www.w3.org/TR/2001/REC-SVG-20010904/DTD/svg10.dtd">
<svg version="1.0" xmlns="http://www.w3.org/2000/svg"
 width="570.000000pt" height="500.000000pt" viewBox="0 0 570.000000 500.000000"
 preserveAspectRatio="xMidYMid meet">

<g transform="translate(0.000000,500.000000) scale(0.100000,-0.100000)"
fill="#000000" stroke="none">
<path d="M2455 4839 c-345 -19 -710 -77 -1030 -163 -68 -19 -238 -73 -275 -88
-14 -6 -36 -15 -50 -20 -29 -11 -56 -24 -157 -69 l-72 -33 -16 -76 c-9 -41
-22 -97 -28 -125 -15 -66 -15 -529 0 -615 7 -36 17 -101 23 -145 14 -95 38
-220 50 -255 4 -14 16 -59 25 -100 19 -83 27 -111 85 -285 53 -160 82 -238
114 -308 14 -32 26 -60 26 -63 0 -8 77 -184 92 -209 6 -11 32 -60 56 -110 25
-49 69 -129 98 -176 30 -47 54 -89 54 -93 0 -4 12 -19 26 -34 34 -36 48 -62
34 -62 -6 0 -32 11 -58 25 -64 34 -157 35 -207 3 -38 -25 -95 -123 -95 -164 0
-13 -5 -26 -10 -29 -6 -3 -10 -13 -10 -22 0 -26 -102 -140 -150 -167 -40 -22
-98 -72 -125 -108 -10 -13 -24 -42 -44 -91 -22 -55 -8 -161 26 -195 7 -8 18
-22 23 -33 24 -44 215 -236 288 -289 23 -17 50 -37 60 -46 38 -34 138 -103
150 -104 6 0 12 -4 12 -10 0 -5 11 -12 25 -16 14 -3 25 -10 25 -14 0 -4 26
-20 58 -36 31 -16 59 -32 62 -35 5 -7 217 -109 225 -109 3 0 24 -8 48 -19 66
-29 169 -66 222 -81 17 -4 64 -18 105 -29 67 -19 149 -36 358 -71 159 -27 528
-22 722 10 30 4 89 13 130 19 41 6 86 15 100 20 14 5 45 14 70 21 25 7 59 16
75 21 48 14 148 47 180 60 17 6 39 15 50 19 11 4 46 19 78 33 31 15 64 27 71
27 8 0 16 3 18 8 2 4 39 25 83 46 44 22 82 42 85 45 3 3 21 14 40 23 42 22 59
32 127 81 29 20 55 37 57 37 6 0 22 13 69 54 12 10 45 36 72 56 84 64 197 178
288 290 47 57 58 143 30 237 -14 46 -30 70 -77 116 -32 31 -65 57 -73 57 -9 0
-46 31 -82 68 -58 60 -70 79 -95 153 -35 100 -58 138 -103 167 -48 32 -137 30
-203 -3 -27 -14 -55 -25 -61 -25 -11 0 37 72 53 78 4 2 8 8 8 13 0 5 17 35 37
66 56 88 103 173 103 188 0 7 3 15 8 17 7 3 60 107 112 223 31 69 40 89 61
143 11 28 28 67 47 112 10 23 54 145 72 200 5 14 16 52 25 85 9 33 21 69 26
80 4 11 17 56 28 100 11 44 26 107 34 140 14 54 23 101 57 290 23 130 34 428
22 597 -9 130 -40 312 -55 324 -2 2 -127 59 -172 79 -104 46 -128 56 -162 64
-21 5 -70 21 -110 35 -39 13 -89 28 -110 32 -21 3 -42 10 -48 14 -5 4 -26 10
-45 13 -57 10 -164 33 -180 39 -8 4 -35 9 -60 12 -25 4 -67 11 -95 17 -314 64
-896 93 -1350 68z m900 -28 c39 -6 120 -15 180 -21 109 -10 178 -20 265 -38
25 -5 76 -15 114 -21 37 -6 96 -19 130 -27 33 -9 80 -20 104 -25 153 -32 440
-136 598 -216 34 -18 38 -28 69 -223 18 -107 15 -491 -4 -610 -5 -36 -17 -108
-25 -160 -24 -151 -81 -395 -107 -455 -5 -11 -13 -38 -18 -60 -13 -55 -49
-161 -72 -213 -10 -23 -19 -49 -19 -57 0 -9 -4 -23 -10 -33 -13 -24 -60 -132
-60 -138 0 -3 -7 -22 -16 -42 -9 -21 -28 -62 -41 -92 -42 -92 -48 -105 -53
-110 -10 -10 -60 -116 -60 -127 0 -6 -3 -13 -7 -15 -5 -1 -17 -19 -27 -38 -11
-19 -30 -54 -42 -78 -13 -23 -33 -52 -44 -64 -11 -12 -20 -27 -20 -32 0 -6
-10 -22 -22 -36 -13 -14 -35 -43 -50 -65 -15 -22 -37 -52 -48 -67 -32 -41 -7
-42 36 -2 58 53 152 94 216 94 29 -1 63 -6 75 -13 40 -22 85 -96 98 -159 9
-44 34 -98 45 -98 6 0 10 -6 10 -13 0 -8 16 -28 35 -46 19 -17 35 -35 35 -39
0 -5 21 -19 46 -32 56 -28 127 -97 151 -148 12 -25 18 -60 18 -107 0 -73 -15
-107 -85 -189 -54 -64 -217 -218 -275 -261 -44 -32 -46 -34 -90 -68 -16 -13
-51 -36 -77 -53 -27 -16 -48 -32 -48 -36 0 -5 -6 -8 -14 -8 -8 0 -21 -6 -28
-13 -17 -16 -108 -65 -218 -118 -47 -22 -98 -47 -113 -55 -16 -8 -37 -14 -47
-14 -10 0 -20 -3 -22 -8 -4 -9 -135 -56 -233 -84 -282 -79 -443 -101 -750
-102 -202 0 -265 3 -395 23 -85 13 -186 32 -225 43 -38 11 -98 26 -133 34 -34
7 -75 20 -90 28 -15 7 -40 16 -56 20 -15 4 -47 15 -70 25 -22 10 -59 25 -81
34 -88 34 -105 42 -105 49 0 5 -7 8 -16 8 -8 0 -36 12 -62 26 -26 15 -69 39
-97 53 -27 14 -56 31 -63 38 -7 7 -20 13 -28 13 -8 0 -14 3 -14 8 0 4 -21 20
-48 37 -26 16 -56 38 -66 47 -11 10 -23 18 -27 18 -4 0 -14 6 -21 13 -7 7 -38
32 -68 56 -73 57 -225 206 -274 267 -69 88 -91 166 -65 231 30 72 41 90 73
123 39 40 49 48 95 74 38 21 111 95 111 112 0 7 7 14 14 17 8 3 20 25 26 49 6
24 20 62 31 85 10 24 19 46 19 50 1 13 33 47 62 66 64 41 213 2 294 -77 21
-20 41 -36 46 -36 14 0 9 20 -13 43 -11 12 -33 42 -49 67 -16 25 -38 54 -48
65 -10 11 -27 37 -37 58 -11 20 -23 37 -27 37 -5 0 -8 5 -8 10 0 6 -16 36 -35
66 -19 30 -35 59 -35 64 0 6 -4 10 -10 10 -5 0 -10 7 -10 15 0 8 -21 54 -46
102 -25 49 -57 115 -71 148 -14 33 -33 78 -42 100 -10 22 -24 56 -31 75 -8 19
-22 50 -32 68 -10 18 -18 40 -18 50 0 9 -6 28 -13 42 -7 14 -21 52 -31 85 -10
33 -21 69 -26 80 -5 11 -14 38 -20 60 -6 22 -15 49 -20 60 -5 11 -13 40 -19
65 -5 25 -14 61 -19 80 -103 380 -139 859 -86 1150 19 105 35 142 65 157 149
71 249 110 404 158 50 15 101 31 115 36 14 5 45 13 70 18 25 6 83 18 130 29
47 11 119 25 160 31 41 7 91 16 110 21 93 23 288 44 545 60 171 10 811 4 900
-9z"/>
<path d="M2575 4769 c-339 -13 -720 -63 -955 -126 -52 -13 -113 -29 -135 -34
-52 -11 -115 -29 -140 -39 -11 -4 -42 -15 -70 -25 -51 -17 -58 -20 -130 -50
-22 -9 -49 -20 -60 -25 -144 -60 -141 -57 -155 -104 -60 -197 -57 -682 5 -971
9 -38 20 -97 26 -129 5 -33 13 -64 16 -69 3 -5 9 -23 13 -41 37 -145 109 -378
143 -456 8 -19 30 -75 48 -125 34 -96 206 -453 245 -511 13 -19 24 -39 24 -44
0 -6 5 -10 10 -10 6 0 10 -5 10 -10 0 -18 198 -297 250 -352 14 -15 54 -59 90
-98 36 -40 71 -77 77 -84 101 -93 152 -138 218 -191 28 -21 52 -42 55 -45 3
-3 30 -21 60 -40 30 -19 57 -37 60 -41 16 -22 266 -159 350 -192 14 -5 39 -16
55 -23 128 -55 142 -58 193 -39 86 32 267 108 272 115 3 3 23 14 45 24 21 11
63 34 92 52 28 19 56 34 62 34 5 0 11 3 13 8 5 12 76 62 87 62 6 0 11 4 11 9
0 5 8 12 18 15 9 3 31 18 48 33 17 16 48 43 70 61 96 80 142 122 211 194 41
42 82 86 91 97 10 12 34 41 56 64 21 23 49 58 62 77 13 19 53 76 89 125 36 50
71 102 77 118 7 15 16 27 20 27 4 0 8 6 8 14 0 7 6 19 14 25 13 11 66 108 141
261 55 110 81 171 120 275 20 55 43 114 51 132 8 17 14 35 14 41 0 8 18 57 50
137 5 11 13 40 20 65 6 25 16 61 21 80 6 19 16 60 24 90 7 30 18 71 24 90 13
38 55 268 74 395 14 102 15 508 0 600 -13 80 -41 187 -51 197 -13 11 -349 148
-366 148 -9 0 -24 4 -34 9 -23 11 -78 28 -122 36 -19 3 -44 10 -55 14 -27 11
-225 57 -300 70 -189 31 -310 47 -460 61 -55 5 -116 11 -135 14 -63 9 -471 12
-665 5z m700 -29 c44 -5 127 -14 185 -20 58 -6 132 -14 165 -19 33 -5 98 -15
145 -21 163 -22 648 -151 684 -182 6 -4 17 -8 25 -8 9 0 43 -14 76 -30 33 -17
66 -30 75 -31 8 0 29 -8 45 -18 32 -19 43 -51 68 -206 15 -92 15 -466 0 -580
-19 -144 -34 -237 -43 -275 -5 -19 -17 -66 -25 -105 -33 -143 -81 -308 -130
-445 -29 -81 -29 -82 -55 -150 -10 -25 -30 -76 -44 -115 -37 -97 -201 -427
-229 -462 -13 -15 -26 -35 -29 -44 -5 -13 -56 -92 -115 -179 -15 -21 -70 -92
-150 -191 -19 -23 -95 -107 -113 -124 -6 -5 -16 -16 -23 -23 -6 -7 -34 -34
-62 -60 -27 -26 -63 -62 -80 -80 -17 -17 -37 -32 -43 -32 -6 0 -15 -6 -19 -13
-4 -7 -26 -26 -48 -42 -22 -17 -42 -33 -45 -36 -9 -11 -145 -104 -172 -118
-16 -8 -28 -18 -28 -23 0 -4 -6 -8 -14 -8 -8 0 -21 -6 -28 -13 -27 -26 -263
-134 -371 -170 -43 -15 -51 -15 -95 0 -26 9 -70 26 -97 39 -28 13 -55 24 -60
24 -11 0 -98 42 -105 51 -3 4 -16 10 -29 14 -14 4 -55 27 -93 51 -38 24 -72
44 -77 44 -5 0 -11 3 -13 8 -1 4 -28 23 -58 44 -60 40 -94 66 -149 115 -20 18
-40 33 -44 33 -12 0 -294 289 -347 355 -105 130 -150 191 -150 203 0 6 -4 12
-8 14 -9 3 -82 114 -82 124 0 3 -11 20 -25 38 -14 18 -25 38 -25 44 0 6 -3 12
-7 14 -14 6 -203 396 -203 419 0 5 -9 29 -19 52 -20 45 -60 153 -92 252 -11
33 -27 80 -36 105 -8 25 -21 70 -28 100 -7 30 -23 89 -34 130 -12 41 -33 134
-46 207 -13 72 -26 140 -29 150 -3 10 -10 101 -16 204 -15 272 8 560 51 642 6
9 19 17 29 17 11 0 20 5 20 10 0 6 8 10 18 10 9 0 30 7 46 15 15 8 35 15 42
15 8 0 14 4 14 9 0 5 15 13 32 16 18 4 38 10 43 14 46 32 541 164 660 176 33
4 83 10 110 15 150 26 190 32 300 42 271 24 821 29 1000 8z"/>
<path d="M2695 4573 c-137 -33 -214 -81 -310 -194 -40 -47 -105 -210 -105
-262 0 -18 5 -19 48 -13 33 4 55 1 72 -9 71 -42 81 -43 178 -32 97 11 104 16
80 60 -23 40 -51 67 -70 67 -18 0 -18 2 -2 32 41 79 127 131 227 136 61 4 76
1 124 -24 30 -16 65 -42 76 -59 12 -16 27 -36 34 -43 7 -7 13 -20 13 -28 0 -8
4 -14 8 -14 8 0 15 -20 40 -110 7 -24 10 -25 110 -28 l102 -3 0 42 c0 74 -43
216 -85 284 -92 147 -213 206 -415 204 -58 -1 -114 -3 -125 -6z m330 -44 c28
-13 55 -28 62 -34 6 -5 27 -21 46 -35 77 -55 148 -200 163 -330 l7 -60 -86 0
-85 0 -7 33 c-10 50 -63 151 -98 188 -71 74 -105 89 -203 89 -87 0 -137 -20
-199 -77 -73 -69 -93 -116 -53 -129 26 -8 63 -42 71 -66 7 -21 -17 -27 -112
-29 -64 -1 -74 1 -92 22 -17 20 -30 24 -80 24 -32 0 -59 3 -59 7 0 16 44 135
63 168 44 80 98 140 162 180 105 66 167 81 325 76 106 -2 133 -7 175 -27z"/>
<path d="M2738 4269 c-21 -10 -42 -28 -48 -39 -9 -17 -7 -22 12 -31 34 -15 58
-64 58 -119 l0 -48 -127 -7 c-210 -12 -561 -95 -719 -171 -28 -13 -56 -24 -63
-24 -6 0 -21 -9 -33 -20 -12 -11 -29 -20 -38 -20 -9 0 -21 -5 -27 -11 -6 -6
-20 -16 -31 -23 -189 -109 -326 -269 -387 -451 -10 -27 -21 -59 -25 -70 -8
-20 -26 -78 -50 -165 -7 -25 -16 -56 -21 -70 -4 -14 -15 -59 -24 -100 -9 -41
-22 -95 -30 -120 -7 -25 -11 -48 -8 -53 4 -7 29 -4 98 15 89 23 90 24 104 91
8 34 22 98 33 142 11 44 24 100 29 125 9 44 41 138 60 172 5 10 9 25 9 34 0
25 55 110 99 153 44 43 97 76 155 96 54 19 57 19 52 -7 -18 -79 -38 -168 -46
-198 -5 -19 -28 -111 -50 -205 -65 -273 -71 -297 -77 -311 -6 -16 32 -18 109
-8 l44 6 21 87 c37 150 113 454 125 496 12 45 22 81 37 140 6 22 13 49 16 60
7 28 73 52 205 76 25 5 60 11 79 15 31 6 33 5 26 -12 -4 -11 -13 -44 -21 -74
-12 -52 -22 -91 -45 -170 -6 -19 -16 -60 -24 -90 -8 -30 -18 -71 -24 -90 -30
-107 -64 -232 -75 -280 -8 -30 -16 -62 -19 -70 -3 -8 -8 -27 -11 -42 l-6 -28
88 0 c85 0 89 1 100 25 7 14 12 32 12 40 0 8 6 34 14 57 7 24 21 70 30 103 9
33 26 89 36 125 11 36 26 88 34 115 8 28 26 91 41 140 14 50 35 122 47 160 42
144 55 157 77 78 8 -27 28 -93 46 -148 102 -313 104 -322 94 -386 -4 -30 -13
-70 -18 -89 -6 -19 -22 -84 -36 -145 -15 -60 -35 -146 -45 -190 -46 -190 -45
-274 5 -449 12 -44 17 -108 19 -257 1 -109 4 -200 7 -203 3 -3 20 8 39 24 19
17 38 30 41 30 8 0 24 267 22 365 -1 44 -3 118 -4 165 -2 71 2 96 23 150 14
36 28 74 32 85 4 11 11 27 16 36 5 9 12 33 15 53 8 39 25 59 25 29 0 -11 4
-23 8 -28 5 -6 15 -26 22 -45 7 -19 19 -50 27 -67 7 -18 19 -48 26 -65 8 -18
20 -49 27 -68 8 -19 23 -51 33 -70 17 -30 20 -52 18 -155 -1 -108 4 -155 29
-265 5 -19 16 -69 25 -110 9 -41 18 -76 20 -78 2 -2 18 4 35 14 28 17 30 22
26 59 -3 22 -8 67 -12 100 -4 33 -6 233 -5 444 3 370 -1 441 -30 551 -14 55
-40 142 -53 180 -9 24 -10 46 -4 70 5 19 16 64 24 100 8 36 19 82 25 103 18
72 27 113 43 191 22 110 38 124 57 49 6 -21 14 -51 19 -68 14 -48 28 -96 45
-160 9 -33 20 -76 26 -95 6 -19 16 -60 24 -90 8 -30 18 -71 24 -90 5 -19 13
-46 16 -60 4 -14 11 -34 15 -45 5 -11 13 -40 19 -65 15 -68 29 -121 33 -124 1
-2 38 -6 82 -10 78 -7 79 -7 73 16 -23 106 -40 174 -58 238 -11 41 -27 100
-34 130 -8 30 -30 118 -50 195 -47 180 -65 259 -59 264 2 3 19 -1 37 -7 19 -7
44 -12 58 -13 21 0 108 -22 177 -44 13 -4 25 -18 28 -34 3 -14 9 -37 14 -51 5
-14 16 -56 25 -95 16 -73 20 -90 35 -140 26 -90 107 -407 118 -464 6 -27 14
-36 42 -46 58 -20 120 -25 120 -10 0 7 -12 57 -26 111 -14 55 -32 128 -40 164
-7 36 -18 83 -24 105 -6 22 -15 60 -20 85 -5 25 -14 61 -19 80 -29 102 -53
212 -47 217 7 8 116 -28 116 -38 0 -4 10 -11 22 -15 30 -9 110 -91 141 -145
33 -57 99 -265 132 -419 9 -41 20 -89 25 -106 6 -17 10 -44 10 -61 0 -37 20
-60 58 -69 15 -3 51 -13 80 -21 30 -8 55 -13 57 -11 4 3 -7 51 -25 113 -5 17
-16 57 -25 90 -9 33 -20 74 -25 90 -5 17 -15 55 -24 85 -18 67 -70 220 -84
246 -6 10 -18 37 -27 59 -9 22 -19 45 -23 51 -94 145 -200 254 -299 308 -21
12 -46 29 -57 38 -11 10 -29 21 -40 24 -12 4 -32 14 -46 24 -26 18 -240 100
-261 100 -6 0 -39 9 -73 20 -76 24 -193 50 -225 50 -14 0 -38 4 -55 9 -17 6
-60 14 -95 20 -35 6 -66 13 -69 16 -3 3 -9 35 -14 72 -18 153 -149 237 -270
172z m155 -16 c18 -10 34 -21 35 -26 2 -4 10 -13 17 -21 20 -19 55 -129 55
-170 l0 -34 73 -11 c39 -7 90 -16 112 -21 22 -5 63 -12 90 -15 28 -4 75 -14
105 -22 30 -8 80 -21 110 -28 61 -15 156 -48 167 -58 3 -4 13 -7 21 -7 15 0
183 -79 192 -91 3 -3 25 -18 49 -34 25 -15 49 -31 55 -36 148 -122 223 -210
269 -314 10 -22 22 -48 28 -58 19 -34 74 -200 104 -312 9 -33 20 -73 25 -90
14 -51 50 -188 50 -192 0 -7 -35 -3 -69 8 -78 25 -81 27 -81 61 0 17 -4 45 -9
62 -6 17 -17 67 -26 111 -9 44 -20 91 -25 105 -4 14 -20 66 -35 115 -36 121
-71 209 -92 237 -78 100 -166 156 -287 183 -26 6 -28 4 -22 -17 4 -13 14 -52
22 -88 17 -77 27 -116 47 -190 8 -30 22 -91 32 -135 9 -44 21 -91 26 -105 4
-14 13 -47 18 -75 16 -78 28 -128 36 -147 6 -15 2 -18 -26 -17 -61 2 -83 13
-90 44 -4 17 -24 93 -44 170 -20 77 -43 165 -50 195 -7 30 -23 91 -35 135 -12
44 -26 98 -31 120 -38 166 -40 168 -127 195 -64 19 -252 52 -259 46 -1 -1 5
-24 13 -51 8 -28 21 -77 29 -110 7 -33 19 -78 25 -100 11 -38 31 -117 50 -195
7 -31 37 -146 84 -324 9 -33 15 -61 13 -62 -1 -1 -29 1 -61 4 l-59 7 -19 65
c-11 36 -26 90 -33 120 -11 46 -34 128 -84 305 -12 43 -27 96 -56 205 -37 135
-44 150 -70 150 -20 0 -25 -10 -45 -92 -25 -102 -31 -130 -53 -233 -8 -38 -25
-105 -36 -148 -20 -72 -20 -81 -6 -109 8 -17 15 -38 15 -48 0 -9 4 -20 9 -25
5 -6 15 -35 21 -65 6 -30 16 -75 22 -100 8 -29 12 -193 14 -475 1 -276 5 -446
12 -475 11 -44 16 -120 8 -120 -2 0 -11 -2 -19 -6 -10 -4 -16 5 -20 33 -4 21
-13 67 -22 103 -46 192 -49 222 -36 304 12 72 12 73 -24 157 -20 46 -40 88
-46 93 -5 6 -9 17 -9 25 0 9 -10 36 -22 61 -12 25 -33 81 -48 124 -25 77 -50
110 -50 67 0 -18 -20 -75 -91 -261 -32 -81 -37 -155 -18 -225 8 -29 8 -90 -1
-235 -12 -178 -15 -197 -34 -212 -12 -10 -23 -18 -26 -18 -3 0 -6 84 -7 188
-2 170 -10 240 -33 297 -39 95 -36 193 9 385 6 25 17 74 25 110 8 36 19 83 25
105 11 41 36 148 52 220 8 40 -2 87 -51 235 -10 30 -26 84 -36 120 -9 36 -20
70 -24 75 -3 6 -12 30 -19 55 -8 25 -18 60 -23 78 -8 26 -15 32 -36 32 -28 0
-34 -13 -87 -200 -7 -25 -20 -72 -30 -105 -9 -33 -26 -91 -37 -130 -11 -38
-23 -77 -26 -85 -6 -17 -47 -161 -67 -235 -7 -27 -19 -68 -26 -90 l-14 -40
-68 -3 c-73 -3 -73 -3 -57 58 12 48 60 228 70 265 4 17 20 75 35 130 93 338
108 396 104 399 -9 8 -152 -16 -241 -41 -84 -23 -98 -30 -106 -52 -18 -50 -31
-97 -47 -171 -9 -41 -20 -86 -25 -100 -14 -45 -29 -103 -49 -185 -60 -255 -81
-325 -95 -325 -6 -1 -30 -5 -54 -9 l-42 -8 6 36 c5 31 14 68 54 231 5 19 16
67 25 105 9 39 20 86 25 105 5 19 16 67 24 105 9 39 20 88 26 110 18 66 17 70
-10 67 -62 -7 -163 -58 -214 -107 -84 -82 -88 -89 -143 -255 -36 -106 -40
-119 -68 -245 -9 -38 -20 -86 -24 -105 -5 -19 -12 -49 -16 -66 -6 -26 -14 -33
-61 -47 -30 -9 -64 -17 -75 -17 -22 0 -23 -8 22 175 78 308 138 470 213 570
42 56 186 195 202 195 3 0 20 11 38 25 18 14 37 25 43 25 5 0 18 9 27 19 10
11 29 22 43 26 14 3 37 14 51 23 14 9 40 22 57 28 113 43 207 74 220 74 8 0
23 4 33 10 18 9 141 40 247 60 33 7 128 17 210 23 l150 12 3 45 c5 66 -6 108
-34 132 -31 28 -30 39 4 60 36 22 106 22 145 1z"/>
<path d="M3423 3618 c2 -13 17 -68 32 -123 15 -55 31 -113 35 -130 12 -43 46
-170 65 -240 9 -33 25 -94 36 -135 23 -89 41 -140 49 -140 3 0 14 -16 24 -35
31 -57 88 -61 118 -9 14 24 16 38 9 55 -5 13 -21 71 -36 129 -15 58 -31 116
-35 130 -13 39 -70 231 -80 270 -6 19 -19 63 -30 98 -10 35 -22 78 -25 96 -6
30 -11 34 -57 44 -27 7 -63 12 -80 12 -26 0 -30 -3 -25 -22z m123 -15 c8 -3
21 -31 30 -62 8 -31 24 -85 35 -121 10 -36 24 -83 30 -105 6 -22 22 -71 35
-110 12 -38 32 -106 43 -150 11 -44 28 -109 38 -145 22 -76 20 -101 -8 -119
-18 -11 -24 -9 -46 11 -27 25 -63 88 -75 128 -4 14 -12 43 -18 65 -6 22 -17
65 -25 95 -22 88 -75 281 -92 335 -8 28 -21 75 -28 105 -7 30 -16 63 -20 74
-8 17 -5 18 40 12 26 -4 54 -10 61 -13z"/>
<path d="M2155 3616 c-27 -8 -62 -16 -77 -20 -28 -6 -33 -18 -78 -191 -11 -38
-29 -101 -40 -140 -12 -38 -28 -95 -35 -125 -7 -30 -19 -75 -28 -100 -9 -25
-19 -63 -23 -85 -3 -22 -10 -47 -15 -56 -12 -24 19 -117 42 -124 25 -8 55 2
86 29 35 30 47 57 77 176 14 58 33 128 40 155 8 28 19 68 25 90 5 22 14 58 20
80 35 128 70 283 71 308 0 20 1 20 -65 3z m41 -33 c-2 -10 -12 -52 -22 -93 -9
-41 -23 -100 -31 -130 -9 -30 -21 -82 -28 -115 -7 -33 -18 -76 -25 -95 -17
-52 -50 -183 -50 -200 0 -30 -56 -123 -85 -141 -41 -25 -51 -24 -64 10 -16 36
-17 82 -4 118 6 15 16 46 22 68 6 22 20 74 32 115 11 41 24 89 29 105 4 17 20
73 35 125 14 52 32 121 40 153 7 33 17 63 22 68 5 5 29 13 54 18 71 14 81 13
75 -6z"/>
<path d="M2510 3558 c-7 -24 -21 -68 -31 -98 -10 -30 -32 -102 -50 -160 -17
-58 -44 -143 -59 -190 -87 -270 -92 -287 -67 -277 96 38 117 46 117 39 -1 -27
-32 -197 -44 -245 -20 -73 -20 -202 0 -287 51 -223 54 -249 54 -475 0 -121 -4
-247 -10 -280 -14 -87 -13 -105 8 -105 10 0 22 4 27 9 6 6 45 28 88 51 100 52
121 64 127 71 10 12 201 129 211 129 5 0 9 -22 9 -49 0 -27 3 -63 6 -81 7 -31
9 -32 43 -27 38 6 124 22 206 38 28 5 83 14 123 21 l73 11 -4 116 c-2 64 -9
220 -16 346 -6 127 -10 331 -9 454 l3 225 33 8 c25 7 32 13 28 26 -3 9 -8 31
-12 47 -4 17 -19 71 -34 120 -16 50 -40 128 -53 175 -65 217 -104 346 -113
370 -12 31 -22 -15 -64 -282 -7 -50 -4 -91 13 -138 3 -8 13 -51 23 -95 9 -44
22 -89 28 -100 8 -14 11 -196 11 -587 l0 -568 -72 0 -73 0 0 77 c0 79 -5 102
-48 215 -23 62 -25 76 -19 178 l6 110 -55 107 c-51 101 -78 143 -87 132 -14
-15 -67 -144 -67 -162 0 -12 7 -58 15 -102 19 -105 18 -245 -3 -372 l-17 -101
-60 -44 c-33 -24 -74 -54 -91 -66 l-32 -22 1 238 c2 229 1 241 -27 347 -38
148 -41 195 -22 289 9 44 19 82 21 86 2 4 13 56 25 116 11 60 24 127 29 149
59 266 59 267 11 420 -12 39 -31 106 -44 149 -12 44 -27 81 -32 83 -6 2 -17
-16 -24 -39z m50 -90 c49 -169 63 -214 72 -235 6 -11 8 -25 5 -30 -4 -6 -13
-45 -22 -89 -8 -43 -20 -97 -25 -119 -9 -39 -22 -105 -56 -270 -9 -44 -24
-110 -34 -146 -19 -72 -17 -101 25 -269 26 -109 42 -278 34 -360 -10 -99 -11
-260 -1 -260 9 0 50 28 76 52 11 10 28 20 38 24 10 3 18 9 18 13 0 4 16 16 35
27 19 10 39 30 44 44 19 48 41 210 41 303 0 83 -21 244 -35 266 -3 5 4 26 15
48 11 21 25 51 30 67 l11 30 20 -30 c10 -16 37 -65 58 -109 l39 -80 -5 -115
c-5 -104 -3 -120 16 -160 34 -70 51 -151 51 -240 l0 -83 93 8 c50 4 93 8 95 9
1 2 -3 59 -9 127 -7 75 -9 193 -5 299 3 96 9 281 12 410 6 255 8 238 -60 502
-24 95 -24 99 -10 195 8 54 18 117 21 141 5 39 23 60 23 27 0 -8 6 -34 14 -57
20 -64 62 -202 91 -303 15 -49 40 -131 56 -182 16 -50 29 -94 29 -97 0 -3 -10
-6 -23 -6 -13 0 -28 -5 -35 -12 -15 -15 -15 -443 -1 -718 6 -102 12 -237 15
-301 l6 -115 -54 -12 c-29 -6 -73 -14 -98 -17 -25 -4 -90 -15 -144 -26 -114
-24 -116 -23 -116 56 0 62 -9 95 -25 95 -6 0 -37 -18 -69 -40 -31 -22 -59 -40
-63 -40 -3 0 -27 -16 -53 -35 -26 -19 -51 -35 -55 -35 -4 0 -19 -8 -33 -19
-15 -10 -56 -33 -92 -52 -36 -18 -68 -38 -72 -43 -16 -23 -19 7 -9 74 17 110
14 500 -4 580 -54 232 -68 369 -45 436 5 16 14 56 19 89 5 33 15 93 21 133 7
40 9 76 6 80 -4 3 -33 -3 -65 -15 l-58 -21 10 32 c17 53 34 108 62 201 91 297
140 445 147 445 3 0 16 -33 28 -72z"/>
<path d="M1654 3450 c-48 -25 -63 -39 -78 -73 -25 -56 -32 -75 -45 -122 -38
-141 -43 -158 -76 -275 -36 -126 -42 -190 -20 -224 21 -32 42 -33 76 -3 49 43
61 71 134 340 27 97 70 253 86 307 22 76 23 80 2 80 -11 0 -47 -14 -79 -30z
m66 -5 c0 -3 -12 -49 -26 -102 -14 -54 -29 -109 -31 -123 -3 -14 -9 -29 -13
-35 -4 -5 -10 -28 -14 -50 -4 -22 -11 -51 -16 -65 -5 -14 -20 -65 -35 -115
-31 -109 -62 -171 -94 -192 -23 -14 -25 -14 -38 3 -19 26 -16 92 8 165 11 35
31 107 45 159 14 52 29 109 34 125 5 17 14 50 21 75 18 66 71 140 101 140 9 0
20 5 23 10 6 10 35 14 35 5z"/>
<path d="M3923 3424 c4 -22 13 -70 21 -109 12 -62 22 -103 56 -235 5 -19 16
-66 25 -105 57 -232 109 -298 178 -222 23 27 21 70 -8 207 -46 209 -67 279
-110 355 -19 35 -50 75 -67 89 -18 15 -38 30 -44 35 -6 5 -21 12 -34 16 -22 7
-23 6 -17 -31z m103 -59 c35 -44 83 -134 84 -157 0 -9 4 -19 9 -22 5 -4 12
-25 16 -49 4 -23 14 -62 22 -87 20 -61 46 -238 39 -266 -4 -13 -16 -28 -27
-35 -17 -9 -24 -7 -37 8 -26 28 -51 82 -68 148 -9 33 -20 76 -26 95 -5 19 -16
64 -23 100 -7 36 -24 110 -38 165 -14 55 -27 115 -31 133 l-6 32 29 -14 c15
-8 41 -31 57 -51z"/>
<path d="M1308 1769 c-33 -13 -48 -57 -41 -123 6 -54 18 -57 58 -16 l29 30 23
-22 c13 -12 23 -27 23 -33 0 -12 71 -83 110 -109 33 -21 83 -21 103 2 11 12
17 36 17 70 0 40 -5 57 -27 84 -16 18 -31 34 -35 36 -3 2 -17 12 -30 24 -55
49 -174 78 -230 57z m122 -21 c22 -7 40 -16 40 -20 0 -5 4 -8 10 -8 19 0 84
-52 107 -86 18 -25 23 -45 21 -76 -6 -79 -60 -77 -144 7 -30 29 -54 57 -54 62
0 4 -11 21 -24 36 l-25 29 -31 -32 c-36 -37 -50 -32 -50 17 0 73 57 100 150
71z"/>
<path d="M4234 1767 c-52 -15 -142 -72 -172 -109 -34 -40 -41 -125 -14 -155
29 -34 72 -30 128 14 49 37 83 72 84 85 0 13 34 48 45 48 7 0 22 -11 35 -25
13 -14 29 -25 36 -25 26 0 32 95 9 139 -20 41 -72 50 -151 28z m124 -27 c23
-21 32 -93 13 -104 -5 -3 -23 8 -40 24 l-31 31 -25 -28 c-13 -15 -25 -33 -25
-38 0 -14 -68 -85 -103 -108 -60 -39 -105 -9 -92 62 10 51 33 87 72 108 18 10
33 21 33 25 0 5 7 8 15 8 8 0 15 4 15 8 0 12 59 29 106 31 28 1 47 -5 62 -19z"/>
<path d="M1620 1684 c0 -4 9 -21 20 -40 12 -18 23 -55 27 -82 9 -78 -38 -156
-131 -217 -14 -10 -25 -21 -24 -25 6 -13 142 -123 202 -163 33 -22 63 -43 66
-46 23 -27 370 -191 403 -191 9 0 26 -4 39 -9 122 -47 285 -78 462 -87 108 -6
128 -5 124 7 -2 8 -15 16 -29 17 -39 6 -166 60 -268 114 -144 75 -176 92 -181
98 -3 4 -39 28 -80 55 -41 26 -79 53 -85 59 -5 6 -28 24 -50 41 -22 16 -55 43
-73 59 -18 17 -42 37 -53 46 -30 23 -226 218 -249 247 -33 42 -108 123 -114
123 -3 0 -6 -3 -6 -6z m104 -129 c15 -25 146 -157 235 -235 41 -36 86 -75 100
-88 24 -22 137 -105 211 -156 19 -13 59 -36 88 -51 28 -14 52 -31 52 -36 0 -5
8 -9 19 -9 10 0 23 -6 29 -12 6 -7 33 -22 61 -33 28 -11 51 -23 51 -27 0 -4 4
-8 10 -8 5 0 34 -11 64 -25 30 -14 65 -25 78 -26 13 0 17 -3 10 -6 -34 -13
-318 26 -412 57 -19 7 -60 18 -90 25 -30 7 -80 23 -110 36 -128 53 -343 166
-360 188 -3 4 -29 22 -58 40 -29 18 -58 41 -65 50 -7 9 -31 30 -54 46 -24 17
-42 32 -42 35 0 3 19 19 42 35 61 45 100 108 105 172 5 55 16 63 36 28z"/>
<path d="M3975 1628 c-54 -64 -275 -290 -317 -323 -14 -11 -43 -34 -64 -52
-93 -77 -128 -104 -155 -120 -16 -10 -29 -21 -29 -25 0 -4 -6 -8 -14 -8 -7 0
-25 -9 -40 -21 -59 -46 -337 -187 -426 -216 -35 -12 -66 -27 -69 -34 -8 -26
333 9 479 50 126 35 190 56 224 72 22 11 43 19 48 19 13 0 189 88 207 103 9 8
28 21 42 28 50 27 144 92 184 128 22 20 56 48 75 64 l35 27 -25 18 c-76 53
-140 144 -140 199 0 34 22 99 38 115 13 13 16 38 5 37 -5 0 -30 -27 -58 -61z
m-5 -88 c0 -68 65 -168 135 -208 20 -11 20 -11 0 -26 -11 -8 -38 -30 -60 -50
-22 -20 -62 -51 -90 -68 -27 -18 -52 -35 -55 -39 -21 -25 -287 -169 -314 -169
-6 0 -24 -7 -41 -16 -32 -17 -204 -67 -305 -90 -76 -17 -299 -39 -307 -30 -4
3 2 6 11 6 10 0 34 7 54 16 70 31 247 119 252 125 3 4 25 18 50 31 97 52 257
168 381 278 108 95 245 232 258 258 18 34 31 26 31 -18z"/>
<path d="M1322 1564 l-31 -36 18 -37 c30 -57 170 -170 178 -144 3 7 15 28 29
48 13 20 24 38 24 40 0 3 -17 14 -39 24 -44 23 -92 68 -118 111 -9 17 -20 30
-24 30 -3 0 -20 -16 -37 -36z m85 -60 c10 -11 37 -33 61 -48 23 -14 42 -29 42
-31 0 -10 -32 -55 -39 -55 -9 0 -43 26 -96 74 -52 46 -64 80 -38 108 17 19 17
19 34 -4 10 -13 25 -32 36 -44z"/>
<path d="M4279 1568 c-32 -46 -100 -108 -126 -114 -27 -7 -29 -25 -6 -62 32
-49 38 -52 65 -34 85 57 137 106 138 130 0 6 5 12 10 12 21 0 8 38 -24 69
l-34 33 -23 -34z m56 -64 c-17 -33 -73 -90 -114 -116 -35 -22 -35 -22 -61 24
-8 13 -3 21 28 38 39 24 112 97 112 114 0 5 11 -1 24 -13 21 -20 23 -25 11
-47z"/>
<path d="M1165 1518 c-30 -46 -214 -233 -237 -240 -9 -3 -13 -26 -13 -80 0
-59 5 -84 24 -121 13 -26 30 -52 38 -58 7 -6 13 -15 13 -20 0 -10 124 -130
148 -143 9 -5 22 -14 28 -20 36 -35 366 -246 384 -246 4 0 10 -3 12 -8 4 -9
235 -124 306 -152 188 -73 396 -124 652 -161 306 -44 671 -17 1015 77 28 7 61
16 75 19 14 4 34 10 45 15 11 4 54 20 95 35 75 28 227 95 265 117 11 7 34 19
50 28 65 34 231 135 243 147 8 7 28 21 45 30 42 21 132 87 214 156 178 149
238 325 140 406 -46 37 -158 151 -187 190 -14 18 -33 42 -43 54 l-18 22 -27
-34 c-35 -45 -206 -214 -273 -271 -99 -85 -334 -240 -364 -240 -7 0 -15 -3
-17 -7 -5 -12 -64 -43 -81 -43 -9 0 -17 -4 -19 -8 -4 -10 -161 -73 -238 -96
-30 -9 -75 -22 -100 -30 -25 -8 -103 -24 -175 -37 -109 -19 -164 -23 -340 -22
-279 1 -397 21 -680 115 -49 17 -110 40 -135 53 -25 12 -64 31 -87 41 -24 11
-43 22 -43 27 0 4 -6 7 -13 7 -25 0 -245 140 -255 163 -2 4 -9 7 -15 7 -7 0
-23 10 -37 23 -14 12 -54 47 -90 77 -78 67 -172 161 -223 223 -21 26 -42 47
-46 47 -5 0 -21 -19 -36 -42z m178 -140 c53 -54 100 -98 105 -98 4 0 34 -25
67 -55 33 -30 65 -55 71 -55 6 0 28 -15 50 -33 21 -19 55 -42 74 -53 19 -10
37 -22 40 -25 3 -3 19 -12 35 -20 41 -21 79 -43 85 -50 3 -3 26 -14 52 -25 27
-10 48 -22 48 -26 0 -5 8 -8 18 -8 9 0 29 -7 44 -14 15 -8 60 -25 100 -39 202
-68 198 -67 423 -108 93 -17 457 -17 550 0 217 40 292 58 309 73 6 4 18 8 28
8 22 0 98 26 165 56 28 13 55 24 60 24 29 1 287 149 359 207 23 18 45 33 49
33 7 0 53 36 119 92 58 49 215 207 235 235 12 18 26 33 30 33 3 0 14 -13 24
-28 18 -32 198 -217 216 -223 7 -3 18 -22 25 -43 11 -33 11 -47 -1 -95 -8 -31
-26 -70 -39 -88 -13 -17 -24 -34 -24 -38 0 -7 -73 -77 -130 -125 -23 -19 -51
-43 -62 -53 -12 -9 -24 -17 -28 -17 -3 0 -15 -8 -26 -18 -11 -10 -33 -27 -49
-37 -17 -10 -66 -42 -110 -70 -117 -76 -312 -182 -395 -215 -19 -8 -37 -16
-40 -19 -5 -6 -183 -65 -245 -82 -16 -5 -61 -17 -100 -28 -38 -10 -115 -27
-170 -36 -55 -9 -118 -21 -140 -26 -128 -29 -521 -29 -665 0 -25 5 -90 17
-145 27 -55 9 -131 25 -170 36 -38 10 -88 23 -110 29 -22 6 -69 22 -105 35
-36 13 -69 24 -74 24 -36 0 -508 251 -526 280 -3 4 -21 16 -40 26 -122 66
-334 260 -370 338 -28 61 -38 108 -29 139 4 17 51 71 111 130 57 56 117 120
133 141 l29 40 20 -29 c12 -15 65 -72 119 -127z"/>
<path d="M1603 999 c-39 -11 -99 -71 -118 -117 -23 -53 -19 -126 8 -167 26
-41 86 -75 131 -75 37 0 90 32 117 70 32 44 28 61 -21 91 -59 36 -71 35 -93
-3 -16 -28 -16 -33 -3 -40 24 -13 19 -28 -8 -28 -53 0 -72 59 -40 126 38 79
125 88 136 14 2 -17 12 -26 37 -33 45 -11 61 -3 61 30 0 92 -110 162 -207 132z
m119 -30 c32 -13 53 -42 62 -87 8 -35 0 -40 -35 -22 -10 6 -19 19 -19 29 0 23
-17 37 -53 46 -95 24 -182 -131 -112 -200 28 -29 78 -33 102 -9 14 13 14 17 2
25 -8 5 -17 9 -21 9 -13 0 -9 38 5 43 14 5 82 -27 92 -44 8 -13 -39 -65 -77
-85 -35 -18 -53 -18 -98 2 -99 44 -108 174 -19 264 48 48 100 57 171 29z"/>
<path d="M3880 982 c-40 -27 -59 -52 -66 -89 -16 -87 23 -182 95 -230 46 -31
119 -31 166 0 52 34 68 71 63 149 -3 58 -9 72 -41 113 -20 26 -48 54 -63 61
-36 19 -123 17 -154 -4z m150 -19 c32 -22 59 -55 60 -70 0 -7 4 -13 8 -13 10
0 32 -60 32 -89 0 -35 -37 -94 -71 -114 -102 -58 -229 43 -229 182 0 40 5 52
33 78 17 17 39 33 47 36 32 12 97 6 120 -10z"/>
<path d="M3896 908 c-32 -45 -13 -132 38 -175 31 -27 77 -30 111 -7 21 14 25
24 25 68 0 49 -9 71 -50 119 -23 27 -104 24 -124 -5z m100 -8 c38 -38 64 -86
64 -117 0 -23 -39 -53 -70 -53 -68 0 -121 137 -68 174 30 21 50 20 74 -4z"/>
<path d="M1884 855 c-7 -19 -14 -37 -14 -39 0 -3 -13 -34 -29 -68 -15 -35 -32
-74 -36 -88 -4 -14 -16 -42 -27 -63 -11 -22 -17 -41 -15 -43 2 -3 44 -18 93
-35 49 -17 94 -35 99 -39 6 -4 20 -10 33 -13 17 -4 26 1 37 23 8 16 15 33 15
37 0 10 -73 43 -94 43 -8 0 -18 5 -21 10 -3 6 -15 10 -26 10 -22 0 -26 27 -6
54 12 16 15 16 42 2 42 -22 58 -20 73 11 18 40 16 47 -28 66 -41 18 -45 23
-32 45 7 10 20 7 63 -12 94 -42 96 -42 114 0 18 43 18 44 4 44 -9 0 -96 35
-186 76 -42 19 -42 19 -59 -21z m129 -29 c28 -13 62 -27 75 -31 22 -6 31 -38
13 -49 -4 -3 -26 3 -47 13 -54 25 -113 46 -118 40 -2 -2 -7 -18 -11 -36 -6
-30 -4 -33 33 -52 32 -16 39 -25 35 -41 -4 -16 -11 -19 -32 -14 -14 4 -30 11
-35 15 -15 13 -46 11 -46 -3 0 -7 -7 -26 -15 -42 -14 -26 -14 -30 2 -42 10 -7
24 -14 30 -14 7 0 37 -12 67 -26 37 -17 53 -30 49 -40 -3 -8 -10 -14 -16 -14
-10 0 -73 21 -122 40 -11 4 -35 13 -52 20 -18 7 -33 14 -33 15 0 8 32 90 53
136 13 30 28 65 32 79 4 14 14 38 22 53 17 33 29 32 116 -7z"/>
<path d="M3670 865 c-22 -7 -36 -19 -37 -31 -1 -10 -5 -58 -8 -105 l-7 -87
-73 73 c-77 77 -86 80 -139 49 -14 -9 -16 -15 -8 -30 6 -10 29 -71 53 -134 61
-166 62 -168 99 -162 42 6 46 23 21 88 -11 31 -21 58 -21 61 0 2 28 -23 61
-57 34 -33 63 -59 65 -57 2 2 7 33 10 68 10 94 17 100 44 35 23 -59 40 -68 82
-45 15 8 18 17 13 37 -7 32 -73 210 -86 234 -5 10 -9 23 -9 30 0 7 -6 20 -13
29 -10 13 -17 14 -47 4z m73 -125 c21 -58 43 -114 48 -125 19 -48 20 -63 3
-69 -10 -4 -23 -1 -29 6 -15 16 -65 143 -65 164 0 8 -4 13 -9 10 -4 -3 -12
-51 -15 -106 -4 -55 -11 -100 -15 -100 -4 0 -27 21 -52 46 -72 74 -93 93 -97
90 -3 -4 23 -96 38 -131 20 -46 21 -63 4 -69 -18 -7 -43 19 -44 44 0 9 -4 20
-9 25 -4 6 -16 33 -26 60 -20 59 -31 86 -46 119 -14 31 -6 56 19 56 11 0 54
-34 95 -75 42 -41 81 -75 86 -75 5 0 12 54 16 121 l8 120 25 -3 c21 -3 30 -16
65 -108z"/>
<path d="M2187 753 c-7 -34 -32 -136 -46 -183 -40 -138 -39 -142 6 -157 44
-13 50 -8 59 48 9 54 16 61 47 50 15 -6 27 -17 27 -25 0 -8 5 -37 10 -64 10
-46 13 -49 57 -60 25 -7 48 -11 50 -8 3 3 0 20 -5 38 -6 18 -13 50 -17 70 -5
34 -3 39 23 52 69 36 79 144 18 191 -18 14 -40 25 -49 25 -9 0 -50 11 -91 25
-41 14 -77 25 -79 25 -3 0 -7 -12 -10 -27z m144 -34 c80 -24 102 -45 102 -97
0 -49 -28 -91 -65 -99 -26 -5 -29 -9 -22 -32 11 -41 23 -106 20 -109 -2 -1
-14 2 -27 7 -19 7 -27 21 -38 69 -10 47 -18 62 -37 71 -48 21 -61 9 -78 -71
-6 -28 -20 -34 -44 -19 -14 8 -14 7 31 181 14 52 28 103 32 112 8 20 18 19
126 -13z"/>
<path d="M2231 644 c-16 -54 -13 -58 61 -73 56 -12 76 -7 88 24 16 42 2 64
-53 80 -76 22 -81 21 -96 -31z m102 4 c18 -7 27 -18 27 -33 0 -30 -13 -34 -72
-22 -52 10 -54 13 -36 52 12 26 19 27 81 3z"/>
<path d="M3251 731 c-13 -8 -11 -24 8 -113 13 -57 29 -128 35 -158 15 -75 20
-80 64 -73 20 3 38 7 40 8 1 1 -2 22 -8 46 -6 24 -22 91 -36 149 -14 58 -28
115 -31 128 -6 23 -44 30 -72 13z m80 -131 c47 -174 49 -200 14 -200 -18 0
-25 5 -25 19 0 11 -6 46 -14 78 -27 115 -46 201 -46 211 0 6 8 12 18 14 19 4
21 -2 53 -122z"/>
<path d="M3101 703 c-26 -5 -26 -5 -5 -153 l6 -45 -33 36 c-19 19 -47 53 -64
75 -55 73 -59 76 -99 69 l-36 -7 5 -47 c3 -25 10 -95 15 -156 15 -158 15 -158
62 -152 22 3 42 8 45 11 3 3 0 25 -6 50 -14 56 -14 126 -1 126 6 0 10 -4 10
-8 0 -5 8 -18 18 -30 9 -11 37 -45 62 -76 41 -52 48 -56 79 -52 18 3 35 7 37
9 2 2 -1 41 -6 88 -6 46 -14 125 -18 174 -8 97 -10 100 -71 88z m49 -49 c0
-19 4 -65 9 -102 6 -37 12 -93 14 -124 3 -51 1 -58 -16 -64 -14 -4 -25 0 -34
11 -7 10 -25 32 -40 49 -16 17 -41 49 -57 71 -65 88 -79 88 -70 -2 3 -38 10
-85 14 -105 7 -32 5 -38 -12 -44 -27 -8 -36 8 -43 76 -3 30 -10 89 -15 130
-14 102 -13 108 12 116 24 7 30 1 133 -129 33 -42 63 -76 68 -77 11 0 9 74 -5
147 -10 54 -9 66 3 74 28 17 39 10 39 -27z"/>
<path d="M2561 663 c-47 -46 -61 -84 -61 -165 0 -62 4 -79 25 -111 32 -46 71
-67 125 -67 42 0 110 25 110 40 0 5 6 15 13 22 25 26 37 70 37 134 0 74 -15
109 -60 148 -27 22 -41 26 -96 26 -56 0 -68 -3 -93 -27z m160 -9 c24 -15 46
-39 55 -59 16 -39 19 -141 4 -150 -5 -3 -10 -14 -10 -24 0 -9 -14 -30 -31 -47
-27 -26 -37 -29 -90 -29 -55 1 -63 4 -91 34 -27 28 -33 44 -36 92 -6 79 3 118
36 156 49 58 101 66 163 27z"/>
<path d="M2596 599 c-22 -26 -26 -40 -26 -95 0 -56 4 -68 25 -89 62 -63 145
-9 145 94 0 81 -28 120 -87 121 -23 0 -38 -8 -57 -31z m98 -13 c20 -18 26 -33
26 -65 0 -98 -73 -148 -119 -82 -25 34 -27 81 -6 121 27 53 61 62 99 26z"/>
</g>
</svg>
