<?xml version="1.0" standalone="no"?>
<!DOCTYPE svg PUBLIC "-//W3C//DTD SVG 20010904//EN"
 "http://www.w3.org/TR/2001/REC-SVG-20010904/DTD/svg10.dtd">
<svg version="1.0" xmlns="http://www.w3.org/2000/svg"
 width="1140.000000pt" height="839.000000pt" viewBox="0 0 1140.000000 839.000000"
 preserveAspectRatio="xMidYMid meet">

<g transform="translate(0.000000,839.000000) scale(0.100000,-0.100000)"
fill="#000000" stroke="none">
<path d="M4735 8070 c-501 -27 -848 -62 -1202 -120 -283 -47 -788 -161 -1038
-235 -49 -15 -135 -40 -189 -56 -55 -16 -102 -33 -105 -38 -3 -4 -22 -12 -41
-16 -88 -19 -438 -137 -735 -249 -576 -216 -933 -359 -958 -385 -9 -9 -11
-328 -9 -1353 1 -738 5 -1344 7 -1346 6 -6 280 98 380 144 17 7 59 24 95 37
36 14 128 50 205 82 1082 442 1930 680 2820 789 385 48 597 65 965 81 234 10
951 12 1270 4 734 -19 1593 -106 2065 -210 528 -117 867 -211 1132 -315 61
-24 116 -44 123 -44 18 0 603 -235 735 -295 28 -13 79 -35 115 -50 130 -54
468 -209 593 -271 70 -35 131 -64 136 -64 15 0 21 57 31 313 18 472 37 2268
25 2307 -4 11 -10 20 -14 20 -5 0 -87 38 -182 83 -475 229 -1151 519 -1364
587 -22 7 -74 26 -115 43 -363 144 -1111 338 -1640 426 -240 40 -828 97 -1255
122 -237 14 -1633 20 -1850 9z m1880 -170 c77 -6 187 -12 244 -15 57 -2 120
-6 140 -9 20 -3 61 -8 91 -11 394 -38 702 -76 850 -105 46 -9 265 -50 350 -66
141 -27 457 -106 655 -165 76 -22 503 -164 538 -179 12 -5 108 -41 212 -80
202 -75 240 -90 323 -127 29 -13 54 -23 57 -23 7 0 350 -151 430 -190 44 -21
121 -57 170 -80 252 -115 305 -145 312 -170 16 -62 5 -1946 -13 -2150 -7 -87
-15 -130 -25 -130 -5 0 -33 13 -62 29 -112 63 -726 331 -1012 442 -99 38 -225
87 -280 108 -333 129 -631 222 -1005 312 -221 54 -245 59 -600 120 -398 68
-956 121 -1575 150 -353 16 -1336 17 -1625 1 -914 -50 -1405 -127 -2282 -361
-60 -16 -118 -35 -131 -44 -13 -8 -58 -25 -100 -36 -140 -40 -560 -187 -917
-323 -102 -39 -268 -101 -370 -140 -101 -38 -189 -73 -195 -77 -5 -5 -39 -21
-75 -35 -61 -25 -66 -25 -77 -9 -9 11 -13 56 -14 127 0 61 -2 122 -4 136 -2
14 -4 481 -5 1039 -1 835 1 1015 12 1022 7 5 33 16 58 25 25 9 59 22 75 29 17
7 59 24 95 38 110 42 480 187 570 222 126 50 589 218 710 259 119 39 456 134
735 206 61 16 153 40 206 54 214 55 786 145 1099 171 36 3 81 8 100 10 83 12
310 26 500 31 113 4 207 9 210 11 10 9 1487 -6 1625 -17z"/>
<path d="M6095 7431 c-113 -19 -289 -115 -332 -182 -12 -19 -29 -42 -38 -52
-22 -25 -82 -163 -96 -223 -18 -77 -16 -297 4 -378 38 -152 134 -302 243 -377
24 -16 74 -41 110 -55 60 -22 80 -25 224 -25 248 0 311 22 435 152 104 109
143 198 156 359 17 209 -13 375 -92 506 -43 71 -148 178 -202 206 -112 59
-290 88 -412 69z m245 -275 c47 -31 94 -105 111 -176 9 -35 14 -112 14 -215
-1 -185 -15 -238 -85 -318 -44 -49 -91 -67 -180 -67 -66 0 -111 21 -159 76
-61 70 -76 131 -76 319 0 142 3 168 24 233 27 82 84 150 143 170 54 18 164 7
208 -22z"/>
<path d="M4650 7390 c-96 -4 -189 -10 -206 -14 l-31 -7 -7 -322 c-3 -177 -6
-463 -6 -634 l1 -313 52 0 c197 -1 687 33 787 54 139 30 249 107 300 211 34
69 35 199 2 263 -31 58 -92 116 -158 148 -30 14 -54 27 -54 28 0 2 30 23 68
49 126 87 164 183 125 321 -14 51 -27 71 -78 121 -81 79 -86 83 -137 95 -47
10 -381 11 -658 0z m448 -220 c61 -16 92 -59 92 -124 0 -56 -21 -95 -62 -117
-26 -14 -232 -38 -327 -39 l-73 0 7 133 c4 72 9 134 11 136 4 4 133 15 241 19
39 2 89 -2 111 -8z m74 -537 c85 -82 66 -194 -41 -237 -35 -14 -256 -36 -363
-36 l-38 0 1 73 c1 107 13 217 26 225 6 4 96 6 199 4 188 -3 189 -3 216 -29z"/>
<path d="M6950 7361 c-12 -24 -14 -1247 -2 -1255 14 -8 312 -29 319 -22 4 3 9
116 11 251 4 217 6 245 21 245 9 0 58 -7 110 -15 70 -12 97 -21 110 -36 9 -12
34 -67 55 -123 108 -283 140 -358 160 -371 25 -16 342 -63 352 -52 4 4 -17 60
-46 124 -70 156 -82 185 -115 268 -47 117 -74 199 -69 207 3 4 22 12 43 18 27
7 55 28 93 69 68 73 83 119 76 236 -12 178 -112 307 -291 374 -66 24 -269 52
-552 75 -104 9 -207 18 -227 21 -30 4 -39 1 -48 -14z m570 -258 c41 -8 99 -25
128 -38 45 -21 55 -31 73 -72 27 -64 19 -121 -24 -170 l-32 -36 -189 7 c-105
4 -192 8 -194 10 -2 3 -6 77 -9 166 l-6 161 89 -6 c49 -4 123 -14 164 -22z"/>
<path d="M3675 7305 c-125 -13 -309 -36 -465 -59 l-75 -11 -6 -145 c-3 -80
-10 -372 -14 -649 l-7 -503 83 7 c138 11 242 32 256 52 9 11 13 53 13 122 0
58 3 163 7 234 l6 127 41 11 c64 18 169 29 181 19 6 -5 17 -26 24 -47 7 -21
29 -72 48 -113 76 -165 113 -248 113 -259 0 -6 10 -17 23 -25 19 -13 45 -13
197 -1 96 7 176 13 177 14 2 1 -35 82 -110 241 -131 280 -143 310 -119 310 20
0 151 133 177 181 28 51 30 61 30 164 0 93 -3 117 -22 155 -30 60 -108 138
-163 163 -58 26 -216 31 -395 12z m163 -244 c91 -27 107 -149 31 -236 -24 -27
-49 -40 -113 -60 -77 -24 -270 -50 -288 -39 -14 9 -10 288 5 307 22 29 288 50
365 28z"/>
<path d="M8194 6670 c3 -315 9 -604 12 -641 6 -62 9 -68 33 -74 39 -10 205
-35 208 -31 2 2 6 158 9 347 5 365 10 449 25 449 5 0 9 -3 9 -7 0 -5 46 -91
101 -193 123 -224 142 -259 209 -380 29 -52 68 -123 86 -158 55 -100 81 -138
111 -160 25 -17 139 -47 230 -60 l31 -4 4 83 c6 148 -7 1187 -14 1195 -10 9
-229 55 -238 49 -4 -2 -8 -120 -9 -262 -2 -142 -4 -269 -6 -283 -2 -14 -4 -46
-4 -72 -1 -27 -5 -48 -11 -48 -5 0 -32 45 -60 100 -27 55 -65 123 -84 152 -18
29 -56 96 -84 148 -27 52 -83 155 -124 229 l-75 134 -134 24 c-74 13 -156 26
-183 30 l-49 6 7 -573z"/>
<path d="M2860 7185 c-8 -2 -63 -11 -122 -20 -60 -10 -115 -23 -124 -29 -13
-10 -18 -42 -25 -152 -10 -173 -12 -1141 -1 -1147 8 -5 319 57 327 65 5 5 6
926 1 1063 -1 33 -3 97 -4 143 -2 86 -2 87 -52 77z"/>
<path d="M1960 6994 c-132 -30 -241 -63 -259 -77 -7 -6 -18 -23 -23 -37 -16
-41 -88 -289 -108 -373 -10 -43 -24 -84 -29 -91 -6 -7 -26 -68 -46 -137 -20
-68 -49 -167 -65 -219 -65 -208 -180 -591 -180 -597 0 -9 38 2 160 46 63 23
120 47 126 54 6 7 27 68 48 137 21 69 42 131 48 137 22 27 396 131 419 117 12
-7 52 -89 68 -139 27 -84 20 -83 198 -46 87 18 166 35 176 38 21 6 22 3 -21
118 -16 44 -43 121 -60 170 -17 50 -88 245 -157 435 -70 190 -138 378 -153
418 -14 39 -28 72 -31 71 -3 0 -53 -11 -111 -25z m-19 -633 c27 -79 49 -145
49 -147 0 -11 -70 -37 -147 -54 -48 -11 -99 -23 -112 -26 -28 -6 -29 -14 23
166 44 151 75 248 89 275 9 18 12 15 29 -25 11 -25 42 -110 69 -189z"/>
<path d="M9436 6359 c3 -349 7 -639 9 -645 3 -12 134 -56 550 -189 116 -36
250 -79 298 -95 69 -23 89 -26 93 -16 6 14 -2 245 -8 250 -1 2 -140 49 -306
106 -167 57 -305 108 -307 114 -9 30 -13 233 -6 245 10 16 31 10 353 -93 115
-37 139 -42 149 -30 15 18 8 209 -8 225 -6 6 -36 20 -65 29 -54 18 -356 113
-395 125 -30 8 -37 35 -36 132 1 98 9 127 31 120 40 -12 406 -122 496 -149 72
-22 101 -26 106 -18 10 16 12 167 2 209 -8 37 9 31 -492 176 -107 31 -244 72
-305 91 -60 18 -122 36 -137 40 l-28 6 6 -633z"/>
<path d="M5480 4984 c-253 -32 -473 -74 -486 -95 -3 -5 -15 -9 -27 -9 -38 0
-251 -77 -345 -124 -183 -92 -276 -163 -453 -348 l-131 -136 -41 28 c-101 68
-214 89 -347 65 -134 -23 -130 -25 -130 40 0 33 -10 85 -25 128 -20 58 -34 80
-72 115 -74 66 -111 76 -255 69 -68 -3 -150 -12 -183 -21 -128 -35 -309 -139
-431 -250 -29 -25 -55 -46 -59 -46 -4 0 -43 18 -86 39 -93 47 -145 57 -224 42
-172 -32 -340 -168 -461 -373 -44 -73 -48 -77 -107 -99 -293 -107 -452 -278
-561 -603 -78 -231 -101 -387 -93 -618 7 -183 18 -243 82 -440 l44 -137 -34
-57 c-41 -68 -49 -104 -42 -190 8 -107 51 -180 178 -304 l107 -105 -14 -55
c-21 -75 -12 -149 25 -224 61 -122 163 -209 361 -307 87 -43 99 -53 144 -114
90 -123 213 -206 351 -236 38 -8 134 -13 258 -13 l198 -1 23 -68 c35 -105 100
-158 239 -194 104 -26 270 -6 452 55 l59 20 50 -28 c163 -91 320 -116 569 -89
87 9 126 9 160 0 81 -20 247 -12 547 25 339 42 411 71 706 289 63 47 119 85
124 85 6 0 24 -30 41 -67 48 -109 151 -293 163 -293 6 0 18 11 26 25 45 74
161 235 200 278 l45 49 95 -65 c279 -190 423 -241 845 -302 190 -28 250 -30
392 -14 81 8 108 8 158 -5 74 -20 169 -20 305 -1 121 17 182 36 262 78 l56 30
99 -31 c128 -41 230 -56 323 -48 101 9 138 18 199 51 64 35 95 75 118 153 l18
60 150 -5 c319 -12 469 43 615 227 60 74 73 85 163 130 279 142 399 288 384
469 -3 36 -8 75 -12 86 -4 15 1 24 22 37 38 23 155 142 198 203 20 27 44 78
55 113 32 104 24 179 -28 256 l-30 45 43 109 c81 207 111 411 102 697 -6 199
-40 350 -112 506 -99 216 -208 325 -451 455 -84 44 -93 52 -115 99 -89 188
-251 339 -408 380 -97 25 -162 16 -282 -40 l-53 -24 -83 80 c-182 174 -387
269 -583 269 -203 0 -299 -81 -329 -280 -7 -41 -14 -76 -16 -78 -2 -2 -45 3
-96 12 -209 36 -331 5 -417 -105 -25 -33 -48 -59 -52 -59 -4 0 -31 33 -60 73
-80 108 -280 303 -389 377 -158 107 -493 247 -706 294 -223 50 -303 58 -600
61 -159 2 -306 1 -325 -1z m-474 -257 c-118 -75 -248 -177 -326 -256 -84 -85
-100 -108 -140 -193 l-45 -98 -125 0 c-69 0 -131 4 -139 9 -18 12 29 82 123
180 99 103 186 165 369 261 154 80 225 108 277 109 23 0 24 -1 6 -12z m1659
-34 c72 -18 186 -69 252 -114 78 -52 224 -172 282 -230 74 -75 140 -179 118
-186 -4 -2 -65 -3 -137 -3 l-129 0 -39 83 c-73 154 -182 266 -404 416 -43 28
-78 53 -78 56 0 6 66 -5 135 -22z m-1129 -48 c-76 -93 -109 -147 -191 -310
l-80 -160 -117 -3 c-65 -1 -118 1 -118 5 0 15 89 165 132 222 51 69 169 186
240 240 51 38 141 73 165 64 7 -3 -5 -25 -31 -58z m568 36 c73 -35 156 -109
254 -224 66 -77 182 -257 182 -281 0 -7 -27 -10 -72 -9 -40 1 -95 2 -121 2
-48 1 -48 1 -68 49 -52 119 -113 236 -183 347 -100 159 -100 167 8 116z m254
10 c114 -23 260 -122 439 -299 86 -84 129 -149 135 -202 l3 -25 -101 -3 c-56
-1 -112 2 -126 7 -16 6 -43 38 -73 87 -71 117 -152 218 -269 334 -58 57 -106
108 -106 113 0 4 10 5 23 3 12 -3 46 -10 75 -15z m-1121 -86 c-115 -88 -133
-106 -229 -234 -57 -76 -110 -148 -118 -160 -14 -19 -27 -22 -131 -28 -153 -8
-155 -7 -122 54 48 88 270 284 416 368 55 31 238 93 281 94 24 1 10 -13 -97
-94z m676 32 c93 -100 169 -233 217 -380 33 -102 36 -100 -140 -95 -82 2 -151
6 -153 9 -7 7 -17 506 -10 513 13 13 49 -6 86 -47z m-186 -114 c-4 -87 -7
-203 -7 -257 l0 -99 -162 7 c-89 4 -164 8 -166 10 -5 6 77 208 105 256 59 103
98 152 151 195 87 69 86 70 79 -112z m-2384 43 c62 -45 76 -140 33 -216 -21
-37 -37 -48 -163 -110 -156 -76 -292 -173 -412 -291 -124 -122 -282 -349 -391
-562 -30 -59 -58 -107 -61 -107 -4 0 -15 19 -24 43 -23 55 -32 251 -16 355 39
252 132 435 310 613 202 202 451 318 646 300 29 -2 62 -13 78 -25z m5257 -31
c254 -74 541 -367 655 -672 46 -122 73 -342 54 -453 -10 -66 -48 -172 -60
-168 -4 2 -40 65 -78 142 -76 149 -87 168 -203 345 -133 203 -288 339 -561
492 -69 38 -125 76 -133 90 -30 53 -11 184 30 218 40 33 191 36 296 6z m-6280
-161 c28 -11 40 -22 40 -36 0 -49 -36 -149 -96 -266 -63 -123 -65 -130 -71
-220 l-6 -92 -81 0 c-133 -1 -173 -28 -280 -194 -98 -150 -126 -154 -126 -19
0 165 37 316 104 422 58 91 266 328 327 372 22 15 110 45 141 48 4 1 26 -6 48
-15z m7124 -68 c57 -34 184 -164 248 -253 73 -101 121 -186 155 -276 25 -66
27 -85 29 -222 2 -203 -10 -215 -95 -89 -28 40 -57 87 -65 103 -22 41 -95 111
-135 128 -18 8 -59 14 -90 13 -86 -2 -83 -3 -76 28 10 47 -14 162 -52 247 -78
176 -94 225 -91 273 2 38 8 49 28 59 40 20 101 16 144 -11z m-5622 -72 c95
-37 126 -103 115 -243 -8 -105 -13 -114 -51 -107 -150 31 -226 39 -351 39
-117 0 -155 -5 -235 -26 -254 -67 -430 -192 -609 -431 -40 -54 -75 -95 -78
-93 -9 9 40 172 69 230 84 168 252 324 464 430 247 125 399 183 539 206 76 13
91 12 137 -5z m4306 -59 c309 -101 595 -291 736 -490 68 -95 146 -316 129
-363 -4 -8 -23 15 -49 60 -115 197 -317 370 -527 454 -166 66 -335 80 -575 48
-95 -13 -126 -14 -135 -5 -20 20 -22 166 -2 216 56 148 158 167 423 80z
m-6564 -357 c3 -13 10 -156 16 -318 20 -564 33 -708 85 -887 14 -48 24 -91 22
-96 -9 -29 -249 197 -318 301 -92 139 -144 313 -143 472 2 176 42 310 119 398
38 44 181 151 201 152 7 0 14 -10 18 -22z m2903 9 c1 -2 34 -91 73 -198 39
-107 77 -210 85 -229 8 -19 76 -201 151 -405 75 -203 185 -500 244 -660 60
-159 138 -371 174 -470 36 -99 101 -279 145 -400 115 -312 110 -313 -35 -5
-235 501 -298 635 -534 1130 -48 102 -110 232 -138 290 -27 58 -74 157 -105
220 -187 391 -347 730 -347 737 0 6 281 -4 287 -10z m328 -7 c17 -6 35 -60
104 -301 46 -162 96 -337 111 -389 90 -314 308 -1113 363 -1330 99 -391 98
-407 -6 -110 -36 102 -83 235 -105 295 -22 61 -74 205 -115 320 -41 116 -98
273 -127 350 -28 77 -64 176 -80 220 -15 44 -55 154 -88 245 -33 91 -64 179
-70 195 -6 17 -49 136 -96 265 -47 129 -86 238 -86 242 0 3 8 9 18 11 22 7
151 -3 177 -13z m422 12 c6 -4 21 -72 33 -152 11 -80 27 -185 35 -235 8 -49
30 -196 50 -325 19 -129 42 -275 50 -325 29 -181 185 -1244 185 -1264 0 -38
-15 11 -46 156 -19 87 -53 237 -75 333 -22 96 -60 265 -85 375 -25 110 -67
297 -94 415 -27 118 -72 316 -100 440 -56 253 -80 355 -110 484 -17 72 -19 91
-8 97 16 11 149 11 165 1z m408 -4 c2 -7 9 -184 14 -393 6 -209 13 -454 16
-545 2 -91 7 -293 10 -450 3 -157 8 -314 10 -350 8 -115 18 -775 12 -770 -4 3
-15 98 -26 210 -28 281 -57 578 -81 810 -11 107 -32 310 -46 450 -23 236 -51
505 -89 875 -8 83 -15 156 -15 163 0 9 26 12 95 12 68 0 97 -4 100 -12z m455
-6 c0 -5 -9 -103 -20 -218 -32 -333 -48 -500 -75 -794 -14 -151 -34 -367 -45
-480 -11 -113 -31 -329 -45 -480 -14 -151 -30 -330 -37 -397 -6 -68 -15 -123
-20 -123 -4 0 -8 172 -8 383 0 210 -2 515 -5 677 -3 162 -7 553 -10 868 l-5
572 135 0 c74 0 135 -4 135 -8z m481 1 l24 -4 -46 -187 c-26 -103 -106 -419
-177 -702 -72 -283 -192 -758 -267 -1054 -75 -297 -140 -547 -146 -555 -6 -11
-7 2 -3 39 23 212 345 2405 360 2453 5 16 18 18 119 16 62 -1 123 -3 136 -6z
m417 -8 c1 -1 -3 -15 -9 -31 -20 -53 -69 -187 -129 -354 -33 -91 -84 -232
-113 -315 -30 -82 -86 -238 -125 -345 -124 -342 -398 -1092 -432 -1178 -77
-200 -41 -55 212 843 38 138 80 286 93 330 13 44 81 280 150 525 69 245 133
466 141 492 l16 48 96 -6 c53 -3 98 -7 100 -9z m114 -687 c-399 -791 -772
-1522 -802 -1570 -44 -73 -23 -12 104 292 31 74 71 169 88 210 89 214 243 578
294 695 103 238 376 859 420 958 l48 107 99 0 99 0 -350 -692z m-3305 637 c32
-9 97 -30 145 -46 l86 -31 88 -166 c322 -615 617 -1193 698 -1369 l65 -142
-96 -128 c-53 -70 -99 -129 -103 -131 -3 -1 0 30 8 70 12 59 13 87 3 147 -20
131 -81 210 -207 268 -77 35 -219 43 -351 19 -181 -33 -296 -44 -383 -36 -198
19 -580 96 -665 135 -100 46 -224 183 -280 309 -55 125 -73 376 -36 516 56
217 145 350 308 461 111 75 201 105 388 128 50 6 104 13 120 15 50 7 151 -2
212 -19z m4375 -12 c335 -51 495 -162 619 -428 20 -44 47 -120 59 -170 19 -77
22 -107 17 -210 -6 -134 -27 -221 -78 -318 -69 -134 -172 -244 -262 -282 -80
-33 -476 -113 -607 -121 -107 -7 -265 7 -385 36 -175 41 -275 34 -384 -27 -87
-49 -132 -91 -167 -160 -27 -53 -29 -69 -34 -193 l-5 -135 -102 148 -101 149
27 46 c15 26 57 103 93 172 147 279 251 476 368 695 67 127 181 341 252 478
72 136 133 249 137 251 9 6 241 73 271 79 48 9 190 4 282 -10z m1939 -19 c143
-105 228 -272 229 -450 0 -151 -61 -373 -141 -508 -24 -39 -77 -105 -118 -146
-78 -77 -186 -158 -197 -147 -3 3 8 63 25 134 47 197 46 193 81 708 11 157 25
317 36 398 7 58 19 60 85 11z m-7956 -116 c3 -7 14 -74 25 -148 127 -833 125
-818 118 -826 -11 -10 -97 44 -150 94 -83 78 -173 233 -204 351 -9 38 -16 106
-16 174 -1 155 23 228 99 309 47 48 62 58 90 58 18 0 36 -6 38 -12z m7370 -48
c36 -14 68 -53 111 -137 l37 -71 -5 -144 c-5 -139 -6 -146 -45 -243 -48 -120
-94 -194 -160 -256 -102 -98 -180 -134 -177 -84 6 114 158 876 185 926 11 22
18 23 54 9z m-6913 -740 c53 -163 122 -322 186 -430 35 -57 60 -110 58 -117
-8 -21 -63 -15 -121 12 -170 81 -297 346 -299 626 -1 102 2 122 24 170 42 93
41 94 83 -42 21 -68 52 -167 69 -219z m6532 239 c31 -88 33 -245 6 -354 -41
-165 -139 -335 -235 -408 -49 -38 -138 -64 -175 -52 -22 7 -26 20 -10 30 16
10 103 143 137 210 32 63 95 229 183 483 30 88 58 151 64 149 6 -2 19 -28 30
-58z m-7373 -31 c13 -18 66 -87 119 -153 53 -66 132 -165 175 -220 43 -55 85
-108 93 -118 23 -26 11 -29 -63 -17 -119 19 -212 82 -284 192 -44 67 -65 141
-76 271 -8 86 0 96 36 45z m8079 -75 c-1 -176 -124 -382 -266 -445 -49 -21
-164 -37 -164 -22 0 8 128 166 260 324 21 25 64 78 96 118 31 39 61 72 65 72
5 0 9 -21 9 -47z m-8719 -90 c201 -215 337 -363 469 -508 85 -93 160 -175 165
-181 6 -6 71 -78 146 -160 188 -206 195 -214 172 -214 -30 0 -140 29 -222 57
-362 124 -685 475 -765 831 -21 93 -32 222 -19 222 5 0 30 -21 54 -47z m9339
-140 c-57 -264 -135 -412 -312 -591 -166 -167 -438 -319 -623 -347 -22 -3 -51
-8 -63 -11 -13 -3 -22 0 -20 5 1 5 55 63 118 128 197 203 589 611 750 780 98
104 157 160 164 153 6 -6 1 -48 -14 -117z m-8380 -479 c58 -47 112 -88 120
-92 8 -3 33 -20 55 -38 73 -58 216 -127 364 -174 l145 -47 -54 -19 c-81 -28
-257 -26 -365 5 -218 61 -404 206 -480 373 -23 50 -48 184 -38 201 3 4 37 -22
76 -58 40 -36 119 -104 177 -151z m7631 71 c-35 -145 -80 -210 -226 -320 -114
-87 -318 -165 -429 -165 -103 0 -256 30 -256 50 0 5 33 16 73 25 263 60 403
139 707 399 75 65 138 112 143 107 5 -5 -1 -47 -12 -96z m-7279 18 c27 -13 87
-63 158 -132 l115 -112 -67 6 c-95 8 -249 49 -310 82 -66 36 -98 81 -98 141
l0 45 79 -6 c45 -3 97 -13 123 -24z m6886 -18 c17 -6 15 -50 -3 -88 -19 -40
-112 -100 -185 -121 -53 -14 -190 -36 -231 -36 -10 0 -19 4 -19 9 0 16 178
184 221 210 22 13 55 27 72 31 29 7 114 4 145 -5z m-6291 -136 c15 -6 78 -25
138 -42 l110 -32 305 5 c576 9 749 7 811 -13 75 -24 144 -69 166 -109 28 -51
25 -196 -6 -266 -41 -92 -79 -102 -167 -46 -71 46 -146 79 -221 98 -95 25
-326 54 -508 66 -221 13 -328 39 -455 107 -97 53 -210 174 -210 227 0 19 1 19
37 5z m5633 -17 c0 -20 -39 -82 -79 -125 -59 -65 -193 -132 -316 -160 -38 -9
-153 -25 -255 -37 -278 -31 -520 -67 -566 -84 -59 -21 -122 -54 -177 -92 -56
-41 -68 -42 -111 -9 -79 61 -90 292 -18 365 33 32 198 86 293 96 37 3 131 1
210 -5 514 -39 610 -36 843 23 77 20 142 38 144 41 12 12 32 4 32 -13z m-7312
-130 c133 -134 201 -177 480 -298 69 -30 154 -72 187 -92 82 -49 158 -113 146
-125 -5 -5 -69 -11 -142 -14 -303 -12 -567 63 -721 206 -68 63 -92 104 -113
196 -13 54 -14 78 -4 128 23 128 40 128 167 -1z m8973 15 c1 -12 3 -35 4 -52
4 -42 -14 -174 -30 -210 -16 -39 -108 -135 -162 -169 -58 -36 -170 -79 -278
-107 -76 -19 -116 -23 -255 -23 -160 -1 -240 7 -240 23 0 17 142 102 282 170
82 39 151 71 154 71 14 0 230 124 273 156 25 20 78 66 117 104 40 37 78 70 85
72 22 8 49 -11 50 -35z m-5291 -361 c49 -93 90 -172 90 -176 0 -14 -83 -48
-145 -59 -50 -9 -65 -17 -92 -47 -31 -35 -34 -36 -51 -21 -28 26 -62 21 -126
-18 -32 -19 -61 -33 -65 -30 -4 2 -13 29 -20 60 -12 55 -13 55 -50 55 -55 0
-56 10 -3 37 179 94 258 166 324 296 21 44 41 77 44 75 2 -3 44 -80 94 -172z
m1761 -20 c27 -29 92 -78 153 -116 58 -36 106 -68 106 -72 0 -4 -16 -6 -37 -5
-36 2 -36 2 -58 -63 -24 -70 -33 -74 -75 -36 -54 50 -105 60 -135 26 -26 -28
-35 -25 -52 20 -15 37 -19 40 -72 50 -92 19 -128 29 -139 43 -9 11 33 88 179
331 10 18 15 12 47 -54 20 -40 57 -96 83 -124z m-4469 92 c49 -20 74 -22 363
-28 272 -6 316 -9 359 -26 27 -10 51 -24 53 -30 6 -17 -226 -128 -332 -161
-77 -23 -108 -27 -220 -27 -145 -1 -186 11 -259 74 -38 34 -86 115 -86 147 0
17 47 73 62 73 4 0 31 -10 60 -22z m7000 -39 c29 -37 30 -37 12 -70 -9 -18
-42 -58 -73 -89 -71 -70 -148 -98 -261 -93 -91 3 -242 40 -341 84 -87 38 -191
99 -196 116 -2 6 19 19 49 30 47 16 88 18 343 19 268 0 294 2 350 21 33 12 66
21 74 20 8 -1 27 -18 43 -38z m-5948 11 c70 -8 139 -8 239 -1 77 6 143 9 145
6 3 -3 -34 -23 -81 -45 -71 -34 -103 -42 -189 -52 -121 -13 -170 -4 -223 43
-42 37 -48 74 -12 65 13 -3 68 -10 121 -16z m4771 -6 c50 3 109 9 132 12 54 8
68 -14 33 -51 -41 -44 -99 -58 -206 -53 -89 5 -103 9 -182 49 -47 24 -87 49
-89 55 -3 7 31 6 109 -3 68 -9 149 -12 203 -9z m-245 -139 c187 -18 210 -22
210 -35 0 -23 -64 -80 -106 -94 -52 -17 -132 -8 -194 24 -33 17 -130 102 -130
114 0 9 41 7 220 -9z m-4010 -4 c0 -14 -89 -85 -140 -112 -62 -33 -181 -34
-226 -2 -29 21 -73 87 -64 97 3 2 46 7 95 11 50 4 92 9 94 11 9 8 241 3 241
-5z m3635 -11 c57 -9 63 -13 152 -102 51 -51 93 -96 93 -100 0 -5 -28 -8 -62
-8 -109 0 -206 58 -254 152 -38 75 -37 76 71 58z m-3390 -37 c-11 -44 -53 -92
-117 -134 -63 -40 -112 -53 -190 -47 l-46 3 111 102 112 103 69 0 68 0 -7 -27z
m-873 3 c8 -8 29 -48 47 -89 39 -89 37 -115 -15 -162 -102 -94 -370 -159 -512
-126 -97 24 -210 121 -185 159 17 27 474 206 566 221 76 13 84 12 99 -3z
m5125 0 c37 -8 101 -29 141 -46 40 -17 150 -62 244 -100 93 -38 172 -71 175
-73 11 -11 -32 -80 -69 -111 -51 -44 -114 -61 -213 -59 -79 1 -229 35 -308 68
-49 20 -117 82 -133 121 -13 30 -11 37 32 123 25 50 49 91 54 91 5 0 39 -6 77
-14z m-1025 -93 c61 -60 82 -93 61 -93 -5 0 -34 6 -65 14 -71 16 -120 49 -147
97 -32 57 -29 63 31 56 48 -6 58 -12 120 -74z m-2972 44 c0 -24 -73 -99 -114
-118 -23 -11 -64 -19 -95 -19 l-53 0 72 68 c40 37 80 70 89 74 30 12 101 9
101 -5z m-2645 -54 c28 -8 120 -48 205 -88 267 -125 273 -126 483 -79 l29 7
-25 -50 c-41 -79 -105 -127 -227 -169 -84 -29 -286 -27 -400 4 -117 32 -203
77 -270 142 -94 92 -129 201 -77 247 43 40 55 41 146 21 47 -10 109 -26 136
-35z m8279 0 c36 -38 41 -75 19 -136 -31 -90 -144 -183 -273 -226 -154 -50
-283 -62 -415 -36 -137 26 -232 87 -262 168 -24 66 -20 69 52 42 76 -29 126
-31 198 -9 55 18 275 111 292 124 36 29 270 96 342 99 12 1 33 -11 47 -26z
m-3544 -198 c33 -81 60 -152 60 -156 0 -15 -39 -10 -78 10 -99 51 -135 142
-95 243 20 54 34 71 45 60 4 -4 35 -75 68 -157z m-1278 84 c38 -74 9 -188 -61
-238 -28 -20 -110 -46 -118 -37 -14 13 132 319 150 314 7 -2 20 -20 29 -39z
m2929 -117 c113 -64 269 -175 269 -193 0 -15 -87 -49 -127 -49 -42 0 -131 42
-191 88 -20 16 -71 52 -112 79 -104 69 -108 76 -71 102 16 12 45 28 63 36 30
12 36 12 73 -9 22 -13 65 -37 96 -54z m-4486 32 c30 -20 55 -38 55 -40 0 -1
-28 -19 -62 -40 -35 -20 -99 -61 -144 -89 -128 -84 -157 -96 -229 -96 -64 -1
-129 23 -122 45 5 15 409 256 430 256 9 0 42 -16 72 -36z m4097 -66 c177 -195
240 -270 232 -278 -5 -4 -58 -12 -118 -19 -91 -9 -113 -9 -130 3 -32 21 -194
161 -249 214 -56 54 -64 66 -68 107 -4 30 -4 30 61 38 54 6 157 21 182 26 3 0
44 -41 90 -91z m-3657 54 c56 -14 71 -21 73 -38 5 -32 -38 -84 -123 -152 -44
-35 -109 -88 -145 -118 l-65 -55 -90 5 c-86 5 -165 21 -165 32 0 3 42 49 94
102 122 126 210 222 214 233 6 15 131 9 207 -9z m2756 -39 c20 -21 61 -69 92
-106 61 -73 70 -104 41 -145 -17 -25 -63 -29 -129 -11 -56 16 -166 128 -188
192 -21 62 -10 97 29 93 14 -2 41 0 58 4 53 13 61 11 97 -27z m258 -7 c42 -24
138 -78 214 -120 75 -42 137 -81 137 -85 0 -18 -71 -70 -104 -76 -78 -15 -212
88 -301 231 -69 110 -62 117 54 50z m-2259 8 c19 -7 48 -13 63 -14 27 0 28 -2
22 -32 -20 -100 -113 -205 -205 -232 -70 -21 -92 -20 -124 5 -29 23 -34 62
-11 93 8 10 54 61 102 112 60 64 93 92 103 88 8 -4 31 -13 50 -20z m-270 -3
c0 -15 -118 -167 -163 -211 -75 -71 -144 -100 -202 -86 -25 6 -95 62 -95 76 0
6 77 54 195 121 67 37 249 117 258 112 4 -2 7 -8 7 -12z m1715 -139 c15 -50
16 -68 5 -142 -13 -91 -33 -150 -49 -150 -6 0 -36 24 -67 53 l-58 54 14 33 c8
19 29 54 48 78 31 41 45 68 65 125 10 28 24 12 42 -51z m-3466 -4 c67 -23 136
-52 152 -65 25 -22 29 -32 29 -78 0 -42 -4 -55 -17 -59 -10 -3 -126 -26 -258
-52 -218 -43 -254 -47 -390 -48 -142 -1 -153 0 -200 25 -52 26 -115 97 -115
129 0 14 18 22 93 40 195 48 444 125 486 150 24 15 81 4 220 -42z m2575 -59
c36 -61 66 -119 66 -130 0 -19 -124 -129 -146 -129 -30 0 -62 205 -43 275 13
49 37 95 48 95 5 0 38 -50 75 -111z m3565 87 c21 -14 94 -41 171 -61 247 -66
360 -106 360 -125 0 -6 -17 -34 -39 -63 -31 -42 -50 -56 -99 -76 -57 -22 -71
-23 -194 -18 -126 4 -291 33 -478 82 -30 8 -74 19 -97 25 l-43 11 0 53 c0 81
15 91 240 162 58 18 114 33 124 34 11 0 36 -11 55 -24z m-2497 -127 c36 -18
47 -20 73 -10 17 6 34 11 37 11 8 0 219 -356 225 -378 6 -24 -56 -53 -127 -59
-49 -4 -61 -1 -110 29 -104 64 -161 173 -165 318 -1 73 6 110 22 110 2 0 23
-10 45 -21z m-1441 -35 c28 -14 35 -14 80 2 65 24 71 15 67 -91 -3 -66 -9 -92
-36 -150 -58 -122 -137 -185 -234 -185 -57 0 -135 29 -144 54 -3 8 20 53 54
103 32 48 85 132 117 186 31 53 59 97 62 97 2 0 18 -7 34 -16z m-1524 -116
c79 -40 143 -76 143 -81 0 -13 -179 -125 -264 -166 -166 -79 -330 -109 -444
-81 -92 22 -163 85 -178 157 l-6 31 78 25 c44 14 121 37 173 51 88 24 144 52
199 100 20 18 68 30 137 35 11 1 84 -31 162 -71z m4804 62 c20 -6 45 -20 55
-31 36 -41 93 -68 255 -124 89 -30 163 -55 165 -55 11 0 1 -40 -17 -70 -43
-71 -101 -108 -195 -121 -113 -16 -294 28 -451 110 -77 40 -203 134 -203 151
0 7 229 124 280 143 25 9 73 8 111 -3z m-1143 -47 c16 -24 51 -101 131 -287
12 -27 21 -50 21 -53 0 -11 -89 -43 -121 -43 -93 0 -214 106 -292 258 -26 50
-47 95 -47 100 0 5 21 12 48 16 26 4 83 17 127 30 87 26 101 24 133 -21z
m-3114 12 c9 -14 48 -41 86 -60 40 -20 70 -42 70 -50 0 -22 -82 -124 -135
-168 -58 -49 -175 -111 -248 -132 -45 -13 -77 -15 -148 -9 l-91 7 6 29 c10 51
35 93 84 141 54 53 331 265 348 266 7 1 19 -10 28 -24z m3621 -61 c177 -138
241 -199 269 -256 45 -91 39 -98 -88 -98 -132 0 -239 42 -352 139 -63 55 -144
156 -144 181 0 18 58 52 112 65 14 4 36 18 49 31 12 13 27 24 33 24 6 0 61
-39 121 -86z m-3088 40 c60 -20 114 -39 120 -43 9 -5 -1 -31 -35 -89 -99 -172
-208 -260 -312 -250 -27 3 -60 12 -74 22 -26 17 -35 53 -17 71 5 6 37 62 71
125 83 152 112 199 127 200 7 0 61 -16 120 -36z"/>
</g>
</svg>
