<?xml version="1.0" standalone="no"?>
<!DOCTYPE svg PUBLIC "-//W3C//DTD SVG 20010904//EN"
 "http://www.w3.org/TR/2001/REC-SVG-20010904/DTD/svg10.dtd">
<svg version="1.0" xmlns="http://www.w3.org/2000/svg"
 width="536.000000pt" height="340.000000pt" viewBox="0 0 536.000000 340.000000"
 preserveAspectRatio="xMidYMid meet">

<g transform="translate(0.000000,340.000000) scale(0.100000,-0.100000)"
fill="#000000" stroke="none">
<path d="M5132 3135 c-30 -18 -62 -41 -71 -49 -10 -9 -42 -29 -71 -45 l-54
-30 -48 51 c-26 29 -48 55 -48 60 0 19 -47 7 -60 -16 -10 -20 -10 -29 4 -57 9
-17 16 -39 16 -48 0 -9 7 -25 15 -35 8 -11 15 -23 15 -26 0 -4 -24 -22 -52
-40 -29 -19 -110 -71 -179 -117 -69 -46 -133 -83 -142 -83 -8 0 -29 -8 -45
-17 -26 -15 -34 -16 -55 -4 -23 12 -30 11 -62 -9 -32 -20 -36 -27 -31 -50 4
-24 -1 -33 -41 -64 -53 -42 -62 -43 -86 -16 -22 26 -27 25 -73 -7 -60 -41
-114 -76 -174 -115 -30 -19 -113 -73 -185 -120 -71 -47 -176 -115 -232 -151
-92 -60 -103 -70 -103 -96 0 -22 -5 -30 -17 -29 -10 0 -39 -3 -64 -7 l-46 -7
-77 113 c-42 63 -83 122 -91 133 -18 23 -42 15 -51 -18 -4 -18 -26 -34 -92
-66 -48 -23 -108 -59 -134 -81 -25 -21 -58 -43 -72 -49 -34 -12 -33 -39 1 -82
15 -18 28 -35 30 -37 2 -3 12 5 23 17 11 11 48 34 82 51 35 16 91 53 126 80
51 42 69 51 102 51 33 0 42 -4 52 -25 10 -21 8 -29 -10 -48 -30 -32 -28 -40 9
-32 28 6 35 3 64 -31 19 -21 31 -42 29 -45 -8 -13 -65 -21 -77 -11 -28 23
-101 -4 -221 -82 -66 -43 -136 -84 -155 -91 -20 -7 -51 -21 -68 -31 -32 -19
-33 -19 -75 3 -24 12 -54 25 -67 28 -13 4 -83 46 -155 92 l-131 86 -66 -6
c-47 -4 -72 -2 -85 7 -16 12 -15 16 16 50 34 37 57 45 77 25 8 -8 13 -7 18 1
5 7 -3 21 -20 34 -24 20 -26 24 -14 49 10 23 18 27 51 27 31 0 52 -10 105 -50
36 -28 93 -65 127 -82 33 -16 71 -39 83 -50 l21 -20 31 42 c39 54 39 66 -1 83
-18 8 -53 30 -76 50 -24 21 -81 55 -127 76 -68 33 -85 45 -93 70 -6 17 -18 31
-26 31 -8 0 -55 -58 -103 -130 -95 -141 -90 -137 -178 -122 -30 6 -40 12 -41
27 -2 37 -4 41 -36 60 -18 10 -96 60 -173 110 -77 51 -180 118 -230 150 -49
32 -133 86 -185 121 -53 35 -102 64 -110 64 -7 0 -24 -9 -36 -21 -25 -23 -27
-23 -93 33 -25 21 -30 32 -25 52 5 20 -1 29 -32 50 -35 24 -40 25 -62 10 -21
-14 -26 -13 -56 5 -18 12 -40 21 -48 21 -11 0 -339 203 -367 227 -3 2 3 17 12
32 9 16 17 39 17 50 0 12 4 21 9 21 5 0 11 14 13 30 5 32 -14 70 -35 70 -6 0
-37 -27 -68 -61 l-56 -61 -49 27 c-27 14 -80 48 -119 75 -38 27 -78 49 -87 50
-20 0 -48 -36 -48 -62 0 -16 97 -90 137 -105 10 -3 35 -19 55 -35 57 -44 130
-92 162 -106 60 -26 343 -216 385 -259 41 -41 43 -45 28 -60 -14 -15 -20 -15
-42 -3 -14 7 -25 21 -25 31 0 20 -35 43 -50 34 -15 -9 -52 -84 -46 -94 3 -5
29 -20 58 -35 29 -15 71 -42 92 -60 l39 -32 -37 -22 c-40 -24 -47 -53 -21
-101 14 -27 102 -91 126 -91 14 0 101 -62 324 -230 342 -257 335 -252 330
-282 -3 -21 3 -32 29 -52 52 -39 78 -42 115 -11 17 15 44 48 59 74 l27 46 3
-30 c7 -59 61 -84 106 -50 11 8 27 15 36 15 27 0 140 -79 140 -98 0 -10 24
-30 62 -52 70 -40 80 -56 44 -70 -14 -5 -26 -14 -26 -20 0 -5 -7 -10 -15 -10
-8 0 -15 -3 -15 -7 0 -5 -18 -17 -40 -27 -22 -10 -49 -28 -61 -39 -28 -26
-155 -108 -192 -125 -15 -6 -43 -12 -62 -12 -43 0 -45 -18 -10 -64 l25 -32
-46 -45 c-25 -24 -61 -74 -80 -112 -86 -170 -323 -312 -560 -336 -56 -6 -94
-15 -116 -29 -18 -12 -52 -32 -75 -44 -24 -12 -43 -29 -43 -37 0 -8 17 -33 39
-56 21 -22 68 -90 105 -152 37 -62 78 -121 92 -132 23 -18 28 -19 64 -6 55 20
356 224 387 263 7 9 12 38 10 68 -2 44 2 57 23 79 43 46 154 101 265 132 11 3
36 21 55 39 43 40 96 62 113 45 6 -6 25 -11 42 -11 52 0 62 -22 68 -146 5
-102 8 -115 37 -163 17 -28 38 -51 45 -51 15 0 80 35 108 58 22 19 22 48 0 61
-15 8 -19 26 -22 95 -4 111 2 134 37 142 40 10 130 62 147 87 26 37 18 86 -24
156 -22 35 -37 69 -34 77 2 7 44 40 93 73 l87 60 83 -57 c46 -31 88 -64 93
-73 7 -11 -1 -32 -32 -81 -47 -75 -53 -121 -20 -156 28 -31 91 -70 126 -78 50
-12 53 -20 53 -124 0 -84 -3 -101 -21 -124 -11 -15 -19 -33 -16 -40 8 -19 115
-79 131 -73 8 3 28 30 45 60 29 51 31 61 31 153 0 117 12 144 64 144 17 0 37
5 43 11 18 18 58 3 108 -41 25 -22 55 -40 65 -40 10 0 22 -5 25 -10 3 -6 14
-10 23 -10 30 -1 131 -47 176 -81 55 -42 69 -70 60 -124 l-6 -43 81 -61 c138
-105 301 -210 337 -217 47 -9 61 6 144 146 38 63 84 131 104 149 20 19 36 42
36 51 0 10 -29 34 -71 59 -62 37 -85 45 -170 57 -250 35 -459 162 -548 333
-27 51 -55 91 -81 111 -22 17 -40 36 -40 41 0 6 11 26 25 46 28 42 25 53 -14
53 -52 0 -168 64 -259 142 -18 15 -39 28 -47 28 -8 0 -15 3 -15 8 0 4 -12 13
-27 20 -16 7 -43 25 -61 40 l-34 28 69 41 c41 25 67 47 65 56 -1 8 24 32 63
57 68 44 77 45 143 19 29 -12 34 -11 54 8 12 12 22 32 24 45 1 13 3 25 3 27 1
3 14 -15 30 -40 47 -73 65 -89 101 -89 47 0 103 44 97 77 -4 21 8 35 87 97
211 168 525 398 576 422 79 38 117 69 130 109 15 46 6 71 -30 84 -17 5 -30 14
-30 20 0 12 94 80 135 97 52 21 57 34 32 79 -26 45 -69 57 -75 20 -4 -24 -29
-45 -54 -45 -62 0 3 77 140 167 205 133 252 163 263 163 12 0 74 42 152 103
27 20 53 37 58 37 8 0 112 66 138 86 14 11 -28 84 -47 84 -4 0 -31 -16 -60
-35z"/>
</g>
</svg>
