<svg xmlns="http://www.w3.org/2000/svg" xmlns:xlink="http://www.w3.org/1999/xlink" version="1.1" x="0px" y="0px" viewBox="0 0 100 125" enable-background="new 0 0 100 100" xml:space="preserve"><path d="M94.485,22.274c-0.052-0.368-0.325-1.243-1.763-1.459L79.58,18.814c-0.264-0.043-0.559-0.061-0.879-0.061  c-0.975,0-2.045,0.182-2.785,0.477l-1.858,0.741c-0.207,0.083-0.532,0.13-0.875,0.13c-0.459,0-0.818-0.086-1-0.165L57.026,13.27  c-0.624-0.273-1.469-0.429-2.313-0.429c-0.554,0-1.073,0.069-1.503,0.195l-1.576,0.476c-0.208,0.061-0.511,0.096-0.84,0.096  c-0.472,0-0.949-0.074-1.243-0.191l-5.41-2.166c-0.381-0.151-0.866-0.741-0.944-1.144l-1.053-5.605  c-0.251-1.347-1.373-2.582-2.607-2.868c-0.182-0.043-0.368-0.064-0.559-0.064c-1.304,0-2.378,1.013-2.551,2.408l-0.294,2.348  C36.109,6.5,35.91,6.672,35.72,6.672L18.445,5.958c-0.81-0.03-1.572,0.281-2.092,0.857c-0.502,0.559-0.732,1.291-0.649,2.062  l4.625,44.532c0.052,0.481-0.229,1.335-0.559,1.689l-0.801,0.88c-0.858,0.936-1.343,2.442-1.161,3.591  c0.169,1.065,1.005,2.417,1.945,3.136l1.044,0.801c0.351,0.273,0.697,1.001,0.684,1.442l-0.658,23.732  c-0.022,0.767,0.255,1.49,0.788,2.04c0.533,0.546,1.248,0.85,2.014,0.85l54.097-0.282c0.853-0.004,1.585-0.372,2.001-1.014  c0.42-0.641,0.468-1.455,0.126-2.239l-2.05-4.729c-0.433-0.996-1.416-2.239-2.291-2.89l-11.925-8.831  c-0.354-0.261-0.706-0.975-0.697-1.417l0.169-9.101c0.013-0.637,0.316-1.72,0.642-2.27l2.75-4.674  c0.567-0.971,0.932-2.543,0.841-3.665l-0.416-5.241c-0.035-0.464,0.269-1.274,0.606-1.603l14.09-13.653  c0.512-0.498,1.529-1.191,2.175-1.486l9.447-4.314C94.511,23.557,94.537,22.638,94.485,22.274z"/><text x="0" y="115" fill="#000000" font-size="5px" font-weight="bold" font-family="'Helvetica Neue', Helvetica, Arial-Unicode, Arial, Sans-serif">Created by Maria Darron</text><text x="0" y="120" fill="#000000" font-size="5px" font-weight="bold" font-family="'Helvetica Neue', Helvetica, Arial-Unicode, Arial, Sans-serif">from the Noun Project</text></svg>