<?xml version="1.0" standalone="no"?>
<!DOCTYPE svg PUBLIC "-//W3C//DTD SVG 20010904//EN"
 "http://www.w3.org/TR/2001/REC-SVG-20010904/DTD/svg10.dtd">
<svg version="1.0" xmlns="http://www.w3.org/2000/svg"
 width="750.000000pt" height="1000.000000pt" viewBox="0 0 750.000000 1000.000000"
 preserveAspectRatio="xMidYMid meet">

<g transform="translate(0.000000,1000.000000) scale(0.100000,-0.100000)"
fill="#000000" stroke="none">
<path d="M3630 9993 c-1091 -41 -1765 -215 -2059 -528 -107 -115 -145 -204
-167 -395 -24 -203 -69 -309 -224 -529 -84 -118 -144 -243 -159 -326 -15 -82
-36 -6761 -22 -6859 17 -119 57 -183 201 -328 125 -125 127 -128 133 -180 11
-90 69 -192 161 -284 95 -94 189 -157 341 -230 923 -441 2908 -441 3830 0 153
73 246 136 341 230 92 92 150 194 161 283 6 51 9 55 133 180 144 146 184 212
201 329 6 45 6 1220 -1 3444 -12 3655 -7 3426 -64 3554 -14 32 -70 125 -124
209 -160 245 -192 323 -217 530 -9 71 -25 152 -36 182 -148 396 -813 637
-1939 704 -211 13 -395 18 -490 14z m-32 -2363 c165 -21 256 -78 286 -181 20
-66 23 -592 4 -666 -18 -74 -85 -135 -178 -165 -67 -20 -94 -23 -250 -23 -195
0 -248 10 -333 65 -36 23 -54 43 -72 83 -25 52 -25 54 -25 363 0 359 3 379 76
443 88 77 275 108 492 81z m-1424 -29 c15 -16 16 -46 14 -275 -2 -141 -1 -256
2 -256 3 0 23 41 45 91 22 50 47 95 57 100 21 12 139 12 157 0 8 -5 34 -51 57
-102 l43 -94 3 268 c3 225 5 269 18 277 8 5 72 10 142 10 124 0 128 -1 144
-24 14 -22 15 -65 12 -358 l-4 -333 -48 -130 c-27 -71 -56 -138 -64 -147 -13
-15 -33 -18 -131 -18 -137 0 -153 7 -170 77 -7 26 -23 85 -37 131 -22 73 -27
82 -49 82 -14 0 -26 -7 -29 -17 -3 -10 -17 -61 -31 -113 -35 -129 -44 -149
-69 -156 -11 -2 -70 -4 -130 -2 -133 4 -127 -2 -191 183 l-45 130 0 337 c0
310 1 338 18 347 9 6 74 11 143 11 110 0 128 -2 143 -19z m2208 2 c17 -15 18
-40 18 -368 l0 -352 86 -7 c47 -3 90 -3 95 0 6 4 9 55 7 128 -1 66 1 127 5
134 11 17 268 17 285 0 17 -17 17 -499 0 -516 -17 -17 -769 -17 -786 0 -9 9
-12 133 -12 495 0 448 1 483 18 492 9 6 73 11 141 11 102 0 128 -3 143 -17z
m1382 -5 c18 -26 22 -180 6 -222 l-10 -26 -195 0 -195 0 0 -72 0 -73 118 3
c65 2 130 -2 145 -7 l27 -11 0 -119 c0 -109 -2 -121 -19 -131 -11 -5 -76 -10
-145 -10 l-126 0 0 -141 c0 -77 -5 -149 -10 -160 -10 -17 -22 -19 -148 -19
-94 0 -142 4 -150 12 -9 9 -12 133 -12 495 0 448 1 483 18 492 10 7 142 11
349 11 332 0 332 0 347 -22z m-1309 -2331 c39 -39 58 -112 48 -184 -6 -42 -5
-47 9 -35 38 31 63 -12 63 -108 0 -43 -8 -71 -37 -130 -47 -94 -85 -235 -98
-364 -19 -189 24 -397 94 -456 37 -30 4 -76 -37 -51 -19 12 -20 11 -14 -30 3
-24 19 -61 36 -86 36 -50 37 -56 15 -74 -12 -10 -20 -10 -35 -1 -10 7 -20 12
-22 12 -2 0 -7 -31 -11 -69 -12 -134 -82 -327 -138 -379 -35 -32 -79 -42 -184
-42 -85 0 -92 1 -87 19 3 10 -2 32 -11 49 -9 17 -16 49 -16 72 0 43 -21 63
-43 41 -20 -20 -13 -104 11 -145 l21 -36 -543 0 c-651 0 -605 -14 -478 148
126 163 264 313 281 307 42 -16 109 -25 148 -19 23 3 43 2 43 -2 0 -15 -34
-60 -64 -86 -21 -18 -27 -30 -22 -43 6 -16 17 -17 119 -12 61 3 136 13 165 22
30 9 56 14 59 11 10 -10 -28 -57 -63 -78 -72 -42 -24 -73 102 -65 127 7 252
71 209 107 -12 10 -27 7 -77 -15 -34 -15 -82 -30 -106 -33 l-44 -5 20 39 c27
54 34 110 17 124 -11 9 -29 7 -77 -10 -62 -21 -204 -51 -211 -43 -2 2 7 24 19
50 26 50 32 109 12 115 -7 3 -33 -2 -58 -9 -57 -18 -135 -11 -189 16 -59 31
-55 53 19 92 116 62 213 192 271 364 l27 79 52 4 c70 4 150 38 150 64 0 27
-26 33 -68 15 -61 -27 -106 -30 -166 -13 -92 27 -136 84 -79 102 52 16 89 43
115 86 16 26 53 69 82 95 33 30 63 71 81 108 38 79 109 148 180 174 31 12 62
21 69 21 19 0 200 153 286 242 86 89 105 95 155 45z m-952 -272 c11 -23 26
-36 44 -41 47 -10 53 -13 60 -29 3 -10 -5 -27 -22 -45 -24 -25 -27 -34 -21
-69 4 -29 2 -44 -10 -55 -20 -20 -23 -20 -59 4 -29 19 -30 19 -63 0 -26 -16
-38 -18 -53 -9 -17 9 -19 17 -14 53 6 37 3 47 -19 71 -40 43 -32 66 31 79 22
5 35 16 43 37 14 32 37 50 55 43 7 -3 19 -20 28 -39z m-346 -529 c19 -39 26
-44 64 -49 38 -5 58 -19 59 -39 0 -4 -14 -23 -31 -42 -26 -30 -30 -41 -27 -82
4 -63 -16 -77 -69 -47 l-37 21 -38 -21 c-54 -31 -74 -17 -70 49 3 43 -1 53
-27 83 -17 19 -31 37 -31 40 1 19 22 33 59 38 34 5 45 12 58 37 36 71 60 75
90 12z m324 -2269 c89 -21 139 -55 168 -112 26 -49 26 -50 26 -315 0 -265 0
-266 -26 -315 -44 -86 -151 -125 -345 -125 -160 0 -278 36 -322 97 -39 55 -43
97 -40 363 3 231 5 259 23 295 25 49 83 90 155 109 70 19 286 20 361 3z m-667
-13 c12 -12 16 -36 16 -102 0 -48 -4 -93 -9 -101 -7 -11 -42 -14 -158 -15
-111 -1 -154 -5 -166 -15 -15 -11 -17 -37 -17 -181 0 -144 2 -170 17 -181 11
-10 58 -15 169 -17 179 -4 167 6 162 -132 l-3 -85 -204 -3 c-227 -3 -284 6
-342 55 -64 54 -69 79 -69 359 0 257 4 292 42 346 23 34 94 68 161 78 29 4
127 8 219 9 139 1 169 -2 182 -15z m1257 6 c18 -10 19 -24 19 -315 l0 -305 80
0 80 0 0 103 c0 56 4 108 8 115 7 9 39 12 128 10 l119 -3 0 -220 0 -220 -330
-3 c-301 -2 -331 -1 -342 15 -10 13 -13 111 -13 407 0 215 4 396 8 402 4 6 14
14 22 17 26 10 201 7 221 -3z m1124 -10 c8 -9 48 -101 88 -205 l72 -190 0
-215 0 -215 -119 -3 c-78 -2 -123 1 -132 9 -10 8 -14 37 -14 100 l0 89 -106 0
-106 0 7 -72 c4 -44 2 -84 -4 -100 l-11 -28 -114 0 c-104 0 -116 2 -126 19
-13 25 -13 296 0 378 6 34 33 122 61 195 28 73 60 157 71 186 12 33 28 57 41
62 12 5 102 8 199 7 145 -2 180 -5 193 -17z"/>
<path d="M3373 7345 c-23 -16 -23 -20 -23 -234 0 -187 2 -220 16 -232 18 -15
120 -25 158 -15 55 14 56 20 56 250 0 186 -2 215 -17 227 -25 22 -162 24 -190
4z"/>
<path d="M4070 4852 c-55 -17 -80 -36 -91 -69 -6 -19 -8 -37 -5 -41 4 -3 32
19 63 51 56 55 64 69 33 59z"/>
<path d="M4200 4415 c-9 -11 -11 -39 -7 -97 5 -83 21 -116 50 -105 13 5 15 22
10 104 -7 108 -22 136 -53 98z"/>
<path d="M3449 4901 c-21 -21 -10 -56 18 -57 27 -1 37 38 14 58 -14 12 -19 12
-32 -1z"/>
<path d="M3104 4376 c-3 -9 -15 -16 -27 -16 -19 0 -19 -1 -3 -19 9 -10 14 -25
11 -33 -4 -10 3 -14 30 -14 23 0 34 4 31 12 -2 6 2 21 10 33 11 15 12 21 3 21
-7 0 -21 7 -31 16 -16 16 -18 16 -24 0z"/>
<path d="M3232 1964 c-21 -15 -22 -21 -22 -194 0 -209 0 -210 102 -210 95 0
98 6 98 210 0 157 -2 172 -20 190 -25 25 -124 28 -158 4z"/>
<path d="M4961 1957 c-12 -16 -63 -178 -57 -184 2 -2 42 -3 89 -1 l85 3 -32
95 c-25 76 -35 96 -52 98 -11 2 -26 -3 -33 -11z"/>
</g>
</svg>
