%TF.GenerationSoftware,KiCad,Pcbnew,(6.0.4)*%
%TF.CreationDate,2023-01-17T21:57:26-05:00*%
%TF.ProjectId,tube,74756265-2e6b-4696-9361-645f70636258,rev?*%
%TF.SameCoordinates,Original*%
%TF.FileFunction,Legend,Top*%
%TF.FilePolarity,Positive*%
%FSLAX46Y46*%
G04 Gerber Fmt 4.6, Leading zero omitted, Abs format (unit mm)*
G04 Created by KiCad (PCBNEW (6.0.4)) date 2023-01-17 21:57:26*
%MOMM*%
%LPD*%
G01*
G04 APERTURE LIST*
%ADD10C,0.150000*%
%ADD11C,0.120000*%
G04 APERTURE END LIST*
D10*
%TO.C,*%
D11*
%TO.C,REF\u002A\u002A*%
X2195000Y-9985000D02*
X2195000Y-9860000D01*
X805000Y-9985000D02*
X805000Y-9860000D01*
X805000Y-9985000D02*
X2195000Y-9985000D01*
X805000Y-9300000D02*
X805000Y-8615000D01*
X2108276Y-9985000D02*
X2195000Y-9985000D01*
X805000Y-8615000D02*
X1500000Y-8615000D01*
X805000Y-9985000D02*
X891724Y-9985000D01*
X29695000Y-9985000D02*
X29695000Y-9860000D01*
X28305000Y-9985000D02*
X28305000Y-9860000D01*
X28305000Y-9985000D02*
X29695000Y-9985000D01*
X28305000Y-9300000D02*
X28305000Y-8615000D01*
X29608276Y-9985000D02*
X29695000Y-9985000D01*
X28305000Y-8615000D02*
X29000000Y-8615000D01*
X28305000Y-9985000D02*
X28391724Y-9985000D01*
X8995000Y-9985000D02*
X8995000Y-9860000D01*
X7605000Y-9985000D02*
X7605000Y-9860000D01*
X7605000Y-9985000D02*
X8995000Y-9985000D01*
X7605000Y-9300000D02*
X7605000Y-8615000D01*
X8908276Y-9985000D02*
X8995000Y-9985000D01*
X7605000Y-8615000D02*
X8300000Y-8615000D01*
X7605000Y-9985000D02*
X7691724Y-9985000D01*
%TD*%
M02*
