<svg version="1.0" xmlns="http://www.w3.org/2000/svg"
  viewBox="0 0 1200.789034 579.536674"
 preserveAspectRatio="xMidYMid meet">
<metadata>
For more coloring pages, please visit ColoringAll.com
</metadata>
<g transform="translate(0.000000,580.000000) scale(0.100000,-0.100000)"
fill="#000000" stroke="none">
<path d="M6959 5746 c-87 -63 -208 -126 -243 -126 -27 0 -38 25 -51 108 -4 23
-12 42 -18 42 -5 0 -42 -26 -81 -58 -254 -210 -329 -262 -378 -262 -38 0 -48
25 -48 124 0 47 -4 87 -8 90 -14 8 -61 -26 -177 -129 -174 -153 -237 -189
-273 -153 -6 6 -19 47 -29 90 -9 43 -20 77 -24 76 -33 -12 -347 -305 -595
-553 -214 -215 -311 -306 -335 -314 -19 -6 -92 -20 -164 -31 -192 -30 -465
-83 -465 -90 0 -8 261 -91 377 -120 104 -26 113 -25 388 10 487 64 774 91
1295 125 418 27 1000 16 1420 -26 996 -99 1805 -304 2445 -619 333 -163 553
-318 849 -594 258 -241 421 -452 586 -761 82 -154 118 -205 151 -212 15 -3 36
-14 46 -25 17 -19 18 -49 18 -422 0 -345 -3 -416 -18 -505 -31 -171 -122 -407
-168 -431 -23 -13 -47 18 -180 226 -95 150 -208 314 -216 314 -13 0 9 -46 87
-179 200 -338 219 -391 281 -771 16 -102 34 -202 40 -224 19 -71 27 -23 18
104 -13 164 -2 330 21 330 13 0 27 -51 65 -239 19 -95 37 -176 40 -179 16 -16
16 22 0 145 -22 164 -26 510 -6 557 14 34 24 28 52 -31 17 -38 17 -36 12 139
-5 127 -3 178 5 178 17 0 61 -63 82 -117 10 -26 23 -49 29 -51 16 -5 15 -4
-29 172 -43 170 -51 253 -24 263 8 3 34 -2 56 -11 23 -9 44 -14 46 -11 3 2
-13 28 -35 57 -66 87 -77 114 -77 198 0 95 25 154 112 269 l64 84 -53 -8 c-30
-5 -67 -9 -84 -9 l-30 -1 1 67 c0 56 8 84 43 165 51 120 108 207 137 211 14 2
33 -8 52 -30 42 -44 47 -27 33 104 -23 207 -38 202 -295 -120 -95 -119 -127
-149 -146 -137 -5 3 -40 65 -78 139 -38 73 -112 200 -164 282 -52 82 -98 154
-101 160 -3 6 16 37 43 69 45 53 61 85 44 85 -12 0 -64 -34 -64 -42 0 -9 -60
-48 -72 -48 -5 0 -8 10 -8 23 0 25 28 74 78 134 19 24 32 43 29 43 -4 0 -45
-25 -92 -55 -92 -60 -105 -64 -105 -37 0 24 34 77 92 145 28 31 47 57 44 57
-3 0 -42 -25 -86 -55 -77 -53 -121 -67 -135 -44 -8 12 21 56 89 133 27 31 47
59 44 62 -3 2 -45 -20 -94 -51 -91 -57 -123 -66 -144 -40 -22 27 -1 62 81 136
45 40 76 75 70 77 -6 2 -52 -22 -102 -52 -96 -58 -151 -72 -163 -40 -3 9 -6
18 -6 21 0 2 39 45 86 94 48 50 84 92 81 95 -3 3 -50 -19 -104 -50 -54 -31
-109 -59 -121 -63 -24 -6 -122 33 -122 48 0 9 147 118 282 207 106 71 125 88
114 99 -10 10 -235 -105 -339 -173 -54 -35 -107 -64 -118 -64 -34 0 -159 90
-159 115 0 19 55 55 240 160 215 122 288 169 268 173 -9 2 -92 -31 -185 -74
-343 -157 -385 -174 -438 -174 -51 0 -113 23 -166 61 -16 11 -29 24 -29 30 0
13 98 60 333 160 237 101 317 140 300 146 -14 5 -92 -18 -371 -108 -117 -38
-247 -78 -289 -89 -124 -32 -215 -25 -284 24 -21 14 -20 15 20 36 52 26 512
164 730 219 174 44 276 58 335 47 51 -10 171 -125 244 -235 186 -278 382 -793
382 -1004 0 -53 -6 -76 -40 -146 -45 -92 -49 -113 -20 -86 67 61 106 189 96
319 -19 249 -194 724 -357 971 -75 113 -182 218 -255 252 -121 55 -199 44
-759 -107 -203 -55 -425 -115 -491 -132 l-122 -32 -123 48 c-378 149 -489 259
-434 426 20 61 14 70 -50 70 -51 0 -105 32 -105 61 0 24 49 106 80 134 11 10
20 21 20 26 0 4 -39 6 -86 6 -106 -2 -116 6 -95 80 26 90 28 88 -73 91 -50 2
-96 8 -103 14 -9 7 -11 23 -7 49 4 22 3 39 -2 39 -5 0 -52 -10 -105 -22 -127
-28 -131 -26 -123 57 8 77 7 77 -85 39 -70 -28 -118 -28 -135 -1 -8 13 -6 31
12 79 14 41 19 65 12 72 -6 6 -42 -3 -104 -28 -52 -21 -102 -36 -110 -33 -11
5 -16 20 -16 51 0 25 -3 47 -7 49 -5 3 -48 -12 -98 -34 -49 -21 -105 -39 -124
-39 l-34 0 6 75 c4 41 4 75 1 75 -3 0 -59 -27 -126 -60 -66 -33 -132 -60 -147
-60 -56 0 -67 47 -26 116 14 24 21 45 17 48 -4 3 -48 -13 -97 -35 -53 -23
-105 -39 -127 -39 l-38 0 0 53 c0 74 -11 127 -25 127 -7 0 -46 -24 -86 -54z
m21 -87 c0 -59 67 -98 167 -99 58 0 64 -2 77 -28 41 -79 111 -89 218 -29 37
20 69 37 72 37 4 0 15 -20 26 -45 34 -78 92 -89 189 -34 l40 22 41 -36 c38
-35 44 -37 109 -37 67 0 69 -1 79 -29 15 -42 52 -62 130 -71 70 -7 112 -23
112 -41 0 -14 39 -26 121 -38 44 -6 83 -18 100 -30 16 -12 53 -30 84 -42 56
-21 85 -54 85 -97 0 -11 18 -44 40 -73 22 -30 40 -62 40 -72 0 -26 27 -76 70
-127 41 -49 64 -91 86 -152 8 -22 30 -66 49 -98 19 -32 35 -60 35 -62 0 -6
-190 39 -227 53 -30 11 -29 29 7 86 53 83 35 97 -43 31 -66 -55 -113 -78 -160
-78 -51 0 -117 20 -117 35 0 7 26 41 58 76 84 94 132 151 132 161 0 20 -26 3
-112 -74 -161 -141 -252 -187 -288 -143 -17 21 -8 32 159 210 77 83 141 153
141 158 0 14 -24 6 -59 -20 -20 -15 -95 -76 -168 -135 -198 -163 -266 -198
-324 -168 -10 6 -19 18 -19 28 0 9 68 96 151 192 157 182 178 210 158 210 -15
0 -76 -48 -194 -155 -218 -197 -284 -245 -342 -245 -15 0 -34 4 -42 9 -19 12
2 40 145 191 186 196 216 231 210 237 -3 3 -18 -2 -33 -12 -61 -40 -319 -251
-393 -321 l-78 -75 -68 3 -67 3 60 75 c32 41 117 142 188 224 70 83 123 152
117 154 -17 5 -41 -16 -254 -217 -214 -204 -264 -241 -319 -241 -21 0 -41 5
-44 10 -13 21 106 186 283 391 166 192 178 209 151 209 -18 0 -180 -162 -340
-342 -83 -92 -168 -183 -191 -203 -37 -31 -48 -35 -100 -35 -50 0 -58 2 -58
19 0 23 79 132 216 296 147 176 224 275 224 286 0 23 -65 -39 -210 -198 -201
-220 -316 -339 -364 -374 -33 -24 -49 -29 -98 -29 -33 0 -68 5 -79 10 -18 10
-18 13 -4 39 34 67 171 231 439 528 41 46 64 79 57 81 -7 2 -153 -135 -325
-306 -171 -170 -327 -319 -346 -331 -24 -14 -52 -21 -85 -21 -104 0 -104 -2 1
134 51 67 130 165 175 217 45 52 110 128 146 169 35 41 59 76 53 78 -16 6
-112 -82 -362 -332 -124 -124 -241 -234 -259 -245 -25 -15 -51 -21 -97 -21
l-63 0 21 38 c12 21 81 111 153 201 158 195 201 255 187 259 -16 6 -74 -42
-204 -168 -102 -99 -229 -234 -288 -308 -17 -20 -27 -22 -143 -22 -172 0 -175
10 -43 160 123 141 188 223 188 237 0 24 -30 0 -239 -196 -136 -127 -222 -199
-255 -216 -83 -40 -286 -62 -286 -31 0 19 80 122 195 251 223 250 408 444 417
439 6 -4 17 -23 25 -43 39 -93 92 -130 152 -105 49 20 126 89 217 193 l79 90
25 -77 c21 -64 30 -80 58 -95 29 -17 38 -18 78 -7 51 15 125 64 239 160 105
88 145 109 145 75 0 -18 50 -45 82 -45 27 0 140 52 212 99 58 36 76 39 76 10z
M3405 4570 c-110 -9 -468 -111 -500 -142 -15 -14 15 -32 117 -68 101 -35 196
-80 243 -115 58 -43 69 -42 117 21 23 32 60 71 81 88 38 30 42 31 155 34 141
4 235 -13 339 -62 190 -91 292 -200 344 -369 17 -55 21 -87 17 -171 -3 -95 -6
-109 -40 -177 -68 -136 -195 -277 -395 -435 -103 -81 -115 -93 -107 -106 15
-23 212 89 392 224 240 180 375 372 433 615 29 122 25 290 -9 345 -43 70 -151
118 -462 208 -247 71 -380 100 -485 106 -55 3 -113 6 -130 7 -16 2 -66 0 -110
-3z M2055 4390 c-92 -6 -149 -24 -173 -53 -12 -14 -10 -17 15 -22 113 -24 233
-150 233 -244 0 -75 -58 -140 -177 -200 -133 -66 -249 -77 -404 -37 -141 37
-261 81 -394 146 -118 57 -173 98 -161 119 4 6 37 27 74 47 107 59 142 83 142
100 0 22 -26 18 -460 -67 -403 -79 -392 -77 -387 -92 4 -14 50 -28 244 -71
188 -43 504 -126 613 -162 118 -39 271 -118 327 -169 60 -53 113 -150 113
-204 -1 -50 -29 -108 -84 -170 -26 -29 -44 -56 -41 -62 4 -5 34 -9 69 -9 89 0
155 -23 282 -96 192 -111 289 -144 480 -165 172 -18 455 12 590 62 173 65 382
285 445 469 27 80 38 266 19 353 -53 258 -345 467 -715 512 -127 16 -519 25
-650 15z m697 -249 c191 -49 367 -181 445 -335 71 -140 22 -362 -120 -542 -91
-116 -206 -191 -328 -214 -85 -17 -405 -24 -474 -11 -78 14 -185 67 -282 140
-145 107 -198 193 -191 309 5 93 36 150 137 255 191 198 410 360 546 403 60
19 181 17 267 -5z M6222 4389 c-89 -15 -187 -75 -402 -247 -202 -161 -596
-514 -860 -771 l-115 -112 24 -20 c13 -10 31 -19 40 -19 9 0 27 -7 40 -16 22
-16 23 -21 17 -86 -4 -40 -2 -68 3 -66 4 1 70 80 146 173 430 531 715 811
1015 997 90 56 147 78 204 78 118 0 152 -111 143 -470 -6 -237 -13 -279 -71
-395 -95 -191 -401 -508 -555 -578 -62 -27 -210 -19 -331 17 -219 67 -400 105
-400 85 0 -9 144 -57 265 -88 217 -55 445 -70 525 -34 65 29 202 135 301 233
329 326 450 735 332 1123 -29 96 -74 160 -127 182 -44 19 -133 25 -194 14z
M1501 4355 c-72 -20 -110 -45 -170 -111 -68 -74 -73 -105 -32 -189 60 -121
149 -173 316 -182 147 -8 286 35 352 111 55 61 52 132 -7 212 -88 120 -316
198 -459 159z m183 -113 c44 -22 90 -49 100 -61 19 -21 19 -22 -1 -49 -27 -36
-94 -61 -169 -61 -59 -1 -64 1 -93 34 -34 39 -46 73 -37 103 8 24 74 72 99 72
11 0 56 -17 101 -38z M6203 4112 c-370 -275 -1034 -908 -1033 -986 1 -40 9
-41 292 -41 150 0 305 -4 343 -9 l70 -9 -19 21 c-23 26 -95 54 -196 76 -78 18
-109 30 -98 41 3 4 104 24 224 46 119 22 226 45 238 51 21 11 20 12 -5 19 -25
6 -181 -1 -314 -15 l-60 -7 40 22 c22 12 109 51 194 86 187 78 251 110 251
125 0 20 -85 0 -237 -57 -81 -31 -183 -69 -226 -86 -43 -16 -75 -24 -72 -19
10 16 180 131 355 240 194 121 310 199 310 210 0 25 -122 -32 -365 -170 -110
-62 -234 -131 -275 -152 l-75 -40 135 133 c145 142 389 359 538 478 86 70 111
101 78 101 -8 0 -50 -26 -93 -58z M145 4030 c-12 -4 -27 -15 -34 -24 -11 -13
-10 -17 10 -25 13 -5 41 -12 61 -16 88 -14 322 -154 508 -303 129 -104 218
-188 329 -310 130 -143 201 -181 294 -157 74 19 97 46 97 117 0 38 -7 72 -19
96 -26 52 -128 160 -219 233 -162 131 -420 282 -504 296 -51 8 -49 -10 5 -44
185 -117 279 -186 357 -260 90 -85 117 -119 106 -130 -11 -12 -54 16 -237 154
-282 212 -492 333 -639 367 -73 18 -86 18 -115 6z M130 3905 c-16 -19 -11 -33
92 -250 106 -221 114 -233 123 -182 4 20 13 42 21 48 21 18 43 -7 97 -110 55
-104 70 -120 98 -103 10 7 24 12 30 12 6 0 46 -29 88 -64 l77 -64 67 29 c96
40 157 78 157 97 0 23 -174 190 -255 243 -39 26 -101 74 -138 107 -43 38 -87
67 -116 77 -26 8 -80 42 -121 75 -115 92 -190 121 -220 85z M4604 3633 c-165
-269 -258 -382 -419 -508 -242 -190 -620 -361 -848 -385 -51 -5 -187 -10 -304
-10 l-212 0 -98 -63 c-241 -156 -498 -294 -665 -357 -49 -19 -88 -37 -88 -41
0 -3 35 -10 78 -13 175 -15 242 -40 480 -183 194 -115 263 -142 367 -143 149
0 372 47 550 117 129 50 223 113 170 113 -8 0 -68 -16 -133 -36 -213 -65 -450
-102 -557 -89 -154 20 -317 77 -364 129 l-24 26 44 0 c24 0 85 -7 134 -15 243
-40 636 5 902 104 131 49 337 140 353 157 14 15 11 16 -27 10 -23 -3 -105 -26
-182 -50 -297 -94 -579 -148 -781 -149 -153 -1 -226 11 -317 54 -118 56 -68
74 117 43 131 -23 366 -22 494 0 356 64 720 250 990 506 83 79 206 217 206
232 0 22 -33 1 -115 -72 -269 -240 -387 -326 -580 -421 -236 -116 -437 -163
-695 -164 -179 0 -244 12 -321 61 -37 23 -60 66 -44 82 3 4 142 10 308 13 325
7 365 13 537 75 301 108 668 358 840 570 123 153 249 367 266 452 11 53 -11
37 -62 -45z M833 3145 c-72 -36 -135 -65 -141 -65 -6 0 -27 14 -46 30 l-34 31
-12 -38 c-25 -77 -93 -124 -246 -168 -101 -29 -155 -32 -195 -8 -37 22 -61 10
-70 -36 -4 -17 -25 -59 -48 -93 -22 -33 -41 -65 -41 -70 0 -5 11 -20 25 -34
24 -24 30 -25 88 -19 153 16 382 87 691 212 88 36 245 96 348 134 199 73 268
103 268 119 0 6 -12 8 -27 4 -83 -17 -362 -106 -528 -167 -163 -60 -301 -107
-314 -107 -15 0 33 36 107 81 215 130 338 227 316 249 -7 7 -51 -10 -141 -55z
M1225 2850 c-161 -8 -270 -33 -450 -107 -270 -110 -255 -138 25 -48 252 82
330 98 599 125 118 11 216 22 218 24 5 5 -157 16 -207 14 -25 -1 -108 -4 -185
-8z M2080 2725 c-36 -8 -193 -19 -350 -25 -157 -6 -318 -15 -359 -21 -111 -14
-335 -96 -356 -129 -10 -16 15 -12 111 16 172 49 235 58 624 84 244 17 442 50
441 75 -1 15 -39 15 -111 0z M90 2611 c0 -18 66 -65 135 -97 140 -64 692 -233
716 -218 27 16 -8 58 -77 92 -23 12 -110 35 -195 52 -196 38 -305 70 -449 131
-121 52 -130 54 -130 40z M730 2532 c0 -14 30 -36 105 -80 39 -22 99 -66 135
-99 36 -32 76 -67 89 -78 21 -18 42 -21 200 -25 l176 -5 99 -53 c180 -97 197
-101 521 -127 232 -19 340 -36 442 -70 87 -29 83 -29 83 -10 0 50 -183 103
-500 144 -209 28 -248 39 -440 130 -91 43 -183 85 -205 92 -26 8 -93 13 -187
14 l-148 0 -169 88 c-160 82 -201 98 -201 79z M5588 2114 c-10 -3 -18 -9 -18
-13 0 -12 66 -71 260 -231 101 -84 265 -222 363 -307 369 -315 458 -365 657
-365 129 1 189 18 242 69 33 32 49 63 33 63 -3 0 -30 -13 -60 -29 -98 -52
-262 -51 -380 3 -103 47 -307 220 -660 561 -121 116 -232 219 -247 229 -27 18
-154 31 -190 20z M9388 2109 c-16 -6 -28 -15 -28 -21 0 -5 22 -62 49 -126 86
-203 128 -385 191 -823 51 -355 87 -547 106 -577 37 -57 81 -22 338 263 228
253 464 529 535 625 49 65 61 89 61 118 0 43 -59 183 -79 190 -14 5 -13 -29 5
-183 l6 -50 -217 -235 c-120 -129 -279 -302 -353 -385 -146 -162 -189 -205
-209 -205 -34 0 -50 76 -83 405 -50 494 -139 912 -208 978 -32 31 -75 41 -114
26z M9696 2022 c-3 -5 6 -49 20 -98 36 -134 73 -317 104 -529 l28 -190 1 243
c1 263 9 312 51 312 26 0 31 -12 80 -195 50 -185 79 -277 92 -290 7 -7 8 -3 5
10 -32 117 -34 393 -3 439 9 14 21 26 26 26 13 0 48 -73 94 -191 65 -170 88
-174 61 -12 -17 97 -17 115 -4 168 19 79 39 80 91 5 67 -96 90 -122 100 -112
6 6 4 31 -6 70 -10 36 -16 102 -16 167 0 59 -3 105 -7 103 -79 -40 -213 -64
-301 -53 -57 7 -136 33 -272 88 -99 40 -137 50 -144 39z M1783 1989 c37 -52
189 -153 469 -310 453 -255 671 -344 875 -356 101 -6 143 0 143 22 0 9 -25 19
-77 30 -228 47 -578 204 -888 400 -257 162 -342 202 -477 223 -53 8 -56 8 -45
-9z M2314 1907 c-9 -23 2 -35 75 -81 153 -98 493 -264 649 -316 94 -31 232
-53 302 -48 43 3 41 4 -50 27 -177 45 -444 166 -608 278 -136 92 -219 130
-324 149 -29 5 -39 3 -44 -9z M8850 1860 c-74 -10 -241 -37 -370 -60 -624
-111 -874 -145 -1184 -158 -121 -5 -181 -11 -183 -19 -6 -18 66 -82 106 -93
55 -15 304 -12 443 6 181 23 351 56 753 144 403 89 607 125 794 140 136 11
183 20 188 37 6 18 -37 23 -227 22 -117 -1 -235 -8 -320 -19z M2743 1845 c-26
-69 326 -194 660 -236 57 -7 147 -9 210 -6 119 6 227 31 209 49 -5 5 -90 14
-188 19 -219 11 -284 24 -517 101 -256 85 -361 105 -374 73z M3420 1852 c0
-16 22 -28 90 -50 221 -72 761 -169 1215 -217 330 -35 468 -65 600 -131 l90
-45 24 -62 c12 -34 56 -156 97 -272 106 -297 148 -402 220 -545 86 -169 154
-270 249 -366 91 -92 144 -126 230 -149 74 -19 121 -13 197 27 55 29 218 170
218 189 0 19 -24 7 -129 -65 -157 -107 -194 -115 -297 -60 -138 73 -275 256
-400 536 -72 160 -113 283 -179 538 -79 303 -116 375 -218 424 -114 55 -252
75 -782 111 -410 27 -624 46 -805 71 -113 15 -368 60 -402 70 -10 3 -18 1 -18
-4z M6283 1783 c-9 -22 67 -92 224 -206 201 -146 366 -239 351 -198 -1 5 -57
50 -123 99 -102 76 -200 162 -184 162 2 0 63 -20 134 -45 72 -25 139 -45 150
-45 19 1 19 1 -1 19 -23 19 -336 155 -467 203 -70 25 -78 26 -84 11z M5710
1455 c0 -66 270 -552 481 -865 94 -139 181 -241 195 -227 4 4 -16 44 -43 89
-137 226 -281 533 -295 628 -11 72 0 120 28 120 9 0 128 -110 264 -245 136
-135 252 -245 259 -245 32 0 10 34 -123 191 -122 144 -233 325 -212 346 13 13
67 -14 195 -101 156 -106 197 -130 206 -117 5 9 -393 370 -446 405 -35 22 -59
15 -59 -18 0 -39 -43 -66 -105 -66 -66 0 -131 20 -227 69 -100 52 -118 57
-118 36z M10426 194 c-10 -47 -15 -88 -12 -91 5 -6 9 7 30 110 7 37 10 67 6
67 -4 0 -15 -39 -24 -86z M10740 270 c0 -5 5 -10 10 -10 6 0 10 5 10 10 0 6
-4 10 -10 10 -5 0 -10 -4 -10 -10z M11286 194 c-10 -47 -15 -88 -12 -91 5 -6
9 7 30 110 7 37 10 67 6 67 -4 0 -15 -39 -24 -86z M11366 269 c-3 -8 -10 -41
-16 -74 -6 -33 -14 -68 -16 -77 -3 -10 -1 -18 3 -18 10 0 46 171 38 178 -2 3
-7 -1 -9 -9z M10129 241 c-38 -38 -41 -101 -7 -125 29 -20 79 -20 104 0 18 14
18 15 1 10 -53 -17 -69 -17 -92 -2 -69 45 21 166 94 126 12 -6 21 -7 21 -1 0
12 -25 21 -62 21 -19 0 -39 -10 -59 -29z M11130 189 c-28 -45 -49 -83 -47 -85
2 -3 12 7 21 21 14 21 24 25 66 25 43 0 50 -3 50 -19 0 -11 5 -23 10 -26 6 -3
10 -3 10 1 0 20 -44 164 -51 164 -4 0 -30 -37 -59 -81z m75 4 l7 -33 -42 0
c-42 0 -42 0 -28 23 8 12 21 32 29 44 15 25 22 18 34 -34z M10280 210 c-22
-22 -27 -79 -8 -98 19 -19 66 -14 88 8 22 22 27 79 8 98 -19 19 -66 14 -88 -8z
m71 0 c25 -14 25 -54 -1 -80 -23 -23 -33 -24 -61 -10 -25 14 -25 54 1 80 23
23 33 24 61 10z M10490 210 c-22 -22 -27 -79 -8 -98 19 -19 66 -14 88 8 22 22
27 79 8 98 -19 19 -66 14 -88 -8z m71 0 c25 -14 25 -54 -1 -80 -23 -23 -33
-24 -61 -10 -25 14 -25 54 1 80 23 23 33 24 61 10z M10636 204 c-3 -16 -8 -47
-11 -69 -8 -51 10 -26 19 27 5 27 15 42 34 53 18 10 22 14 10 15 -9 0 -20 -5
-24 -11 -5 -8 -9 -8 -14 1 -5 8 -10 3 -14 -16z M10737 223 c-2 -4 -7 -26 -11
-48 -4 -22 -9 -48 -12 -57 -3 -10 -1 -18 4 -18 4 0 14 28 20 62 11 58 10 81
-1 61z M10795 220 c-1 -3 -5 -23 -9 -45 -4 -22 -9 -48 -12 -57 -3 -10 -1 -18
4 -18 5 0 13 20 17 45 7 53 44 87 74 68 17 -11 19 -28 8 -80 -4 -18 -3 -33 2
-33 16 0 24 99 11 115 -12 14 -87 18 -95 5z M10960 210 c-22 -22 -27 -79 -8
-98 7 -7 24 -12 38 -12 14 0 31 5 38 12 9 9 12 8 12 -5 0 -9 -12 -24 -26 -34
-21 -13 -32 -15 -55 -6 -16 6 -29 8 -29 3 0 -24 81 -27 102 -2 18 19 50 162
37 162 -5 0 -9 -5 -9 -10 0 -7 -6 -7 -19 0 -30 16 -59 12 -81 -10z m71 0 c29
-16 25 -65 -6 -86 -56 -37 -103 28 -55 76 23 23 33 24 61 10z M11461 211 c-23
-23 -28 -80 -9 -99 19 -19 88 -13 88 9 0 5 -11 4 -24 -2 -54 -25 -89 38 -46
81 23 23 33 24 62 9 16 -9 19 -8 16 3 -8 22 -64 22 -87 -1z M11590 210 c-22
-22 -27 -79 -8 -98 19 -19 66 -14 88 8 22 22 27 79 8 98 -19 19 -66 14 -88 -8z
m71 0 c25 -14 25 -54 -1 -80 -23 -23 -33 -24 -61 -10 -25 14 -25 54 1 80 23
23 33 24 61 10z M11736 201 c-3 -14 -8 -44 -11 -66 -8 -51 10 -26 19 27 8 41
35 63 66 53 22 -7 24 -21 11 -77 -5 -22 -5 -38 0 -38 5 0 9 6 9 13 0 68 51
125 85 97 15 -13 15 -35 -1 -92 -3 -10 -1 -18 4 -18 6 0 13 23 17 50 9 63 -5
84 -49 76 -17 -4 -35 -6 -41 -6 -101 8 -104 7 -109 -19z M11380 110 c0 -5 5
-10 10 -10 6 0 10 5 10 10 0 6 -4 10 -10 10 -5 0 -10 -4 -10 -10z"/>
</g>
</svg>
